<svg id="图层_1" data-name="图层 1" xmlns="http://www.w3.org/2000/svg" viewBox="0 0 347.19 75.009"><defs><style>.cls-1{fill:#fff;}.cls-19,.cls-2,.cls-33,.cls-39{font-size:11.02px;}.cls-2{font-family:DengXian-Bold, DengXian;font-weight:700;}.cls-3{letter-spacing:0.011em;}.cls-4{letter-spacing:-0.021em;}.cls-5{letter-spacing:0.003em;}.cls-6{letter-spacing:0.008em;}.cls-7{letter-spacing:0.016em;}.cls-8{letter-spacing:0.024em;}.cls-9{letter-spacing:0.002em;}.cls-10{letter-spacing:-0.009em;}.cls-11{letter-spacing:0.013em;}.cls-12{letter-spacing:0.008em;}.cls-13{letter-spacing:0.021em;}.cls-14{letter-spacing:0.008em;}.cls-15{letter-spacing:0.027em;}.cls-16{letter-spacing:0.016em;}.cls-17{letter-spacing:-0.019em;}.cls-18{letter-spacing:0.024em;}.cls-19,.cls-33,.cls-39{font-family:DengXian;}.cls-20{letter-spacing:0.023em;}.cls-21{letter-spacing:0.004em;}.cls-22{letter-spacing:-0.001em;}.cls-23{letter-spacing:0em;}.cls-24{letter-spacing:-0.017em;}.cls-25{letter-spacing:-0.008em;}.cls-26{letter-spacing:-0.005em;}.cls-27{letter-spacing:-0.013em;}.cls-28{letter-spacing:0.005em;}.cls-29{letter-spacing:-0.018em;}.cls-30{letter-spacing:0.015em;}.cls-31,.cls-33{letter-spacing:-0.026em;}.cls-32{letter-spacing:0.002em;}.cls-34{letter-spacing:0em;}.cls-35{letter-spacing:0.003em;}.cls-36{letter-spacing:-0.001em;}.cls-37{letter-spacing:-0.018em;}.cls-38{letter-spacing:0.015em;}.cls-39{letter-spacing:-0.026em;}.cls-40{letter-spacing:0.019em;}.cls-41{letter-spacing:0.024em;}.cls-42{letter-spacing:0.02em;}.cls-43{letter-spacing:0.013em;}.cls-44{letter-spacing:0.027em;}.cls-45{letter-spacing:0.018em;}.cls-46{letter-spacing:-0.009em;}.cls-47{letter-spacing:0.013em;}.cls-48,.cls-49,.cls-52{fill:none;}.cls-48,.cls-50,.cls-51{fill-rule:evenodd;}.cls-49{stroke:#d4d4d4;stroke-linecap:square;stroke-width:0;}.cls-49,.cls-52{stroke-miterlimit:10;}.cls-50{fill:#d4d4d4;}.cls-52{stroke:#000;stroke-width:2px;}.cls-53{letter-spacing:-0.017em;}.cls-54{letter-spacing:0.018em;}.cls-55{letter-spacing:-0.008em;}.cls-56{letter-spacing:0.008em;}.cls-57{letter-spacing:0em;}</style></defs><rect class="cls-1" x="1.095" y="16.911" width="346" height="57"/><text class="cls-2" transform="translate(147.571 41.798)"><tspan class="cls-3">S</tspan><tspan class="cls-4" x="6.121" y="0">a</tspan><tspan class="cls-5" x="11.641" y="0">m</tspan><tspan class="cls-6" x="21.435" y="0">p</tspan><tspan class="cls-7" x="28.163" y="0">l</tspan><tspan class="cls-8" x="31.217" y="0">e</tspan><tspan class="cls-9" x="37.336" y="0"> </tspan><tspan class="cls-10" x="40.387" y="0">C</tspan><tspan class="cls-11" x="47.133" y="0">o</tspan><tspan class="cls-12" x="53.856" y="0">d</tspan><tspan x="60.585" y="0">e</tspan></text><text class="cls-2" transform="translate(250.438 41.798)"><tspan class="cls-13">O</tspan><tspan class="cls-14" x="8.561" y="0">p</tspan><tspan class="cls-15" x="15.289" y="0">t</tspan><tspan class="cls-7" x="19.568" y="0">i</tspan><tspan class="cls-5" x="22.622" y="0">m</tspan><tspan class="cls-16" x="32.416" y="0">i</tspan><tspan class="cls-17" x="35.471" y="0">z</tspan><tspan class="cls-18" x="40.38" y="0">e</tspan><tspan class="cls-12" x="46.498" y="0">d</tspan><tspan class="cls-9" x="53.226" y="0"> </tspan><tspan class="cls-10" x="56.277" y="0">C</tspan><tspan class="cls-11" x="63.023" y="0">o</tspan><tspan class="cls-14" x="69.746" y="0">d</tspan><tspan x="76.474" y="0">e</tspan></text><text class="cls-19" transform="translate(18.368 55.876)"><tspan class="cls-20">F</tspan><tspan class="cls-21" x="5.505" y="0">u</tspan><tspan class="cls-22" x="11.618" y="0">ll</tspan><tspan class="cls-23" x="16.525" y="0">-</tspan><tspan class="cls-24" x="22.035" y="0">s</tspan><tspan class="cls-25" x="26.324" y="0">c</tspan><tspan class="cls-26" x="31.224" y="0">r</tspan><tspan class="cls-27" x="34.903" y="0">ee</tspan><tspan class="cls-28" x="45.938" y="0">n</tspan><tspan class="cls-5" x="52.057" y="0"> </tspan><tspan x="55.109" y="0">U</tspan><tspan class="cls-29" x="62.464" y="0">pd</tspan><tspan x="74.717" y="0">a</tspan><tspan class="cls-30" x="80.238" y="0">t</tspan><tspan x="83.906" y="0">e</tspan></text><text class="cls-19" transform="translate(165.938 55.876)"><tspan class="cls-31">71</tspan><tspan class="cls-32" x="11.039" y="0">.</tspan><tspan class="cls-31" x="13.477" y="0">0</tspan><tspan x="18.996" y="0">30</tspan></text><text class="cls-33" transform="translate(276.766 55.876)">10<tspan class="cls-32" x="11.039" y="0">.</tspan><tspan x="13.477" y="0">50</tspan><tspan class="cls-34" x="24.515" y="0">7</tspan></text><text class="cls-19" transform="translate(29.383 69.954)"><tspan class="cls-35">P</tspan><tspan class="cls-23" x="6.113" y="0">a</tspan><tspan class="cls-26" x="11.634" y="0">r</tspan><tspan class="cls-30" x="15.313" y="0">t</tspan><tspan class="cls-36" x="18.981" y="0">i</tspan><tspan class="cls-23" x="21.434" y="0">a</tspan><tspan class="cls-36" x="26.955" y="0">l</tspan><tspan class="cls-5" x="29.408" y="0"> </tspan><tspan x="32.46" y="0">U</tspan><tspan class="cls-37" x="39.815" y="0">pd</tspan><tspan class="cls-23" x="52.069" y="0">a</tspan><tspan class="cls-38" x="57.59" y="0">t</tspan><tspan x="61.257" y="0">e</tspan></text><text class="cls-39" transform="translate(165.938 69.954)">16<tspan class="cls-32" x="11.039" y="0">.</tspan><tspan class="cls-31" x="13.477" y="0">29</tspan><tspan class="cls-34" x="24.515" y="0">5</tspan></text><text class="cls-19" transform="translate(282.287 69.954)"><tspan class="cls-31">3</tspan><tspan class="cls-32" x="5.519" y="0">.</tspan><tspan class="cls-31" x="7.957" y="0">32</tspan><tspan x="18.996" y="0">5</tspan></text><text class="cls-2" transform="translate(27.548 34.454)"><tspan class="cls-40">U</tspan><tspan class="cls-6" x="7.957" y="0">pd</tspan><tspan class="cls-4" x="21.414" y="0">a</tspan><tspan class="cls-15" x="26.934" y="0">t</tspan><tspan class="cls-41" x="31.213" y="0">e</tspan><tspan class="cls-32" x="37.332" y="0"> </tspan><tspan class="cls-42" x="40.384" y="0">M</tspan><tspan class="cls-43" x="50.79" y="0">o</tspan><tspan class="cls-14" x="57.513" y="0">d</tspan><tspan x="64.241" y="0">e</tspan></text><text class="cls-2" transform="translate(172.242 27.111)"><tspan class="cls-24">E</tspan><tspan class="cls-44" x="5.516" y="0">n</tspan><tspan class="cls-8" x="12.244" y="0">e</tspan><tspan class="cls-45" x="18.363" y="0">r</tspan><tspan class="cls-14" x="22.639" y="0">g</tspan><tspan class="cls-25" x="29.367" y="0">y</tspan><tspan class="cls-9" x="34.881" y="0"> </tspan><tspan class="cls-46" x="37.932" y="0">C</tspan><tspan class="cls-47" x="44.677" y="0">o</tspan><tspan class="cls-44" x="51.401" y="0">n</tspan><tspan class="cls-47" x="58.128" y="0">s</tspan><tspan class="cls-44" x="63.023" y="0">u</tspan><tspan class="cls-5" x="69.75" y="0">m</tspan><tspan class="cls-14" x="79.544" y="0">p</tspan><tspan class="cls-15" x="86.272" y="0">t</tspan><tspan class="cls-16" x="90.551" y="0">i</tspan><tspan class="cls-11" x="93.606" y="0">o</tspan><tspan x="100.33" y="0">n(mJ)</tspan></text><polygon class="cls-48" points="125.527 16.686 345.965 16.686 345.965 30.155 125.527 30.155 125.527 16.686 125.527 16.686"/><line class="cls-49" y1="30.155" x2="0.612" y2="30.155"/><line class="cls-49" x1="236.359" y1="16.074" x2="236.359" y2="16.686"/><polyline class="cls-50" points="236.359 16.074 236.359 16.686 236.971 16.686 236.971 16.074 236.359 16.074"/><line class="cls-49" x1="124.915" y1="16.074" x2="124.915" y2="73.621"/><polyline class="cls-50" points="124.915 16.074 124.915 73.621 125.527 73.621 125.527 16.074 124.915 16.074"/><line class="cls-49" x1="236.359" y1="30.767" x2="236.359" y2="73.621"/><polyline class="cls-50" points="236.359 30.767 236.359 73.621 236.971 73.621 236.971 30.767 236.359 30.767"/><path class="cls-49" d="M422.87,109.711" transform="translate(-76.905 -36.089)"/><path class="cls-49" d="M422.87,52.163" transform="translate(-76.905 -36.089)"/><line class="cls-49" x1="125.527" y1="30.155" x2="347.19" y2="30.155"/><polyline class="cls-50" points="125.527 30.155 125.527 30.767 347.19 30.767 347.19 30.155 125.527 30.155"/><line class="cls-49" y1="44.235" x2="347.19" y2="44.235"/><polyline class="cls-51" points="1.095 44.235 1.095 44.848 347.19 44.848 347.19 44.235 1.095 44.235"/><polyline class="cls-50" points="1.095 58.316 1.095 58.928 347.19 58.928 347.19 58.316 1.095 58.316"/><path class="cls-49" d="M76.905,108.486" transform="translate(-76.905 -36.089)"/><path class="cls-50" d="M76.905,108.486" transform="translate(-76.905 -36.089)"/><line class="cls-52" x1="347.095" y1="16.686" x2="1.095" y2="16.686"/><line class="cls-52" x1="347.095" y1="74.009" x2="1.095" y2="74.009"/><text class="cls-2" transform="translate(35.992 8.921)">Chart. <tspan class="cls-53" x="32.758" y="0">E</tspan><tspan class="cls-15" x="38.274" y="0">n</tspan><tspan class="cls-18" x="45.002" y="0">e</tspan><tspan class="cls-54" x="51.12" y="0">r</tspan><tspan class="cls-14" x="55.397" y="0">g</tspan><tspan class="cls-55" x="62.125" y="0">y</tspan><tspan class="cls-32" x="67.638" y="0"> </tspan><tspan class="cls-46" x="70.69" y="0">C</tspan><tspan class="cls-11" x="77.435" y="0">o</tspan><tspan class="cls-15" x="84.158" y="0">n</tspan><tspan class="cls-47" x="90.886" y="0">s</tspan><tspan class="cls-44" x="95.781" y="0">u</tspan><tspan class="cls-5" x="102.508" y="0">m</tspan><tspan class="cls-56" x="112.302" y="0">p</tspan><tspan class="cls-15" x="119.029" y="0">t</tspan><tspan class="cls-16" x="123.308" y="0">i</tspan><tspan class="cls-47" x="126.363" y="0">o</tspan><tspan class="cls-57" x="133.088" y="0">n in Different Update Modes</tspan></text></svg>