<svg id="图层_1" data-name="图层 1" xmlns="http://www.w3.org/2000/svg" viewBox="0 0 347.19 59.32"><defs><style>.cls-1{fill:#fff;}.cls-19,.cls-2,.cls-33,.cls-39{font-size:11.02px;}.cls-2{font-family:DengXian-Bold, DengXian;font-weight:700;}.cls-3{letter-spacing:0.01em;}.cls-4{letter-spacing:-0.02em;}.cls-5{letter-spacing:0em;}.cls-6{letter-spacing:0.01em;}.cls-7{letter-spacing:0.02em;}.cls-8{letter-spacing:0.02em;}.cls-9{letter-spacing:0em;}.cls-10{letter-spacing:-0.01em;}.cls-11{letter-spacing:0.01em;}.cls-12{letter-spacing:0.01em;}.cls-13{letter-spacing:0.02em;}.cls-14{letter-spacing:0.01em;}.cls-15{letter-spacing:0.03em;}.cls-16{letter-spacing:0.02em;}.cls-17{letter-spacing:-0.02em;}.cls-18{letter-spacing:0.02em;}.cls-19,.cls-33,.cls-39{font-family:DengXian;}.cls-20{letter-spacing:0.02em;}.cls-21{letter-spacing:0em;}.cls-22{letter-spacing:0em;}.cls-23{letter-spacing:0em;}.cls-24{letter-spacing:-0.02em;}.cls-25{letter-spacing:-0.01em;}.cls-26{letter-spacing:-0.01em;}.cls-27{letter-spacing:-0.01em;}.cls-28{letter-spacing:0.01em;}.cls-29{letter-spacing:-0.02em;}.cls-30{letter-spacing:0.02em;}.cls-31,.cls-33{letter-spacing:-0.03em;}.cls-32{letter-spacing:0em;}.cls-34{letter-spacing:0em;}.cls-35{letter-spacing:0em;}.cls-36{letter-spacing:0em;}.cls-37{letter-spacing:-0.02em;}.cls-38{letter-spacing:0.01em;}.cls-39{letter-spacing:-0.03em;}.cls-40{letter-spacing:0.02em;}.cls-41{letter-spacing:0.02em;}.cls-42{letter-spacing:0.02em;}.cls-43{letter-spacing:0.01em;}.cls-44{letter-spacing:0.03em;}.cls-45{letter-spacing:0.02em;}.cls-46{letter-spacing:-0.01em;}.cls-47{letter-spacing:0.01em;}.cls-48,.cls-49,.cls-52{fill:none;}.cls-48,.cls-50,.cls-51{fill-rule:evenodd;}.cls-49{stroke:#d4d4d4;stroke-linecap:square;stroke-width:0;}.cls-49,.cls-52{stroke-miterlimit:10;}.cls-50{fill:#d4d4d4;}.cls-52{stroke:#000;stroke-width:2px;}</style></defs><title>chart</title><rect class="cls-1" x="1.09" y="1.22" width="346" height="57"/><text class="cls-2" transform="translate(147.57 26.11)"><tspan class="cls-3">S</tspan><tspan class="cls-4" x="6.12" y="0">a</tspan><tspan class="cls-5" x="11.64" y="0">m</tspan><tspan class="cls-6" x="21.44" y="0">p</tspan><tspan class="cls-7" x="28.16" y="0">l</tspan><tspan class="cls-8" x="31.22" y="0">e</tspan><tspan class="cls-9" x="37.34" y="0"> </tspan><tspan class="cls-10" x="40.39" y="0">C</tspan><tspan class="cls-11" x="47.13" y="0">o</tspan><tspan class="cls-12" x="53.86" y="0">d</tspan><tspan x="60.58" y="0">e</tspan></text><text class="cls-2" transform="translate(250.44 26.11)"><tspan class="cls-13">O</tspan><tspan class="cls-14" x="8.56" y="0">p</tspan><tspan class="cls-15" x="15.29" y="0">t</tspan><tspan class="cls-7" x="19.57" y="0">i</tspan><tspan class="cls-5" x="22.62" y="0">m</tspan><tspan class="cls-16" x="32.42" y="0">i</tspan><tspan class="cls-17" x="35.47" y="0">z</tspan><tspan class="cls-18" x="40.38" y="0">e</tspan><tspan class="cls-12" x="46.5" y="0">d</tspan><tspan class="cls-9" x="53.23" y="0"> </tspan><tspan class="cls-10" x="56.28" y="0">C</tspan><tspan class="cls-11" x="63.02" y="0">o</tspan><tspan class="cls-14" x="69.75" y="0">d</tspan><tspan x="76.47" y="0">e</tspan></text><text class="cls-19" transform="translate(18.37 40.19)"><tspan class="cls-20">F</tspan><tspan class="cls-21" x="5.51" y="0">u</tspan><tspan class="cls-22" x="11.62" y="0">ll</tspan><tspan class="cls-23" x="16.53" y="0">-</tspan><tspan class="cls-24" x="22.04" y="0">s</tspan><tspan class="cls-25" x="26.32" y="0">c</tspan><tspan class="cls-26" x="31.22" y="0">r</tspan><tspan class="cls-27" x="34.9" y="0">ee</tspan><tspan class="cls-28" x="45.94" y="0">n</tspan><tspan class="cls-5" x="52.06" y="0"> </tspan><tspan x="55.11" y="0">U</tspan><tspan class="cls-29" x="62.46" y="0">pd</tspan><tspan x="74.72" y="0">a</tspan><tspan class="cls-30" x="80.24" y="0">t</tspan><tspan x="83.91" y="0">e</tspan></text><text class="cls-19" transform="translate(165.94 40.19)"><tspan class="cls-31">71</tspan><tspan class="cls-32" x="11.04" y="0">.</tspan><tspan class="cls-31" x="13.48" y="0">0</tspan><tspan x="19" y="0">30</tspan></text><text class="cls-33" transform="translate(276.77 40.19)">10<tspan class="cls-32" x="11.04" y="0">.</tspan><tspan x="13.48" y="0">50</tspan><tspan class="cls-34" x="24.51" y="0">7</tspan></text><text class="cls-19" transform="translate(29.38 54.27)"><tspan class="cls-35">P</tspan><tspan class="cls-23" x="6.11" y="0">a</tspan><tspan class="cls-26" x="11.63" y="0">r</tspan><tspan class="cls-30" x="15.31" y="0">t</tspan><tspan class="cls-36" x="18.98" y="0">i</tspan><tspan class="cls-23" x="21.43" y="0">a</tspan><tspan class="cls-36" x="26.96" y="0">l</tspan><tspan class="cls-5" x="29.41" y="0"> </tspan><tspan x="32.46" y="0">U</tspan><tspan class="cls-37" x="39.82" y="0">pd</tspan><tspan class="cls-23" x="52.07" y="0">a</tspan><tspan class="cls-38" x="57.59" y="0">t</tspan><tspan x="61.26" y="0">e</tspan></text><text class="cls-39" transform="translate(165.94 54.27)">16<tspan class="cls-32" x="11.04" y="0">.</tspan><tspan class="cls-31" x="13.48" y="0">29</tspan><tspan class="cls-34" x="24.51" y="0">5</tspan></text><text class="cls-19" transform="translate(282.29 54.27)"><tspan class="cls-31">3</tspan><tspan class="cls-32" x="5.52" y="0">.</tspan><tspan class="cls-31" x="7.96" y="0">32</tspan><tspan x="19" y="0">5</tspan></text><text class="cls-2" transform="translate(27.55 18.77)"><tspan class="cls-40">U</tspan><tspan class="cls-6" x="7.96" y="0">pd</tspan><tspan class="cls-4" x="21.41" y="0">a</tspan><tspan class="cls-15" x="26.93" y="0">t</tspan><tspan class="cls-41" x="31.21" y="0">e</tspan><tspan class="cls-32" x="37.33" y="0"> </tspan><tspan class="cls-42" x="40.38" y="0">M</tspan><tspan class="cls-43" x="50.79" y="0">o</tspan><tspan class="cls-14" x="57.51" y="0">d</tspan><tspan x="64.24" y="0">e</tspan></text><text class="cls-2" transform="translate(172.24 11.42)"><tspan class="cls-24">E</tspan><tspan class="cls-44" x="5.52" y="0">n</tspan><tspan class="cls-8" x="12.24" y="0">e</tspan><tspan class="cls-45" x="18.36" y="0">r</tspan><tspan class="cls-14" x="22.64" y="0">g</tspan><tspan class="cls-25" x="29.37" y="0">y</tspan><tspan class="cls-9" x="34.88" y="0"> </tspan><tspan class="cls-46" x="37.93" y="0">C</tspan><tspan class="cls-47" x="44.68" y="0">o</tspan><tspan class="cls-44" x="51.4" y="0">n</tspan><tspan class="cls-47" x="58.13" y="0">s</tspan><tspan class="cls-44" x="63.02" y="0">u</tspan><tspan class="cls-5" x="69.75" y="0">m</tspan><tspan class="cls-14" x="79.54" y="0">p</tspan><tspan class="cls-15" x="86.27" y="0">t</tspan><tspan class="cls-16" x="90.55" y="0">i</tspan><tspan class="cls-11" x="93.61" y="0">o</tspan><tspan x="100.33" y="0">n(mJ)</tspan></text><polygon class="cls-48" points="125.53 1 345.96 1 345.96 14.47 125.53 14.47 125.53 1 125.53 1"/><line class="cls-49" y1="14.47" x2="0.61" y2="14.47"/><line class="cls-49" x1="236.36" y1="0.39" x2="236.36" y2="1"/><polyline class="cls-50" points="236.36 0.39 236.36 1 236.97 1 236.97 0.39 236.36 0.39"/><line class="cls-49" x1="124.91" y1="0.39" x2="124.91" y2="57.94"/><polyline class="cls-50" points="124.92 0.39 124.92 57.94 125.53 57.94 125.53 0.39 124.92 0.39"/><line class="cls-49" x1="236.36" y1="15.08" x2="236.36" y2="57.94"/><polyline class="cls-50" points="236.36 15.08 236.36 57.94 236.97 57.94 236.97 15.08 236.36 15.08"/><path class="cls-49" d="M422.87,109.71" transform="translate(-76.91 -51.78)"/><path class="cls-49" d="M422.87,52.16" transform="translate(-76.91 -51.78)"/><line class="cls-49" x1="125.53" y1="14.47" x2="347.19" y2="14.47"/><polyline class="cls-50" points="125.53 14.47 125.53 15.08 347.19 15.08 347.19 14.47 125.53 14.47"/><line class="cls-49" y1="28.55" x2="347.19" y2="28.55"/><polyline class="cls-51" points="1.09 28.55 1.09 29.16 347.19 29.16 347.19 28.55 1.09 28.55"/><polyline class="cls-50" points="1.09 42.63 1.09 43.24 347.19 43.24 347.19 42.63 1.09 42.63"/><path class="cls-49" d="M76.91,108.49" transform="translate(-76.91 -51.78)"/><path class="cls-50" d="M76.91,108.49" transform="translate(-76.91 -51.78)"/><line class="cls-52" x1="347.09" y1="1" x2="1.09" y2="1"/><line class="cls-52" x1="347.09" y1="58.32" x2="1.09" y2="58.32"/></svg>