<svg id="图层_1" data-name="图层 1" xmlns="http://www.w3.org/2000/svg" xmlns:xlink="http://www.w3.org/1999/xlink" viewBox="0 0 332.04 220.08"><defs><style>.cls-1,.cls-11,.cls-12,.cls-14,.cls-2,.cls-3,.cls-6,.cls-7,.cls-9{fill:none;}.cls-1{clip-rule:evenodd;}.cls-2,.cls-4{fill-rule:evenodd;}.cls-4{fill:#fff;}.cls-5{clip-path:url(#clip-path);}.cls-6{stroke:#d9d9d9;}.cls-11,.cls-12,.cls-14,.cls-6,.cls-7,.cls-9{stroke-linejoin:round;}.cls-11,.cls-14,.cls-6,.cls-7{stroke-width:0.72px;}.cls-7{stroke:#bfbfbf;}.cls-8{clip-path:url(#clip-path-5);}.cls-11,.cls-9{stroke:#5b9bd5;}.cls-12,.cls-9{stroke-linecap:round;stroke-width:1.56px;}.cls-10{fill:#5b9bd5;}.cls-12,.cls-14{stroke:#ed7d31;}.cls-13{fill:#ed7d31;}.cls-15{clip-path:url(#clip-path-10);}.cls-16{font-size:9px;}.cls-16,.cls-17{fill:#595959;font-family:Calibri;}.cls-17{font-size:9.96px;}.cls-18{letter-spacing:0.01em;}.cls-19{letter-spacing:0em;}.cls-20{letter-spacing:0em;}.cls-21{letter-spacing:0em;}.cls-22{letter-spacing:0em;}.cls-23{letter-spacing:0em;}.cls-24{letter-spacing:-0.01em;}.cls-25{letter-spacing:0em;}.cls-26{letter-spacing:0em;}.cls-27{letter-spacing:0.01em;}.cls-28{letter-spacing:0em;}.cls-29{letter-spacing:0em;}.cls-30{letter-spacing:0em;}.cls-31{letter-spacing:0em;}</style><clipPath id="clip-path" transform="translate(-724.36 -410.37)"><polygon class="cls-1" points="724.25 630.45 1056.29 630.45 1056.29 410.37 724.25 410.37 724.25 630.45 724.25 630.45"/></clipPath><clipPath id="clip-path-5" transform="translate(-724.36 -410.37)"><polygon class="cls-1" points="773.33 597.33 1041.05 597.33 1041.05 423.21 773.33 423.21 773.33 597.33 773.33 597.33"/></clipPath><clipPath id="clip-path-10" transform="translate(-724.36 -410.37)"><rect class="cls-3" x="724.24" y="410.37" width="332.04" height="220.08"/></clipPath></defs><title>Energy per click</title><polygon class="cls-4" points="0 0 332.04 0 332.04 220.08 0 220.08 0 0 0 0"/><g class="cls-5"><path class="cls-6" d="M773.44,571.89h266.88M773.44,547.05h266.88M773.44,522.33h266.88M773.44,497.49h266.88M773.44,472.77h266.88M773.44,448.05h266.88M773.44,423.21h266.88" transform="translate(-724.36 -410.37)"/></g><g class="cls-5"><path class="cls-6" d="M817.84,423.21v173.4m44.52-173.4v173.4m44.52-173.4v173.4m44.4-173.4v173.4m44.52-173.4v173.4m44.52-173.4v173.4" transform="translate(-724.36 -410.37)"/></g><g class="cls-5"><line class="cls-7" x1="49.08" y1="186.24" x2="49.08" y2="12.84"/></g><g class="cls-5"><line class="cls-7" x1="49.08" y1="186.24" x2="315.96" y2="186.24"/></g><g class="cls-8"><polyline class="cls-9" points="49.02 129.66 71.22 91.74 93.54 68.58 115.74 58.98 137.94 34.5 160.26 34.98 182.46 34.14 204.78 33.54 226.98 38.94 249.18 39.9 271.5 59.82 293.7 67.02"/></g><g class="cls-5"><path class="cls-10" d="M776,540a2.52,2.52,0,1,1-2.52-2.52A2.52,2.52,0,0,1,776,540Z" transform="translate(-724.36 -410.37)"/><path class="cls-11" d="M776,540a2.52,2.52,0,1,1-2.52-2.52A2.52,2.52,0,0,1,776,540Z" transform="translate(-724.36 -410.37)"/><path class="cls-10" d="M798.15,502.22a2.52,2.52,0,1,1-2.52-2.52,2.52,2.52,0,0,1,2.52,2.52Z" transform="translate(-724.36 -410.37)"/><path class="cls-11" d="M798.15,502.22a2.52,2.52,0,1,1-2.52-2.52,2.52,2.52,0,0,1,2.52,2.52Z" transform="translate(-724.36 -410.37)"/><path class="cls-10" d="M820.35,478.94a2.52,2.52,0,1,1-2.52-2.52,2.52,2.52,0,0,1,2.52,2.52Z" transform="translate(-724.36 -410.37)"/><path class="cls-11" d="M820.35,478.94a2.52,2.52,0,1,1-2.52-2.52,2.52,2.52,0,0,1,2.52,2.52Z" transform="translate(-724.36 -410.37)"/><path class="cls-10" d="M842.67,469.46a2.52,2.52,0,1,1-2.52-2.52,2.52,2.52,0,0,1,2.52,2.52Z" transform="translate(-724.36 -410.37)"/><path class="cls-11" d="M842.67,469.46a2.52,2.52,0,1,1-2.52-2.52,2.52,2.52,0,0,1,2.52,2.52Z" transform="translate(-724.36 -410.37)"/><path class="cls-10" d="M864.87,445a2.52,2.52,0,1,1-2.52-2.52,2.52,2.52,0,0,1,2.52,2.52Z" transform="translate(-724.36 -410.37)"/><path class="cls-11" d="M864.87,445a2.52,2.52,0,1,1-2.52-2.52,2.52,2.52,0,0,1,2.52,2.52Z" transform="translate(-724.36 -410.37)"/><path class="cls-10" d="M887.07,445.34a2.52,2.52,0,1,1-2.52-2.52,2.52,2.52,0,0,1,2.52,2.52Z" transform="translate(-724.36 -410.37)"/><path class="cls-11" d="M887.07,445.34a2.52,2.52,0,1,1-2.52-2.52,2.52,2.52,0,0,1,2.52,2.52Z" transform="translate(-724.36 -410.37)"/><path class="cls-10" d="M909.39,444.5a2.52,2.52,0,1,1-2.52-2.52,2.52,2.52,0,0,1,2.52,2.52Z" transform="translate(-724.36 -410.37)"/><path class="cls-11" d="M909.39,444.5a2.52,2.52,0,1,1-2.52-2.52,2.52,2.52,0,0,1,2.52,2.52Z" transform="translate(-724.36 -410.37)"/><path class="cls-10" d="M931.59,443.9a2.52,2.52,0,1,1-2.52-2.52,2.52,2.52,0,0,1,2.52,2.52Z" transform="translate(-724.36 -410.37)"/><path class="cls-11" d="M931.59,443.9a2.52,2.52,0,1,1-2.52-2.52,2.52,2.52,0,0,1,2.52,2.52Z" transform="translate(-724.36 -410.37)"/><path class="cls-10" d="M953.79,449.42a2.52,2.52,0,1,1-2.52-2.52,2.52,2.52,0,0,1,2.52,2.52Z" transform="translate(-724.36 -410.37)"/><path class="cls-11" d="M953.79,449.42a2.52,2.52,0,1,1-2.52-2.52,2.52,2.52,0,0,1,2.52,2.52Z" transform="translate(-724.36 -410.37)"/><path class="cls-10" d="M976.11,450.26a2.52,2.52,0,1,1-2.52-2.52,2.52,2.52,0,0,1,2.52,2.52Z" transform="translate(-724.36 -410.37)"/><path class="cls-11" d="M976.11,450.26a2.52,2.52,0,1,1-2.52-2.52,2.52,2.52,0,0,1,2.52,2.52Z" transform="translate(-724.36 -410.37)"/><path class="cls-10" d="M998.31,470.18a2.52,2.52,0,1,1-2.52-2.52,2.52,2.52,0,0,1,2.52,2.52Z" transform="translate(-724.36 -410.37)"/><path class="cls-11" d="M998.31,470.18a2.52,2.52,0,1,1-2.52-2.52,2.52,2.52,0,0,1,2.52,2.52Z" transform="translate(-724.36 -410.37)"/><path class="cls-10" d="M1020.51,477.38a2.52,2.52,0,1,1-2.52-2.52,2.52,2.52,0,0,1,2.52,2.52Z" transform="translate(-724.36 -410.37)"/><path class="cls-11" d="M1020.51,477.38a2.52,2.52,0,1,1-2.52-2.52,2.52,2.52,0,0,1,2.52,2.52Z" transform="translate(-724.36 -410.37)"/></g><g class="cls-8"><polyline class="cls-12" points="49.02 98.94 71.22 83.34 93.54 65.82 115.74 53.58 137.94 47.46 160.26 41.22 182.46 34.98 204.78 47.34 226.98 48.78 249.18 64.62 271.5 73.86 293.7 83.7"/></g><g class="cls-5"><path class="cls-13" d="M776,509.42a2.52,2.52,0,1,1-2.52-2.52,2.52,2.52,0,0,1,2.52,2.52Z" transform="translate(-724.36 -410.37)"/><path class="cls-14" d="M776,509.42a2.52,2.52,0,1,1-2.52-2.52,2.52,2.52,0,0,1,2.52,2.52Z" transform="translate(-724.36 -410.37)"/><path class="cls-13" d="M798.15,493.7a2.52,2.52,0,1,1-2.52-2.52,2.52,2.52,0,0,1,2.52,2.52Z" transform="translate(-724.36 -410.37)"/><path class="cls-14" d="M798.15,493.7a2.52,2.52,0,1,1-2.52-2.52,2.52,2.52,0,0,1,2.52,2.52Z" transform="translate(-724.36 -410.37)"/><path class="cls-13" d="M820.35,476.3a2.52,2.52,0,1,1-2.52-2.52,2.52,2.52,0,0,1,2.52,2.52Z" transform="translate(-724.36 -410.37)"/><path class="cls-14" d="M820.35,476.3a2.52,2.52,0,1,1-2.52-2.52,2.52,2.52,0,0,1,2.52,2.52Z" transform="translate(-724.36 -410.37)"/><path class="cls-13" d="M842.67,463.94a2.52,2.52,0,1,1-2.52-2.52,2.52,2.52,0,0,1,2.52,2.52Z" transform="translate(-724.36 -410.37)"/><path class="cls-14" d="M842.67,463.94a2.52,2.52,0,1,1-2.52-2.52,2.52,2.52,0,0,1,2.52,2.52Z" transform="translate(-724.36 -410.37)"/><path class="cls-13" d="M864.87,457.94a2.52,2.52,0,1,1-2.52-2.52,2.52,2.52,0,0,1,2.52,2.52Z" transform="translate(-724.36 -410.37)"/><path class="cls-14" d="M864.87,457.94a2.52,2.52,0,1,1-2.52-2.52,2.52,2.52,0,0,1,2.52,2.52Z" transform="translate(-724.36 -410.37)"/><path class="cls-13" d="M887.07,451.7a2.52,2.52,0,1,1-2.52-2.52,2.52,2.52,0,0,1,2.52,2.52Z" transform="translate(-724.36 -410.37)"/><path class="cls-14" d="M887.07,451.7a2.52,2.52,0,1,1-2.52-2.52,2.52,2.52,0,0,1,2.52,2.52Z" transform="translate(-724.36 -410.37)"/><path class="cls-13" d="M909.39,445.34a2.52,2.52,0,1,1-2.52-2.52,2.52,2.52,0,0,1,2.52,2.52Z" transform="translate(-724.36 -410.37)"/><path class="cls-14" d="M909.39,445.34a2.52,2.52,0,1,1-2.52-2.52,2.52,2.52,0,0,1,2.52,2.52Z" transform="translate(-724.36 -410.37)"/><path class="cls-13" d="M931.59,457.82a2.52,2.52,0,1,1-2.52-2.52,2.52,2.52,0,0,1,2.52,2.52Z" transform="translate(-724.36 -410.37)"/><path class="cls-14" d="M931.59,457.82a2.52,2.52,0,1,1-2.52-2.52,2.52,2.52,0,0,1,2.52,2.52Z" transform="translate(-724.36 -410.37)"/><path class="cls-13" d="M953.79,459.14a2.52,2.52,0,1,1-2.52-2.52,2.52,2.52,0,0,1,2.52,2.52Z" transform="translate(-724.36 -410.37)"/><path class="cls-14" d="M953.79,459.14a2.52,2.52,0,1,1-2.52-2.52,2.52,2.52,0,0,1,2.52,2.52Z" transform="translate(-724.36 -410.37)"/><path class="cls-13" d="M976.11,475.1a2.52,2.52,0,1,1-2.52-2.52,2.52,2.52,0,0,1,2.52,2.52Z" transform="translate(-724.36 -410.37)"/><path class="cls-14" d="M976.11,475.1a2.52,2.52,0,1,1-2.52-2.52,2.52,2.52,0,0,1,2.52,2.52Z" transform="translate(-724.36 -410.37)"/><path class="cls-13" d="M998.31,484.34a2.52,2.52,0,1,1-2.52-2.52,2.52,2.52,0,0,1,2.52,2.52Z" transform="translate(-724.36 -410.37)"/><path class="cls-14" d="M998.31,484.34a2.52,2.52,0,1,1-2.52-2.52,2.52,2.52,0,0,1,2.52,2.52Z" transform="translate(-724.36 -410.37)"/><path class="cls-13" d="M1020.51,494.18a2.52,2.52,0,1,1-2.52-2.52,2.52,2.52,0,0,1,2.52,2.52Z" transform="translate(-724.36 -410.37)"/><path class="cls-14" d="M1020.51,494.18a2.52,2.52,0,1,1-2.52-2.52,2.52,2.52,0,0,1,2.52,2.52Z" transform="translate(-724.36 -410.37)"/></g><g class="cls-5"><g class="cls-15"><text class="cls-16" transform="translate(36.11 188.81)">0</text></g></g><g class="cls-5"><g class="cls-15"><text class="cls-16" transform="translate(29.28 164.03)">0.2</text></g></g><g class="cls-5"><g class="cls-15"><text class="cls-16" transform="translate(29.28 139.25)">0.4</text></g></g><g class="cls-5"><g class="cls-15"><text class="cls-16" transform="translate(29.28 114.48)">0.6</text></g></g><g class="cls-5"><g class="cls-15"><text class="cls-16" transform="translate(29.28 89.7)">0.8</text></g></g><g class="cls-5"><g class="cls-15"><text class="cls-16" transform="translate(36.11 64.92)">1</text></g></g><g class="cls-5"><g class="cls-15"><text class="cls-16" transform="translate(29.28 40.15)">1.2</text></g></g><g class="cls-5"><g class="cls-15"><text class="cls-16" transform="translate(29.28 15.38)">1.4</text></g></g><g class="cls-5"><g class="cls-15"><text class="cls-16" transform="translate(46.74 200.51)">0</text></g></g><g class="cls-5"><g class="cls-15"><text class="cls-16" transform="translate(91.23 200.51)">1</text></g></g><g class="cls-5"><g class="cls-15"><text class="cls-16" transform="translate(135.71 200.51)">2</text></g></g><g class="cls-5"><g class="cls-15"><text class="cls-16" transform="translate(180.2 200.51)">3</text></g></g><g class="cls-5"><g class="cls-15"><text class="cls-16" transform="translate(224.68 200.51)">4</text></g></g><g class="cls-5"><g class="cls-15"><text class="cls-16" transform="translate(269.17 200.51)">5</text></g></g><g class="cls-5"><g class="cls-15"><text class="cls-16" transform="translate(313.65 200.51)">6</text></g></g><g class="cls-5"><g class="cls-15"><text class="cls-17" transform="translate(20.73 125.42) rotate(-90)"><tspan class="cls-18">E</tspan><tspan class="cls-19" x="4.91" y="0">n</tspan><tspan class="cls-20" x="10.19" y="0">e</tspan><tspan class="cls-21" x="15.11" y="0">rg</tspan><tspan class="cls-18" x="23.27" y="0">y</tspan><tspan class="cls-22" x="27.83" y="0"> </tspan><tspan class="cls-23" x="30.1" y="0">(</tspan><tspan class="cls-20" x="33.1" y="0">m</tspan><tspan class="cls-24" x="41.03" y="0">J</tspan><tspan x="44.15" y="0">)</tspan></text></g></g><g class="cls-5"><g class="cls-15"><text class="cls-17" transform="translate(157.49 213.52)"><tspan class="cls-25">V</tspan><tspan class="cls-26" x="5.64" y="0">o</tspan><tspan x="10.91" y="0">l</tspan><tspan class="cls-22" x="13.2" y="0">ta</tspan><tspan x="21.35" y="0">g</tspan><tspan class="cls-20" x="26.03" y="0">e</tspan><tspan class="cls-27" x="30.96" y="0"> </tspan><tspan class="cls-28" x="33.35" y="0">(</tspan><tspan class="cls-29" x="36.35" y="0">V</tspan><tspan x="41.99" y="0">)</tspan></text></g></g><g class="cls-5"><line class="cls-9" x1="181.98" y1="158.82" x2="201.18" y2="158.82"/></g><g class="cls-5"><path class="cls-10" d="M918.4,569.13a2.52,2.52,0,1,1-2.52-2.52,2.52,2.52,0,0,1,2.52,2.52Z" transform="translate(-724.36 -410.37)"/><path class="cls-11" d="M918.4,569.13a2.52,2.52,0,1,1-2.52-2.52,2.52,2.52,0,0,1,2.52,2.52Z" transform="translate(-724.36 -410.37)"/></g><g class="cls-5"><g class="cls-15"><text class="cls-16" transform="translate(203.16 161.31)">1000<tspan class="cls-30" x="18.25" y="0">u</tspan><tspan x="22.93" y="0">F</tspan></text></g></g><g class="cls-5"><line class="cls-12" x1="181.98" y1="176.82" x2="201.18" y2="176.82"/></g><g class="cls-5"><path class="cls-13" d="M918.4,587.13a2.52,2.52,0,1,1-2.52-2.52,2.52,2.52,0,0,1,2.52,2.52Z" transform="translate(-724.36 -410.37)"/><path class="cls-14" d="M918.4,587.13a2.52,2.52,0,1,1-2.52-2.52,2.52,2.52,0,0,1,2.52,2.52Z" transform="translate(-724.36 -410.37)"/></g><g class="cls-5"><g class="cls-15"><text class="cls-16" transform="translate(203.16 179.36)">470<tspan class="cls-30" x="13.68" y="0">u</tspan><tspan class="cls-31" x="18.37" y="0">F</tspan></text></g></g></svg>