<svg id="图层_1" data-name="图层 1" xmlns="http://www.w3.org/2000/svg" viewBox="0 0 693.77 173.25"><defs><style>.cls-1{fill:#fff;}.cls-1,.cls-43,.cls-75,.cls-76{fill-rule:evenodd;}.cls-12,.cls-14,.cls-2,.cls-22,.cls-30,.cls-37,.cls-42,.cls-57,.cls-64{font-size:11.02px;}.cls-12,.cls-14,.cls-2,.cls-22,.cls-64{font-family:DengXian-Bold, DengXian;font-weight:700;}.cls-3{letter-spacing:0.02em;}.cls-4{letter-spacing:0.01em;}.cls-5{letter-spacing:0.02em;}.cls-6{letter-spacing:0.02em;}.cls-7{letter-spacing:-0.02em;}.cls-8{letter-spacing:0.03em;}.cls-9{letter-spacing:0.02em;}.cls-10{letter-spacing:0.01em;}.cls-11{letter-spacing:0.02em;}.cls-12{letter-spacing:0.03em;}.cls-13{letter-spacing:0em;}.cls-14{letter-spacing:0em;}.cls-15,.cls-22{letter-spacing:-0.01em;}.cls-16{letter-spacing:0.02em;}.cls-17{letter-spacing:0em;}.cls-18{letter-spacing:-0.02em;}.cls-19{letter-spacing:0.02em;}.cls-20{letter-spacing:0em;}.cls-21{letter-spacing:0em;}.cls-23{letter-spacing:0.01em;}.cls-24{letter-spacing:0.02em;}.cls-25{letter-spacing:0em;}.cls-26{letter-spacing:0.02em;}.cls-27{letter-spacing:0.01em;}.cls-28{letter-spacing:0.03em;}.cls-29{letter-spacing:-0.02em;}.cls-30,.cls-37,.cls-42,.cls-57{font-family:DengXian;}.cls-31{letter-spacing:-0.01em;}.cls-32{letter-spacing:-0.02em;}.cls-33{letter-spacing:-0.01em;}.cls-34{letter-spacing:0em;}.cls-35{letter-spacing:0.02em;}.cls-36{letter-spacing:-0.02em;}.cls-37{fill:red;}.cls-38{letter-spacing:-0.03em;}.cls-39{letter-spacing:0em;}.cls-40{letter-spacing:-0.02em;}.cls-41{letter-spacing:-0.03em;}.cls-42{fill:#5b9bd5;}.cls-43,.cls-74{fill:none;}.cls-44{letter-spacing:-0.01em;}.cls-45{letter-spacing:-0.02em;}.cls-46{letter-spacing:-0.01em;}.cls-47{letter-spacing:-0.01em;}.cls-48{letter-spacing:0em;}.cls-49,.cls-57{letter-spacing:-0.01em;}.cls-50{letter-spacing:-0.02em;}.cls-51{letter-spacing:0em;}.cls-52{letter-spacing:0em;}.cls-53{letter-spacing:-0.01em;}.cls-54{letter-spacing:0em;}.cls-55{letter-spacing:0.01em;}.cls-56{letter-spacing:0em;}.cls-58{letter-spacing:0.02em;}.cls-59{letter-spacing:0.02em;}.cls-60{letter-spacing:-0.03em;}.cls-61{letter-spacing:0.02em;}.cls-62{letter-spacing:-0.03em;}.cls-63{letter-spacing:0em;}.cls-64{letter-spacing:0.01em;}.cls-65{letter-spacing:0.01em;}.cls-66{letter-spacing:0.02em;}.cls-67{letter-spacing:0em;}.cls-68{letter-spacing:0.01em;}.cls-69{letter-spacing:0.02em;}.cls-70{letter-spacing:0.03em;}.cls-71{letter-spacing:0.01em;}.cls-72{letter-spacing:-0.01em;}.cls-73{letter-spacing:0.01em;}.cls-74{stroke:#d4d4d4;stroke-linecap:square;stroke-miterlimit:10;stroke-width:0;}.cls-75{fill:#d4d4d4;}</style></defs><title>Flash-based power</title><polygon class="cls-1" points="1.23 1.22 693.15 1.22 693.15 172.64 1.23 172.64 1.23 1.22 1.23 1.22"/><text class="cls-2" transform="translate(49.6 41.02)"><tspan class="cls-3">O</tspan><tspan class="cls-4" x="8.56" y="0">p</tspan><tspan class="cls-5" x="15.29" y="0">e</tspan><tspan class="cls-6" x="21.41" y="0">r</tspan><tspan class="cls-7" x="25.68" y="0">a</tspan><tspan class="cls-8" x="31.2" y="0">t</tspan><tspan class="cls-9" x="35.48" y="0">i</tspan><tspan class="cls-10" x="38.54" y="0">o</tspan><tspan x="45.26" y="0">n</tspan></text><text class="cls-2" transform="translate(189.21 41.02)"><tspan class="cls-11">U</tspan><tspan class="cls-8" x="7.96" y="0">n</tspan><tspan class="cls-9" x="14.69" y="0">i</tspan><tspan x="17.74" y="0">t</tspan></text><text class="cls-12" transform="translate(293.92 41.02)">P<tspan class="cls-7" x="6.73" y="0">a</tspan><tspan class="cls-6" x="12.25" y="0">r</tspan><tspan class="cls-13" x="16.52" y="0">t</tspan></text><text class="cls-14" transform="translate(365.56 41.02)">A<tspan class="cls-15" x="7.35" y="0">v</tspan><tspan class="cls-5" x="12.87" y="0">e</tspan><tspan class="cls-16" x="18.99" y="0">r</tspan><tspan class="cls-7" x="23.26" y="0">a</tspan><tspan class="cls-4" x="28.78" y="0">g</tspan><tspan class="cls-5" x="35.51" y="0">e</tspan><tspan class="cls-17" x="41.63" y="0"> </tspan><tspan class="cls-18" x="44.68" y="0">c</tspan><tspan class="cls-8" x="49.59" y="0">u</tspan><tspan class="cls-6" x="56.32" y="0">rr</tspan><tspan class="cls-19" x="64.87" y="0">e</tspan><tspan class="cls-8" x="70.99" y="0">nt</tspan><tspan class="cls-17" x="82" y="0"> </tspan><tspan class="cls-20" x="85.05" y="0">(</tspan><tspan class="cls-8" x="88.72" y="0">u</tspan><tspan x="95.44" y="0">A</tspan><tspan class="cls-21" x="102.8" y="0">)</tspan></text><text class="cls-22" transform="translate(505.78 41.02)">v<tspan class="cls-23" x="5.51" y="0">o</tspan><tspan class="cls-24" x="12.24" y="0">l</tspan><tspan class="cls-8" x="15.29" y="0">t</tspan><tspan class="cls-7" x="19.57" y="0">a</tspan><tspan class="cls-4" x="25.09" y="0">g</tspan><tspan class="cls-5" x="31.82" y="0">e</tspan><tspan class="cls-25" x="37.94" y="0">(</tspan><tspan class="cls-26" x="41.61" y="0">V</tspan><tspan class="cls-21" x="48.95" y="0">)</tspan></text><text class="cls-14" transform="translate(586 41.02)">A<tspan class="cls-15" x="7.35" y="0">v</tspan><tspan class="cls-5" x="12.87" y="0">e</tspan><tspan class="cls-16" x="18.99" y="0">r</tspan><tspan class="cls-7" x="23.26" y="0">a</tspan><tspan class="cls-4" x="28.78" y="0">g</tspan><tspan class="cls-5" x="35.51" y="0">e</tspan><tspan class="cls-17" x="41.63" y="0"> </tspan><tspan class="cls-4" x="44.68" y="0">p</tspan><tspan class="cls-27" x="51.41" y="0">o</tspan><tspan class="cls-3" x="58.13" y="0">w</tspan><tspan class="cls-5" x="66.7" y="0">e</tspan><tspan class="cls-16" x="72.82" y="0">r</tspan><tspan class="cls-17" x="77.1" y="0"> </tspan><tspan class="cls-25" x="80.15" y="0">(</tspan><tspan class="cls-28" x="83.82" y="0">u</tspan><tspan class="cls-29" x="90.54" y="0">W</tspan><tspan class="cls-21" x="100.96" y="0">)</tspan></text><text class="cls-30" transform="translate(281.67 69.19)"><tspan class="cls-31">C</tspan><tspan x="6.73" y="0">a</tspan><tspan class="cls-32" x="12.25" y="0">p</tspan><tspan class="cls-13" x="18.38" y="0">a</tspan><tspan class="cls-33" x="23.9" y="0">c</tspan><tspan class="cls-34" x="28.8" y="0">i</tspan><tspan class="cls-35" x="31.25" y="0">t</tspan><tspan class="cls-36" x="34.92" y="0">o</tspan><tspan x="41.05" y="0">r</tspan></text><text class="cls-37" transform="translate(406.58 69.19)"><tspan class="cls-38">0</tspan><tspan class="cls-39" x="5.52" y="0">.</tspan><tspan class="cls-38" x="7.96" y="0">86</tspan><tspan x="19" y="0">7</tspan></text><text class="cls-37" transform="translate(529.66 69.19)">8</text><text class="cls-30" transform="translate(626.41 69.19)"><tspan class="cls-38">6</tspan><tspan class="cls-39" x="5.52" y="0">.</tspan><tspan class="cls-38" x="7.96" y="0">93</tspan><tspan x="19" y="0">6</tspan></text><text class="cls-30" transform="translate(279.21 83.27)"><tspan class="cls-40">L</tspan><tspan class="cls-36" x="4.91" y="0">T</tspan><tspan class="cls-31" x="10.42" y="0">C</tspan><tspan class="cls-41" x="17.16" y="0">3588</tspan><tspan x="39.24" y="0">-1</tspan></text><text class="cls-42" transform="translate(406.58 83.27)"><tspan class="cls-38">0</tspan><tspan class="cls-39" x="5.52" y="0">.</tspan><tspan class="cls-38" x="7.96" y="0">08</tspan><tspan x="19" y="0">1</tspan></text><text class="cls-37" transform="translate(529.66 83.27)">8</text><text class="cls-30" transform="translate(626.41 83.27)"><tspan class="cls-38">0</tspan><tspan class="cls-39" x="5.52" y="0">.</tspan><tspan class="cls-38" x="7.96" y="0">64</tspan><tspan x="19" y="0">8</tspan></text><polygon class="cls-43" points="1.23 1.22 693.15 1.22 693.15 172.64 1.23 172.64 1.23 1.22 1.23 1.22"/><text class="cls-30" transform="translate(268.81 97.35)"><tspan class="cls-7">R</tspan><tspan class="cls-44" x="6.12" y="0">e</tspan><tspan class="cls-45" x="11.64" y="0">s</tspan><tspan class="cls-34" x="15.93" y="0">i</tspan><tspan class="cls-45" x="18.38" y="0">s</tspan><tspan class="cls-35" x="22.67" y="0">t</tspan><tspan class="cls-36" x="26.34" y="0">o</tspan><tspan class="cls-46" x="32.47" y="0">r</tspan><tspan class="cls-36" x="36.15" y="0">s</tspan><tspan class="cls-47" x="40.44" y="0">(</tspan><tspan class="cls-41" x="43.5" y="0">9</tspan><tspan x="49.02" y="0">M</tspan></text><text class="cls-30" transform="translate(327.59 97.35)">Ω</text><text class="cls-30" transform="translate(336.17 97.35)">)</text><text class="cls-42" transform="translate(406.58 97.35)"><tspan class="cls-38">0</tspan><tspan class="cls-39" x="5.52" y="0">.</tspan><tspan class="cls-38" x="7.96" y="0">88</tspan><tspan x="19" y="0">9</tspan></text><text class="cls-37" transform="translate(529.66 97.35)">8</text><text class="cls-30" transform="translate(626.41 97.35)"><tspan class="cls-38">7</tspan><tspan class="cls-39" x="5.52" y="0">.</tspan><tspan class="cls-38" x="7.96" y="0">11</tspan><tspan x="19" y="0">2</tspan></text><polygon class="cls-43" points="1.23 86.32 693.15 86.32 693.15 99.79 1.23 99.79 1.23 86.32 1.23 86.32"/><text class="cls-30" transform="translate(190.43 111.43)"><tspan class="cls-48">E</tspan><tspan x="5.52" y="0">UU</tspan></text><text class="cls-30" transform="translate(273.1 111.43)"><tspan class="cls-49">N</tspan><tspan class="cls-36" x="7.96" y="0">o</tspan><tspan class="cls-46" x="14.09" y="0">r</tspan><tspan class="cls-50" x="17.77" y="0">d</tspan><tspan class="cls-34" x="23.9" y="0">i</tspan><tspan class="cls-33" x="26.35" y="0">c</tspan><tspan class="cls-51" x="31.25" y="0"> </tspan><tspan class="cls-41" x="34.3" y="0">5283</tspan><tspan x="56.38" y="0">2</tspan></text><text class="cls-42" transform="translate(412.1 111.43)"><tspan class="cls-38">1</tspan><tspan class="cls-39" x="5.52" y="0">.</tspan><tspan x="7.96" y="0">9</tspan></text><text class="cls-37" transform="translate(525.38 111.43)"><tspan class="cls-38">3</tspan><tspan class="cls-39" x="5.52" y="0">.</tspan><tspan x="7.96" y="0">3</tspan></text><text class="cls-30" transform="translate(628.86 111.43)"><tspan class="cls-38">6</tspan><tspan class="cls-39" x="5.52" y="0">.</tspan><tspan class="cls-38" x="7.96" y="0">2</tspan><tspan x="13.48" y="0">7</tspan></text><text class="cls-30" transform="translate(176.96 125.5)"><tspan class="cls-52">P</tspan><tspan class="cls-53" x="6.11" y="0">e</tspan><tspan class="cls-46" x="11.63" y="0">r</tspan><tspan class="cls-54" x="15.31" y="0">i</tspan><tspan class="cls-32" x="17.76" y="0">p</tspan><tspan class="cls-55" x="23.89" y="0">h</tspan><tspan class="cls-44" x="30.01" y="0">e</tspan><tspan class="cls-56" x="35.52" y="0">r</tspan><tspan x="39.2" y="0">al</tspan></text><text class="cls-57" transform="translate(265.14 125.5)">N<tspan class="cls-58" x="7.96" y="0">M</tspan><tspan class="cls-59" x="17.75" y="0">O</tspan><tspan class="cls-47" x="26.32" y="0">S</tspan><tspan class="cls-51" x="31.83" y="0"> </tspan><tspan class="cls-60" x="34.88" y="0">A</tspan><tspan class="cls-61" x="41.61" y="0">O</tspan><tspan class="cls-13" x="50.18" y="0">-</tspan><tspan class="cls-62" x="55.69" y="0">341</tspan><tspan class="cls-63" x="72.25" y="0">4</tspan></text><text class="cls-42" transform="translate(416.38 125.5)">1</text><text class="cls-37" transform="translate(525.38 125.5)"><tspan class="cls-38">3</tspan><tspan class="cls-39" x="5.52" y="0">.</tspan><tspan x="7.96" y="0">3</tspan></text><text class="cls-30" transform="translate(631.92 125.5)"><tspan class="cls-38">3</tspan><tspan class="cls-39" x="5.52" y="0">.</tspan><tspan x="7.96" y="0">3</tspan></text><text class="cls-2" transform="translate(49.6 140.21)"><tspan class="cls-3">O</tspan><tspan class="cls-4" x="8.56" y="0">p</tspan><tspan class="cls-5" x="15.29" y="0">e</tspan><tspan class="cls-6" x="21.41" y="0">r</tspan><tspan class="cls-7" x="25.68" y="0">a</tspan><tspan class="cls-8" x="31.2" y="0">t</tspan><tspan class="cls-9" x="35.48" y="0">i</tspan><tspan class="cls-10" x="38.54" y="0">o</tspan><tspan x="45.26" y="0">n</tspan></text><text class="cls-2" transform="translate(186.75 140.21)"><tspan class="cls-11">U</tspan><tspan class="cls-8" x="7.96" y="0">n</tspan><tspan class="cls-9" x="14.69" y="0">i</tspan><tspan class="cls-8" x="17.74" y="0">t</tspan><tspan x="22.02" y="0">s</tspan></text><text class="cls-12" transform="translate(293.92 140.21)">P<tspan class="cls-7" x="6.73" y="0">a</tspan><tspan class="cls-6" x="12.25" y="0">r</tspan><tspan class="cls-13" x="16.52" y="0">t</tspan></text><text class="cls-14" transform="translate(365.56 140.21)">A<tspan class="cls-15" x="7.35" y="0">v</tspan><tspan class="cls-5" x="12.87" y="0">e</tspan><tspan class="cls-16" x="18.99" y="0">r</tspan><tspan class="cls-7" x="23.26" y="0">a</tspan><tspan class="cls-4" x="28.78" y="0">g</tspan><tspan class="cls-5" x="35.51" y="0">e</tspan><tspan class="cls-17" x="41.63" y="0"> </tspan><tspan class="cls-18" x="44.68" y="0">c</tspan><tspan class="cls-8" x="49.59" y="0">u</tspan><tspan class="cls-6" x="56.32" y="0">rr</tspan><tspan class="cls-19" x="64.87" y="0">e</tspan><tspan class="cls-8" x="70.99" y="0">nt</tspan><tspan class="cls-17" x="82" y="0"> </tspan><tspan class="cls-20" x="85.05" y="0">(</tspan><tspan class="cls-8" x="88.72" y="0">u</tspan><tspan x="95.44" y="0">A</tspan><tspan class="cls-21" x="102.8" y="0">)</tspan></text><text class="cls-22" transform="translate(505.78 140.21)">v<tspan class="cls-23" x="5.51" y="0">o</tspan><tspan class="cls-24" x="12.24" y="0">l</tspan><tspan class="cls-8" x="15.29" y="0">t</tspan><tspan class="cls-7" x="19.57" y="0">a</tspan><tspan class="cls-4" x="25.09" y="0">g</tspan><tspan class="cls-5" x="31.82" y="0">e</tspan><tspan class="cls-25" x="37.94" y="0">(</tspan><tspan class="cls-26" x="41.61" y="0">V</tspan><tspan class="cls-21" x="48.95" y="0">)</tspan></text><text class="cls-14" transform="translate(586 140.21)">A<tspan class="cls-15" x="7.35" y="0">v</tspan><tspan class="cls-5" x="12.87" y="0">e</tspan><tspan class="cls-16" x="18.99" y="0">r</tspan><tspan class="cls-7" x="23.26" y="0">a</tspan><tspan class="cls-4" x="28.78" y="0">g</tspan><tspan class="cls-5" x="35.51" y="0">e</tspan><tspan class="cls-17" x="41.63" y="0"> </tspan><tspan class="cls-4" x="44.68" y="0">p</tspan><tspan class="cls-27" x="51.41" y="0">o</tspan><tspan class="cls-3" x="58.13" y="0">w</tspan><tspan class="cls-5" x="66.7" y="0">e</tspan><tspan class="cls-16" x="72.82" y="0">r</tspan><tspan class="cls-17" x="77.1" y="0"> </tspan><tspan class="cls-25" x="80.15" y="0">(</tspan><tspan class="cls-28" x="83.82" y="0">u</tspan><tspan class="cls-29" x="90.54" y="0">W</tspan><tspan class="cls-21" x="100.96" y="0">)</tspan></text><text class="cls-30" transform="translate(54.5 154.29)"><tspan class="cls-40">L</tspan><tspan class="cls-52" x="4.91" y="0">P</tspan><tspan class="cls-31" x="11.02" y="0">C</tspan><tspan class="cls-61" x="17.76" y="0">O</tspan><tspan class="cls-58" x="26.32" y="0">M</tspan><tspan x="36.11" y="0">P</tspan></text><text class="cls-30" transform="translate(190.43 154.29)"><tspan class="cls-48">E</tspan><tspan x="5.52" y="0">UU</tspan></text><text class="cls-30" transform="translate(273.1 154.29)"><tspan class="cls-49">N</tspan><tspan class="cls-36" x="7.96" y="0">o</tspan><tspan class="cls-46" x="14.09" y="0">r</tspan><tspan class="cls-50" x="17.77" y="0">d</tspan><tspan class="cls-34" x="23.9" y="0">i</tspan><tspan class="cls-33" x="26.35" y="0">c</tspan><tspan class="cls-51" x="31.25" y="0"> </tspan><tspan class="cls-41" x="34.3" y="0">5283</tspan><tspan x="56.38" y="0">2</tspan></text><text class="cls-42" transform="translate(412.1 154.29)"><tspan class="cls-38">0</tspan><tspan class="cls-39" x="5.52" y="0">.</tspan><tspan x="7.96" y="0">5</tspan></text><text class="cls-37" transform="translate(525.38 154.29)"><tspan class="cls-38">3</tspan><tspan class="cls-39" x="5.52" y="0">.</tspan><tspan x="7.96" y="0">3</tspan></text><text class="cls-30" transform="translate(628.86 154.29)"><tspan class="cls-38">1</tspan><tspan class="cls-39" x="5.52" y="0">.</tspan><tspan class="cls-38" x="7.96" y="0">6</tspan><tspan x="13.48" y="0">5</tspan></text><text class="cls-64" transform="translate(63.07 168.97)">S<tspan class="cls-11" x="6.12" y="0">U</tspan><tspan class="cls-13" x="14.08" y="0">M</tspan></text><text class="cls-2" transform="translate(622.12 168.97)">25<tspan class="cls-50" x="12.24" y="0">.</tspan><tspan x="14.7" y="0">916</tspan></text><polygon class="cls-43" points="1.23 1.22 693.15 1.22 693.15 172.64 1.23 172.64 1.23 1.22 1.23 1.22"/><text class="cls-2" transform="translate(247.38 12.25)"><tspan class="cls-65">L</tspan><tspan class="cls-10" x="5.51" y="0">o</tspan><tspan class="cls-3" x="12.23" y="0">w</tspan><tspan class="cls-13" x="20.8" y="0">-</tspan><tspan class="cls-4" x="26.31" y="0">p</tspan><tspan class="cls-27" x="33.03" y="0">o</tspan><tspan class="cls-66" x="39.76" y="0">w</tspan><tspan class="cls-5" x="48.32" y="0">e</tspan><tspan class="cls-6" x="54.44" y="0">r</tspan><tspan class="cls-67" x="58.72" y="0"> </tspan><tspan class="cls-51" x="61.77" y="0">m</tspan><tspan class="cls-10" x="71.57" y="0">o</tspan><tspan class="cls-68" x="78.29" y="0">d</tspan><tspan class="cls-69" x="85.02" y="0">e</tspan><tspan class="cls-39" x="91.14" y="0"> </tspan><tspan class="cls-70" x="94.19" y="0">P</tspan><tspan class="cls-71" x="100.91" y="0">o</tspan><tspan class="cls-3" x="107.64" y="0">w</tspan><tspan class="cls-5" x="116.2" y="0">e</tspan><tspan class="cls-16" x="122.32" y="0">r</tspan><tspan class="cls-17" x="126.6" y="0"> </tspan><tspan class="cls-72" x="129.65" y="0">C</tspan><tspan class="cls-27" x="136.4" y="0">o</tspan><tspan class="cls-28" x="143.12" y="0">n</tspan><tspan class="cls-27" x="149.85" y="0">s</tspan><tspan class="cls-28" x="154.74" y="0">u</tspan><tspan class="cls-51" x="161.47" y="0">m</tspan><tspan class="cls-73" x="171.26" y="0">p</tspan><tspan class="cls-8" x="177.99" y="0">t</tspan><tspan class="cls-24" x="182.27" y="0">i</tspan><tspan class="cls-23" x="185.33" y="0">o</tspan><tspan x="192.05" y="0">n</tspan></text><polygon class="cls-43" points="1.23 1.22 692.54 1.22 692.54 15.3 1.23 15.3 1.23 1.22 1.23 1.22"/><text class="cls-30" transform="translate(55.71 97.35)"><tspan class="cls-47">S</tspan><tspan class="cls-34" x="5.51" y="0">l</tspan><tspan class="cls-53" x="7.96" y="0">ee</tspan><tspan class="cls-32" x="19" y="0">p</tspan><tspan class="cls-34" x="25.12" y="0">i</tspan><tspan class="cls-55" x="27.58" y="0">n</tspan><tspan x="33.7" y="0">g</tspan></text><polygon class="cls-43" points="1.23 58.16 149.41 58.16 149.41 128.56 1.23 128.56 1.23 58.16 1.23 58.16"/><text class="cls-30" transform="translate(189.21 82.65)"><tspan class="cls-48">E</tspan><tspan class="cls-58" x="5.52" y="0">M</tspan><tspan x="15.31" y="0">U</tspan></text><polygon class="cls-43" points="150.02 58.16 250.44 58.16 250.44 99.79 150.02 99.79 150.02 58.16 150.02 58.16"/><line class="cls-74" x1="0.61" y1="0.61" x2="0.61"/><polyline class="cls-75" points="0.61 0.61 0.61 0 1.23 0 1.23 0.61 0.61 0.61"/><line class="cls-74" x1="692.54" y1="0.61" x2="692.54"/><polyline class="cls-75" points="692.54 0.61 692.54 0 693.15 0 693.15 0.61 692.54 0.61"/><line class="cls-74" x1="149.41" y1="0.61" x2="149.41"/><polyline class="cls-75" points="149.41 0.61 149.41 0 150.02 0 150.02 0.61 149.41 0.61"/><line class="cls-74" x1="250.44" y1="0.61" x2="250.44"/><polyline class="cls-75" points="250.44 0.61 250.44 0 251.05 0 251.05 0.61 250.44 0.61"/><line class="cls-74" x1="356.99" y1="0.61" x2="356.99"/><polyline class="cls-75" points="356.99 0.61 356.99 0 357.6 0 357.6 0.61 356.99 0.61"/><line class="cls-74" x1="480.06" y1="0.61" x2="480.06"/><polyline class="cls-75" points="480.06 0.61 480.06 0 480.68 0 480.68 0.61 480.06 0.61"/><line class="cls-74" x1="583.55" y1="0.61" x2="583.55"/><polyline class="cls-75" points="583.55 0.61 583.55 0 584.16 0 584.16 0.61 583.55 0.61"/><line class="cls-74" x1="1.22" y1="57.55" x2="148.8" y2="57.55"/><polyline class="cls-75" points="1.23 57.55 1.23 58.16 148.8 58.16 148.8 57.55 1.23 57.55"/><line class="cls-74" x1="150.02" y1="57.55" x2="691.93" y2="57.55"/><polyline class="cls-75" points="150.02 57.55 150.02 58.16 691.93 58.16 691.93 57.55 150.02 57.55"/><line class="cls-74" x1="250.44" y1="15.92" x2="250.44" y2="127.95"/><polyline class="cls-75" points="250.44 15.92 250.44 127.95 251.05 127.95 251.05 15.92 250.44 15.92"/><line class="cls-74" x1="356.99" y1="15.92" x2="356.99" y2="127.95"/><polyline class="cls-75" points="356.99 15.92 356.99 127.95 357.6 127.95 357.6 15.92 356.99 15.92"/><line class="cls-74" x1="480.06" y1="15.92" x2="480.06" y2="127.95"/><polyline class="cls-75" points="480.06 15.92 480.06 127.95 480.68 127.95 480.68 15.92 480.06 15.92"/><line class="cls-74" x1="583.55" y1="15.92" x2="583.55" y2="127.95"/><polyline class="cls-75" points="583.55 15.92 583.55 127.95 584.16 127.95 584.16 15.92 583.55 15.92"/><line class="cls-74" x1="1.22" y1="142.64" x2="148.8" y2="142.64"/><polyline class="cls-75" points="1.23 142.64 1.23 143.26 148.8 143.26 148.8 142.64 1.23 142.64"/><line class="cls-74" x1="250.44" y1="129.18" x2="250.44" y2="156.72"/><polyline class="cls-75" points="250.44 129.18 250.44 156.72 251.05 156.72 251.05 129.18 250.44 129.18"/><line class="cls-74" x1="356.99" y1="129.18" x2="356.99" y2="156.72"/><polyline class="cls-75" points="356.99 129.18 356.99 156.72 357.6 156.72 357.6 129.18 356.99 129.18"/><line class="cls-74" x1="480.06" y1="129.18" x2="480.06" y2="156.72"/><polyline class="cls-75" points="480.06 129.18 480.06 156.72 480.68 156.72 480.68 129.18 480.06 129.18"/><line class="cls-74" x1="583.55" y1="129.18" x2="583.55" y2="156.72"/><polyline class="cls-75" points="583.55 129.18 583.55 156.72 584.16 156.72 584.16 129.18 583.55 129.18"/><polyline class="cls-76" points="0 0 0 172.64 1.23 172.64 1.23 0 0 0"/><polyline class="cls-76" points="148.8 15.92 148.8 172.64 150.02 172.64 150.02 15.92 148.8 15.92"/><line class="cls-74" x1="250.44" y1="157.95" x2="250.44" y2="171.42"/><polyline class="cls-75" points="250.44 157.95 250.44 171.42 251.05 171.42 251.05 157.95 250.44 157.95"/><line class="cls-74" x1="356.99" y1="157.95" x2="356.99" y2="171.42"/><polyline class="cls-75" points="356.99 157.95 356.99 171.42 357.6 171.42 357.6 157.95 356.99 157.95"/><line class="cls-74" x1="480.06" y1="157.95" x2="480.06" y2="171.42"/><polyline class="cls-75" points="480.06 157.95 480.06 171.42 480.68 171.42 480.68 157.95 480.06 157.95"/><line class="cls-74" x1="583.55" y1="157.95" x2="583.55" y2="171.42"/><polyline class="cls-75" points="583.55 157.95 583.55 171.42 584.16 171.42 584.16 157.95 583.55 157.95"/><polyline class="cls-76" points="691.93 1.22 691.93 172.64 693.15 172.64 693.15 1.22 691.93 1.22"/><line class="cls-74" x1="0.61" y1="172.64" x2="0.61" y2="173.25"/><polyline class="cls-75" points="0.61 172.64 0.61 173.25 1.23 173.25 1.23 172.64 0.61 172.64"/><line class="cls-74" x1="149.41" y1="172.64" x2="149.41" y2="173.25"/><polyline class="cls-75" points="149.41 172.64 149.41 173.25 150.02 173.25 150.02 172.64 149.41 172.64"/><line class="cls-74" x1="250.44" y1="172.64" x2="250.44" y2="173.25"/><polyline class="cls-75" points="250.44 172.64 250.44 173.25 251.05 173.25 251.05 172.64 250.44 172.64"/><line class="cls-74" x1="356.99" y1="172.64" x2="356.99" y2="173.25"/><polyline class="cls-75" points="356.99 172.64 356.99 173.25 357.6 173.25 357.6 172.64 356.99 172.64"/><line class="cls-74" x1="480.06" y1="172.64" x2="480.06" y2="173.25"/><polyline class="cls-75" points="480.06 172.64 480.06 173.25 480.68 173.25 480.68 172.64 480.06 172.64"/><line class="cls-74" x1="583.55" y1="172.64" x2="583.55" y2="173.25"/><polyline class="cls-75" points="583.55 172.64 583.55 173.25 584.16 173.25 584.16 172.64 583.55 172.64"/><line class="cls-74" x1="692.54" y1="172.64" x2="692.54" y2="173.25"/><polyline class="cls-75" points="692.54 172.64 692.54 173.25 693.15 173.25 693.15 172.64 692.54 172.64"/><polyline class="cls-76" points="1.23 0 1.23 1.22 693.77 1.22 693.77 0 1.23 0"/><polyline class="cls-76" points="1.23 14.69 1.23 15.92 693.77 15.92 693.77 14.69 1.23 14.69"/><line class="cls-74" x1="693.15" y1="57.55" x2="693.77" y2="57.55"/><polyline class="cls-75" points="693.15 57.55 693.15 58.16 693.77 58.16 693.77 57.55 693.15 57.55"/><line class="cls-74" x1="251.05" y1="71.63" x2="691.93" y2="71.63"/><polyline class="cls-75" points="251.05 71.63 251.05 72.24 691.93 72.24 691.93 71.63 251.05 71.63"/><line class="cls-74" x1="251.05" y1="85.71" x2="691.93" y2="85.71"/><polyline class="cls-75" points="251.05 85.71 251.05 86.32 691.93 86.32 691.93 85.71 251.05 85.71"/><line class="cls-74" x1="150.02" y1="99.79" x2="691.93" y2="99.79"/><polyline class="cls-75" points="150.02 99.79 150.02 100.4 691.93 100.4 691.93 99.79 150.02 99.79"/><line class="cls-74" x1="150.02" y1="113.87" x2="691.93" y2="113.87"/><polyline class="cls-75" points="150.02 113.87 150.02 114.48 691.93 114.48 691.93 113.87 150.02 113.87"/><polyline class="cls-76" points="1.23 127.95 1.23 129.18 693.15 129.18 693.15 127.95 1.23 127.95"/><line class="cls-74" x1="150.02" y1="142.64" x2="691.93" y2="142.64"/><polyline class="cls-75" points="150.02 142.64 150.02 143.26 691.93 143.26 691.93 142.64 150.02 142.64"/><polyline class="cls-76" points="1.23 156.72 1.23 157.95 693.15 157.95 693.15 156.72 1.23 156.72"/><polyline class="cls-76" points="1.23 171.42 1.23 172.64 693.77 172.64 693.77 171.42 1.23 171.42"/><polygon class="cls-43" points="0.61 0.61 693.15 0.61 693.15 172.64 0.61 172.64 0.61 0.61 0.61 0.61"/><polygon class="cls-43" points="1.23 1.22 693.15 1.22 693.15 172.64 1.23 172.64 1.23 1.22 1.23 1.22"/></svg>