<svg id="图层_1" data-name="图层 1" xmlns="http://www.w3.org/2000/svg" viewBox="0 0 481.29 144.48"><defs><style>.cls-1{fill:#fff;}.cls-1,.cls-60,.cls-67,.cls-68{fill-rule:evenodd;}.cls-2,.cls-25,.cls-36,.cls-37,.cls-58{font-size:11.02px;}.cls-2,.cls-58{font-family:DengXian-Bold, DengXian;font-weight:700;}.cls-3{letter-spacing:0.02em;}.cls-4{letter-spacing:0.01em;}.cls-5{letter-spacing:0.02em;}.cls-6{letter-spacing:0.02em;}.cls-7{letter-spacing:-0.02em;}.cls-8{letter-spacing:0.03em;}.cls-9{letter-spacing:0.02em;}.cls-10{letter-spacing:0.01em;}.cls-11{letter-spacing:0em;}.cls-12{letter-spacing:0em;}.cls-13{letter-spacing:0em;}.cls-14{letter-spacing:-0.02em;}.cls-15{letter-spacing:0.03em;}.cls-16{letter-spacing:-0.01em;}.cls-17{letter-spacing:-0.01em;}.cls-18{letter-spacing:0em;}.cls-19{letter-spacing:0.02em;}.cls-20{letter-spacing:0.03em;}.cls-21{letter-spacing:0.02em;}.cls-22{letter-spacing:-0.03em;}.cls-23{letter-spacing:-0.02em;}.cls-24{letter-spacing:0.01em;}.cls-25,.cls-36,.cls-37{font-family:DengXian;}.cls-26{letter-spacing:0em;}.cls-27{letter-spacing:0em;}.cls-28{letter-spacing:0em;}.cls-29{letter-spacing:-0.02em;}.cls-30{letter-spacing:-0.02em;}.cls-31{letter-spacing:0.01em;}.cls-32{letter-spacing:0em;}.cls-33{letter-spacing:0.02em;}.cls-34{letter-spacing:-0.01em;}.cls-35{letter-spacing:0em;}.cls-36,.cls-37{fill:red;}.cls-36,.cls-55{letter-spacing:-0.03em;}.cls-38{letter-spacing:-0.03em;}.cls-39{letter-spacing:0em;}.cls-40{letter-spacing:-0.01em;}.cls-41{letter-spacing:-0.01em;}.cls-42{letter-spacing:-0.02em;}.cls-43{letter-spacing:0em;}.cls-44{letter-spacing:-0.02em;}.cls-45{letter-spacing:-0.02em;}.cls-46{letter-spacing:-0.01em;}.cls-47{letter-spacing:0.02em;}.cls-48{letter-spacing:-0.02em;}.cls-49{letter-spacing:0em;}.cls-50{letter-spacing:0.01em;}.cls-51{letter-spacing:0em;}.cls-52{letter-spacing:-0.01em;}.cls-53{letter-spacing:-0.01em;}.cls-54{letter-spacing:-0.01em;}.cls-56{letter-spacing:-0.01em;}.cls-57{letter-spacing:0.02em;}.cls-58{letter-spacing:0.01em;}.cls-59{letter-spacing:0.02em;}.cls-60,.cls-66{fill:none;}.cls-61{letter-spacing:0.01em;}.cls-62{letter-spacing:0.01em;}.cls-63{letter-spacing:0.01em;}.cls-64{letter-spacing:0.01em;}.cls-65{letter-spacing:0em;}.cls-66{stroke:#d4d4d4;stroke-linecap:square;stroke-miterlimit:10;stroke-width:0;}.cls-67{fill:#d4d4d4;}</style></defs><title>Flash-based solution energy consumption</title><polygon class="cls-1" points="1.23 1.22 480.68 1.22 480.68 143.87 1.23 143.87 1.23 1.22 1.23 1.22"/><text class="cls-2" transform="translate(49.6 26.34)"><tspan class="cls-3">O</tspan><tspan class="cls-4" x="8.56" y="0">p</tspan><tspan class="cls-5" x="15.29" y="0">e</tspan><tspan class="cls-6" x="21.41" y="0">r</tspan><tspan class="cls-7" x="25.68" y="0">a</tspan><tspan class="cls-8" x="31.2" y="0">t</tspan><tspan class="cls-9" x="35.48" y="0">i</tspan><tspan class="cls-10" x="38.54" y="0">o</tspan><tspan x="45.26" y="0">n</tspan></text><text class="cls-2" transform="translate(166.55 26.34)"><tspan class="cls-11">D</tspan><tspan class="cls-8" x="7.95" y="0">u</tspan><tspan class="cls-6" x="14.68" y="0">r</tspan><tspan class="cls-7" x="18.95" y="0">a</tspan><tspan class="cls-8" x="24.47" y="0">t</tspan><tspan class="cls-9" x="28.75" y="0">i</tspan><tspan class="cls-10" x="31.81" y="0">o</tspan><tspan class="cls-8" x="38.53" y="0">n</tspan><tspan class="cls-12" x="45.26" y="0">(</tspan><tspan class="cls-13" x="48.93" y="0">m</tspan><tspan class="cls-10" x="58.72" y="0">s</tspan><tspan x="63.62" y="0">)</tspan></text><text class="cls-2" transform="translate(276.16 26.34)"><tspan class="cls-14">E</tspan><tspan class="cls-15" x="5.52" y="0">n</tspan><tspan class="cls-5" x="12.24" y="0">e</tspan><tspan class="cls-6" x="18.36" y="0">r</tspan><tspan class="cls-4" x="22.64" y="0">g</tspan><tspan class="cls-16" x="29.37" y="0">y</tspan><tspan class="cls-12" x="34.88" y="0">(</tspan><tspan class="cls-13" x="38.55" y="0">m</tspan><tspan class="cls-17" x="48.34" y="0">J</tspan><tspan x="52.64" y="0">)</tspan></text><text class="cls-2" transform="translate(364.94 26.34)"><tspan class="cls-14">E</tspan><tspan class="cls-15" x="5.52" y="0">n</tspan><tspan class="cls-5" x="12.24" y="0">e</tspan><tspan class="cls-6" x="18.36" y="0">r</tspan><tspan class="cls-4" x="22.64" y="0">g</tspan><tspan class="cls-16" x="29.37" y="0">y</tspan><tspan class="cls-18" x="34.88" y="0"> </tspan><tspan class="cls-19" x="37.93" y="0">i</tspan><tspan class="cls-15" x="40.99" y="0">n</tspan><tspan class="cls-18" x="47.71" y="0"> </tspan><tspan class="cls-20" x="50.77" y="0">P</tspan><tspan class="cls-5" x="57.49" y="0">e</tspan><tspan class="cls-21" x="63.61" y="0">r</tspan><tspan class="cls-22" x="67.89" y="0">c</tspan><tspan class="cls-5" x="72.79" y="0">e</tspan><tspan class="cls-8" x="78.91" y="0">nt</tspan><tspan class="cls-23" x="89.92" y="0">a</tspan><tspan class="cls-24" x="95.44" y="0">g</tspan><tspan x="102.17" y="0">e</tspan></text><text class="cls-25" transform="translate(36.13 41.02)"><tspan class="cls-26">E</tspan><tspan class="cls-27" x="5.52" y="0">i</tspan><tspan class="cls-28" x="7.97" y="0">n</tspan><tspan class="cls-29" x="14.09" y="0">k</tspan><tspan class="cls-13" x="19" y="0"> </tspan><tspan class="cls-30" x="22.05" y="0">I</tspan><tspan class="cls-31" x="24.51" y="0">n</tspan><tspan class="cls-32" x="30.63" y="0">i</tspan><tspan class="cls-33" x="33.08" y="0">t</tspan><tspan class="cls-27" x="36.75" y="0">i</tspan><tspan x="39.2" y="0">a</tspan><tspan class="cls-32" x="44.72" y="0">li</tspan><tspan class="cls-34" x="49.63" y="0">z</tspan><tspan x="54.53" y="0">a</tspan><tspan class="cls-33" x="60.05" y="0">t</tspan><tspan class="cls-27" x="63.72" y="0">i</tspan><tspan class="cls-14" x="66.18" y="0">o</tspan><tspan class="cls-35" x="72.31" y="0">n</tspan></text><text class="cls-36" transform="translate(194.72 41.02)">5<tspan class="cls-35" x="5.52" y="0">0</tspan></text><text class="cls-37" transform="translate(292.07 41.02)"><tspan class="cls-38">0</tspan><tspan class="cls-39" x="5.52" y="0">.</tspan><tspan class="cls-38" x="7.96" y="0">33</tspan><tspan x="19" y="0">5</tspan></text><text class="cls-25" transform="translate(413.31 41.02)"><tspan class="cls-38">5</tspan><tspan x="5.52" y="0">%</tspan></text><text class="cls-25" transform="translate(35.51 55.1)"><tspan class="cls-40">G</tspan><tspan x="7.35" y="0">a</tspan><tspan class="cls-17" x="12.87" y="0">m</tspan><tspan class="cls-34" x="22.06" y="0">e</tspan><tspan class="cls-13" x="27.58" y="0" xml:space="preserve"> P</tspan><tspan class="cls-41" x="36.74" y="0">r</tspan><tspan class="cls-14" x="40.42" y="0">o</tspan><tspan class="cls-16" x="46.55" y="0">c</tspan><tspan class="cls-34" x="51.45" y="0">e</tspan><tspan class="cls-42" x="56.97" y="0">ss</tspan><tspan class="cls-27" x="65.55" y="0">i</tspan><tspan class="cls-28" x="68" y="0">n</tspan><tspan x="74.12" y="0">g</tspan></text><text class="cls-36" transform="translate(193.49 55.1)">8<tspan class="cls-43" x="5.52" y="0">.</tspan><tspan class="cls-35" x="7.96" y="0">5</tspan></text><text class="cls-37" transform="translate(292.07 55.1)"><tspan class="cls-38">0</tspan><tspan class="cls-39" x="5.52" y="0">.</tspan><tspan class="cls-38" x="7.96" y="0">14</tspan><tspan x="19" y="0">5</tspan></text><text class="cls-25" transform="translate(413.31 55.1)"><tspan class="cls-38">2</tspan><tspan x="5.52" y="0">%</tspan></text><text class="cls-25" transform="translate(38.57 69.19)"><tspan class="cls-44">L</tspan><tspan x="4.91" y="0">a</tspan><tspan class="cls-42" x="10.43" y="0">s</tspan><tspan class="cls-33" x="14.72" y="0">t</tspan><tspan class="cls-13" x="18.39" y="0"> </tspan><tspan class="cls-30" x="21.44" y="0">I</tspan><tspan class="cls-17" x="23.9" y="0">m</tspan><tspan class="cls-45" x="33.09" y="0">g</tspan><tspan class="cls-43" x="39.22" y="0">.</tspan><tspan class="cls-13" x="41.66" y="0"> </tspan><tspan class="cls-46" x="44.71" y="0">S</tspan><tspan class="cls-13" x="50.22" y="0">P</tspan><tspan class="cls-30" x="56.33" y="0">I</tspan><tspan class="cls-13" x="58.79" y="0"> </tspan><tspan class="cls-14" x="61.84" y="0">T</tspan><tspan x="67.36" y="0">X</tspan></text><text class="cls-36" transform="translate(194.72 69.19)">1<tspan class="cls-35" x="5.52" y="0">4</tspan></text><text class="cls-37" transform="translate(292.07 69.19)"><tspan class="cls-38">0</tspan><tspan class="cls-39" x="5.52" y="0">.</tspan><tspan class="cls-38" x="7.96" y="0">10</tspan><tspan x="19" y="0">5</tspan></text><text class="cls-25" transform="translate(413.31 69.19)"><tspan class="cls-38">2</tspan><tspan x="5.52" y="0">%</tspan></text><text class="cls-25" transform="translate(40.41 83.27)"><tspan class="cls-47">F</tspan><tspan class="cls-32" x="5.51" y="0">l</tspan><tspan x="7.96" y="0">a</tspan><tspan class="cls-42" x="13.48" y="0">s</tspan><tspan class="cls-28" x="17.77" y="0">h</tspan><tspan class="cls-13" x="23.89" y="0"> </tspan><tspan x="26.94" y="0">U</tspan><tspan class="cls-48" x="34.29" y="0">pd</tspan><tspan class="cls-49" x="46.55" y="0">a</tspan><tspan class="cls-50" x="52.07" y="0">t</tspan><tspan class="cls-27" x="55.74" y="0">i</tspan><tspan class="cls-28" x="58.19" y="0">n</tspan><tspan x="64.31" y="0">g</tspan></text><text class="cls-36" transform="translate(194.72 83.27)">9<tspan class="cls-35" x="5.52" y="0">0</tspan></text><text class="cls-37" transform="translate(292.07 83.27)"><tspan class="cls-38">1</tspan><tspan class="cls-39" x="5.52" y="0">.</tspan><tspan class="cls-38" x="7.96" y="0">32</tspan><tspan x="19" y="0">0</tspan></text><text class="cls-25" transform="translate(410.87 83.27)"><tspan class="cls-38">20</tspan><tspan x="11.04" y="0">%</tspan></text><text class="cls-25" transform="translate(17.14 97.35)"><tspan class="cls-47">F</tspan><tspan class="cls-32" x="5.51" y="0">l</tspan><tspan x="7.96" y="0">a</tspan><tspan class="cls-42" x="13.48" y="0">s</tspan><tspan class="cls-28" x="17.77" y="0">h</tspan><tspan class="cls-13" x="23.89" y="0"> </tspan><tspan class="cls-40" x="26.94" y="0">G</tspan><tspan x="34.29" y="0">a</tspan><tspan class="cls-51" x="39.81" y="0">r</tspan><tspan class="cls-45" x="43.49" y="0">b</tspan><tspan class="cls-49" x="49.61" y="0">a</tspan><tspan class="cls-45" x="55.13" y="0">g</tspan><tspan class="cls-52" x="61.26" y="0">e</tspan><tspan class="cls-13" x="66.78" y="0"> </tspan><tspan class="cls-53" x="69.83" y="0">C</tspan><tspan class="cls-14" x="76.56" y="0">o</tspan><tspan class="cls-27" x="82.69" y="0">ll</tspan><tspan class="cls-52" x="87.6" y="0">e</tspan><tspan class="cls-54" x="93.12" y="0">c</tspan><tspan class="cls-33" x="98.02" y="0">t</tspan><tspan class="cls-27" x="101.68" y="0">i</tspan><tspan class="cls-14" x="104.14" y="0">o</tspan><tspan class="cls-35" x="110.27" y="0">n</tspan></text><text class="cls-37" transform="translate(192.27 97.35)"><tspan class="cls-55">10</tspan><tspan x="11.04" y="0">5</tspan></text><text class="cls-37" transform="translate(292.07 97.35)"><tspan class="cls-38">1</tspan><tspan class="cls-39" x="5.52" y="0">.</tspan><tspan class="cls-38" x="7.96" y="0">43</tspan><tspan x="19" y="0">8</tspan></text><text class="cls-25" transform="translate(410.87 97.35)"><tspan class="cls-38">21</tspan><tspan x="11.04" y="0">%</tspan></text><text class="cls-25" transform="translate(37.35 111.43)"><tspan class="cls-56">N</tspan><tspan class="cls-52" x="7.96" y="0">e</tspan><tspan class="cls-57" x="13.48" y="0">w</tspan><tspan class="cls-13" x="21.43" y="0"> </tspan><tspan class="cls-30" x="24.48" y="0">I</tspan><tspan class="cls-17" x="26.94" y="0">m</tspan><tspan class="cls-45" x="36.14" y="0">g</tspan><tspan class="cls-43" x="42.26" y="0">.</tspan><tspan class="cls-13" x="44.7" y="0"> </tspan><tspan class="cls-46" x="47.75" y="0">S</tspan><tspan class="cls-13" x="53.27" y="0">P</tspan><tspan class="cls-30" x="59.38" y="0">I</tspan><tspan class="cls-13" x="61.84" y="0"> </tspan><tspan class="cls-14" x="64.89" y="0">T</tspan><tspan x="70.41" y="0">X</tspan></text><text class="cls-37" transform="translate(197.78 111.43)">7</text><text class="cls-37" transform="translate(292.07 111.43)"><tspan class="cls-38">0</tspan><tspan class="cls-39" x="5.52" y="0">.</tspan><tspan class="cls-38" x="7.96" y="0">05</tspan><tspan x="19" y="0">8</tspan></text><text class="cls-25" transform="translate(413.31 111.43)"><tspan class="cls-38">1</tspan><tspan x="5.52" y="0">%</tspan></text><text class="cls-25" transform="translate(42.85 125.52)"><tspan class="cls-26">E</tspan><tspan class="cls-27" x="5.52" y="0">i</tspan><tspan class="cls-28" x="7.97" y="0">n</tspan><tspan class="cls-29" x="14.09" y="0">k</tspan><tspan class="cls-13" x="19" y="0"> </tspan><tspan x="22.05" y="0">U</tspan><tspan class="cls-45" x="29.41" y="0">pd</tspan><tspan x="41.66" y="0">a</tspan><tspan class="cls-33" x="47.18" y="0">t</tspan><tspan class="cls-27" x="50.85" y="0">i</tspan><tspan class="cls-28" x="53.3" y="0">n</tspan><tspan x="59.42" y="0">g</tspan></text><text class="cls-37" transform="translate(192.27 125.52)"><tspan class="cls-55">55</tspan><tspan x="11.04" y="0">3</tspan></text><text class="cls-37" transform="translate(292.07 125.52)"><tspan class="cls-38">3</tspan><tspan class="cls-39" x="5.52" y="0">.</tspan><tspan class="cls-38" x="7.96" y="0">32</tspan><tspan x="19" y="0">5</tspan></text><text class="cls-25" transform="translate(410.87 125.52)"><tspan class="cls-38">49</tspan><tspan x="11.04" y="0">%</tspan></text><text class="cls-58" transform="translate(63.06 140.2)">S<tspan class="cls-59" x="6.12" y="0">U</tspan><tspan class="cls-49" x="14.08" y="0">M</tspan></text><text class="cls-2" transform="translate(186.75 140.2)">827<tspan class="cls-45" x="18.35" y="0">.</tspan><tspan x="20.81" y="0">5</tspan></text><text class="cls-2" transform="translate(290.85 140.2)">6<tspan class="cls-48" x="6.12" y="0">.</tspan><tspan x="8.58" y="0">726</tspan></text><polygon class="cls-60" points="1.23 1.22 480.68 1.22 480.68 143.87 1.23 143.87 1.23 1.22 1.23 1.22"/><text class="cls-2" transform="translate(261.46 11.63)"><tspan class="cls-26">F</tspan><tspan class="cls-19" x="5.51" y="0">l</tspan><tspan class="cls-7" x="8.57" y="0">a</tspan><tspan class="cls-61" x="14.09" y="0">s</tspan><tspan class="cls-38" x="18.98" y="0">h</tspan><tspan x="25.11" y="0">-</tspan><tspan class="cls-62" x="30.62" y="0">b</tspan><tspan class="cls-7" x="37.35" y="0">a</tspan><tspan class="cls-61" x="42.87" y="0">s</tspan><tspan class="cls-5" x="47.76" y="0">e</tspan><tspan class="cls-24" x="53.88" y="0">d</tspan><tspan class="cls-39" x="60.61" y="0"> </tspan><tspan class="cls-63" x="63.66" y="0">S</tspan><tspan class="cls-64" x="69.78" y="0">o</tspan><tspan class="cls-19" x="76.51" y="0">l</tspan><tspan class="cls-15" x="79.56" y="0">ut</tspan><tspan class="cls-19" x="90.57" y="0">i</tspan><tspan class="cls-61" x="93.62" y="0">o</tspan><tspan class="cls-65" x="100.35" y="0">n</tspan></text><polygon class="cls-60" points="150.02 1.22 480.06 1.22 480.06 14.69 150.02 14.69 150.02 1.22 150.02 1.22"/><line class="cls-66" x1="0.61" y1="0.61" x2="0.61"/><polyline class="cls-67" points="0.61 0.61 0.61 0 1.23 0 1.23 0.61 0.61 0.61"/><line class="cls-66" x1="149.41" y1="0.61" x2="149.41"/><polyline class="cls-67" points="149.41 0.61 149.41 0 150.02 0 150.02 0.61 149.41 0.61"/><polyline class="cls-68" points="1.23 0 1.23 1.22 480.68 1.22 480.68 0 1.23 0"/><line class="cls-66" x1="480.06" y1="0.61" x2="480.06"/><polyline class="cls-67" points="480.06 0.61 480.06 0 480.68 0 480.68 0.61 480.06 0.61"/><line class="cls-66" x1="1.22" y1="14.69" x2="148.8" y2="14.69"/><polyline class="cls-67" points="1.23 14.69 1.23 15.3 148.8 15.3 148.8 14.69 1.23 14.69"/><line class="cls-66" x1="250.44" y1="0.61" x2="250.44"/><polyline class="cls-67" points="250.44 0.61 250.44 0 251.05 0 251.05 0.61 250.44 0.61"/><line class="cls-66" x1="356.99" y1="0.61" x2="356.99"/><polyline class="cls-67" points="356.99 0.61 356.99 0 357.6 0 357.6 0.61 356.99 0.61"/><line class="cls-66" x1="150.02" y1="14.69" x2="479.45" y2="14.69"/><polyline class="cls-67" points="150.02 14.69 150.02 15.3 479.45 15.3 479.45 14.69 150.02 14.69"/><line class="cls-66" x1="250.44" y1="15.31" x2="250.44" y2="28.77"/><polyline class="cls-67" points="250.44 15.3 250.44 28.77 251.05 28.77 251.05 15.3 250.44 15.3"/><line class="cls-66" x1="356.99" y1="15.31" x2="356.99" y2="28.77"/><polyline class="cls-67" points="356.99 15.3 356.99 28.77 357.6 28.77 357.6 15.3 356.99 15.3"/><polyline class="cls-68" points="1.23 28.77 1.23 30 480.68 30 480.68 28.77 1.23 28.77"/><line class="cls-66" x1="1.22" y1="43.47" x2="148.8" y2="43.47"/><polyline class="cls-67" points="1.23 43.47 1.23 44.08 148.8 44.08 148.8 43.47 1.23 43.47"/><line class="cls-66" x1="150.02" y1="43.47" x2="479.45" y2="43.47"/><polyline class="cls-67" points="150.02 43.47 150.02 44.08 479.45 44.08 479.45 43.47 150.02 43.47"/><line class="cls-66" x1="1.22" y1="57.55" x2="148.8" y2="57.55"/><polyline class="cls-67" points="1.23 57.55 1.23 58.16 148.8 58.16 148.8 57.55 1.23 57.55"/><line class="cls-66" x1="150.02" y1="57.55" x2="479.45" y2="57.55"/><polyline class="cls-67" points="150.02 57.55 150.02 58.16 479.45 58.16 479.45 57.55 150.02 57.55"/><line class="cls-66" x1="1.22" y1="71.63" x2="148.8" y2="71.63"/><polyline class="cls-67" points="1.23 71.63 1.23 72.24 148.8 72.24 148.8 71.63 1.23 71.63"/><line class="cls-66" x1="150.02" y1="71.63" x2="479.45" y2="71.63"/><polyline class="cls-67" points="150.02 71.63 150.02 72.24 479.45 72.24 479.45 71.63 150.02 71.63"/><line class="cls-66" x1="1.22" y1="85.71" x2="148.8" y2="85.71"/><polyline class="cls-67" points="1.23 85.71 1.23 86.32 148.8 86.32 148.8 85.71 1.23 85.71"/><line class="cls-66" x1="150.02" y1="85.71" x2="479.45" y2="85.71"/><polyline class="cls-67" points="150.02 85.71 150.02 86.32 479.45 86.32 479.45 85.71 150.02 85.71"/><line class="cls-66" x1="1.22" y1="99.79" x2="148.8" y2="99.79"/><polyline class="cls-67" points="1.23 99.79 1.23 100.4 148.8 100.4 148.8 99.79 1.23 99.79"/><line class="cls-66" x1="150.02" y1="99.79" x2="479.45" y2="99.79"/><polyline class="cls-67" points="150.02 99.79 150.02 100.4 479.45 100.4 479.45 99.79 150.02 99.79"/><line class="cls-66" x1="1.22" y1="113.87" x2="148.8" y2="113.87"/><polyline class="cls-67" points="1.23 113.87 1.23 114.48 148.8 114.48 148.8 113.87 1.23 113.87"/><line class="cls-66" x1="150.02" y1="113.87" x2="479.45" y2="113.87"/><polyline class="cls-67" points="150.02 113.87 150.02 114.48 479.45 114.48 479.45 113.87 150.02 113.87"/><line class="cls-66" x1="250.44" y1="30" x2="250.44" y2="127.95"/><polyline class="cls-67" points="250.44 30 250.44 127.95 251.05 127.95 251.05 30 250.44 30"/><line class="cls-66" x1="356.99" y1="30" x2="356.99" y2="127.95"/><polyline class="cls-67" points="356.99 30 356.99 127.95 357.6 127.95 357.6 30 356.99 30"/><polyline class="cls-68" points="1.23 127.95 1.23 129.18 480.68 129.18 480.68 127.95 1.23 127.95"/><polyline class="cls-68" points="0 0 0 143.87 1.23 143.87 1.23 0 0 0"/><polyline class="cls-68" points="148.8 1.22 148.8 143.87 150.02 143.87 150.02 1.22 148.8 1.22"/><line class="cls-66" x1="250.44" y1="129.18" x2="250.44" y2="142.64"/><polyline class="cls-67" points="250.44 129.18 250.44 142.64 251.05 142.64 251.05 129.18 250.44 129.18"/><line class="cls-66" x1="356.99" y1="129.18" x2="356.99" y2="142.64"/><polyline class="cls-67" points="356.99 129.18 356.99 142.64 357.6 142.64 357.6 129.18 356.99 129.18"/><polyline class="cls-68" points="1.23 142.64 1.23 143.87 480.68 143.87 480.68 142.64 1.23 142.64"/><polyline class="cls-68" points="479.45 1.22 479.45 143.87 480.68 143.87 480.68 1.22 479.45 1.22"/><line class="cls-66" x1="0.61" y1="143.87" x2="0.61" y2="144.48"/><polyline class="cls-67" points="0.61 143.87 0.61 144.48 1.23 144.48 1.23 143.87 0.61 143.87"/><line class="cls-66" x1="149.41" y1="143.87" x2="149.41" y2="144.48"/><polyline class="cls-67" points="149.41 143.87 149.41 144.48 150.02 144.48 150.02 143.87 149.41 143.87"/><line class="cls-66" x1="250.44" y1="143.87" x2="250.44" y2="144.48"/><polyline class="cls-67" points="250.44 143.87 250.44 144.48 251.05 144.48 251.05 143.87 250.44 143.87"/><line class="cls-66" x1="356.99" y1="143.87" x2="356.99" y2="144.48"/><polyline class="cls-67" points="356.99 143.87 356.99 144.48 357.6 144.48 357.6 143.87 356.99 143.87"/><line class="cls-66" x1="480.06" y1="143.87" x2="480.06" y2="144.48"/><polyline class="cls-67" points="480.06 143.87 480.06 144.48 480.68 144.48 480.68 143.87 480.06 143.87"/><line class="cls-66" x1="480.68" y1="0.61" x2="481.29" y2="0.61"/><polyline class="cls-67" points="480.68 0.61 480.68 1.22 481.29 1.22 481.29 0.61 480.68 0.61"/><line class="cls-66" x1="480.68" y1="14.69" x2="481.29" y2="14.69"/><polyline class="cls-67" points="480.68 14.69 480.68 15.3 481.29 15.3 481.29 14.69 480.68 14.69"/><line class="cls-66" x1="480.68" y1="29.39" x2="481.29" y2="29.39"/><polyline class="cls-67" points="480.68 29.39 480.68 30 481.29 30 481.29 29.39 480.68 29.39"/><line class="cls-66" x1="480.68" y1="43.47" x2="481.29" y2="43.47"/><polyline class="cls-67" points="480.68 43.47 480.68 44.08 481.29 44.08 481.29 43.47 480.68 43.47"/><line class="cls-66" x1="480.68" y1="57.55" x2="481.29" y2="57.55"/><polyline class="cls-67" points="480.68 57.55 480.68 58.16 481.29 58.16 481.29 57.55 480.68 57.55"/><line class="cls-66" x1="480.68" y1="71.63" x2="481.29" y2="71.63"/><polyline class="cls-67" points="480.68 71.63 480.68 72.24 481.29 72.24 481.29 71.63 480.68 71.63"/><line class="cls-66" x1="480.68" y1="85.71" x2="481.29" y2="85.71"/><polyline class="cls-67" points="480.68 85.71 480.68 86.32 481.29 86.32 481.29 85.71 480.68 85.71"/><line class="cls-66" x1="480.68" y1="99.79" x2="481.29" y2="99.79"/><polyline class="cls-67" points="480.68 99.79 480.68 100.4 481.29 100.4 481.29 99.79 480.68 99.79"/><line class="cls-66" x1="480.68" y1="113.87" x2="481.29" y2="113.87"/><polyline class="cls-67" points="480.68 113.87 480.68 114.48 481.29 114.48 481.29 113.87 480.68 113.87"/><line class="cls-66" x1="480.68" y1="128.56" x2="481.29" y2="128.56"/><polyline class="cls-67" points="480.68 128.56 480.68 129.18 481.29 129.18 481.29 128.56 480.68 128.56"/><line class="cls-66" x1="480.68" y1="143.26" x2="481.29" y2="143.26"/><polyline class="cls-67" points="480.68 143.26 480.68 143.87 481.29 143.87 481.29 143.26 480.68 143.26"/><polygon class="cls-60" points="0.61 0.61 480.68 0.61 480.68 143.87 0.61 143.87 0.61 0.61 0.61 0.61"/><polygon class="cls-60" points="1.23 1.22 480.68 1.22 480.68 143.87 1.23 143.87 1.23 1.22 1.23 1.22"/></svg>