<svg id="图层_1" data-name="图层 1" xmlns="http://www.w3.org/2000/svg" viewBox="0 0 693.77 187.33"><defs><style>.cls-1{fill:#fff;}.cls-1,.cls-3,.cls-45,.cls-75,.cls-76{fill-rule:evenodd;}.cls-2,.cls-45,.cls-74{fill:none;}.cls-2{stroke:green;}.cls-2,.cls-74{stroke-linecap:square;stroke-miterlimit:10;stroke-width:0;}.cls-3{fill:green;}.cls-14,.cls-16,.cls-24,.cls-32,.cls-39,.cls-4,.cls-44,.cls-61{font-size:11.02px;}.cls-14,.cls-16,.cls-24,.cls-4,.cls-61{font-family:DengXian-Bold, DengXian;font-weight:700;}.cls-5{letter-spacing:0.02em;}.cls-6{letter-spacing:0.01em;}.cls-7{letter-spacing:0.02em;}.cls-8{letter-spacing:0.02em;}.cls-9{letter-spacing:-0.02em;}.cls-10{letter-spacing:0.03em;}.cls-11{letter-spacing:0.02em;}.cls-12{letter-spacing:0.01em;}.cls-13{letter-spacing:0.02em;}.cls-14{letter-spacing:0.03em;}.cls-15{letter-spacing:0em;}.cls-16{letter-spacing:0em;}.cls-17,.cls-24{letter-spacing:-0.01em;}.cls-18{letter-spacing:0.02em;}.cls-19{letter-spacing:0em;}.cls-20{letter-spacing:-0.02em;}.cls-21{letter-spacing:0.02em;}.cls-22{letter-spacing:0em;}.cls-23{letter-spacing:0em;}.cls-25{letter-spacing:0.01em;}.cls-26{letter-spacing:0.02em;}.cls-27{letter-spacing:0em;}.cls-28{letter-spacing:0.02em;}.cls-29{letter-spacing:0.01em;}.cls-30{letter-spacing:0.03em;}.cls-31{letter-spacing:-0.02em;}.cls-32,.cls-39,.cls-44{font-family:DengXian;}.cls-33{letter-spacing:-0.01em;}.cls-34{letter-spacing:-0.02em;}.cls-35{letter-spacing:-0.01em;}.cls-36{letter-spacing:0em;}.cls-37{letter-spacing:0.02em;}.cls-38{letter-spacing:-0.02em;}.cls-39{fill:red;}.cls-40{letter-spacing:-0.03em;}.cls-41{letter-spacing:0em;}.cls-42{letter-spacing:-0.02em;}.cls-43{letter-spacing:-0.03em;}.cls-44{fill:#5b9bd5;}.cls-46{letter-spacing:-0.01em;}.cls-47{letter-spacing:-0.02em;}.cls-48{letter-spacing:-0.01em;}.cls-49{letter-spacing:-0.01em;}.cls-50{letter-spacing:0em;}.cls-51{letter-spacing:-0.01em;}.cls-52{letter-spacing:-0.02em;}.cls-53{letter-spacing:0em;}.cls-54{letter-spacing:0em;}.cls-55{letter-spacing:0em;}.cls-56{letter-spacing:0.02em;}.cls-57{letter-spacing:0.02em;}.cls-58{letter-spacing:0.02em;}.cls-59{letter-spacing:0em;}.cls-60{letter-spacing:0.02em;}.cls-61{letter-spacing:0.01em;}.cls-62{letter-spacing:-0.01em;}.cls-63{letter-spacing:0.01em;}.cls-64{letter-spacing:0em;}.cls-65{letter-spacing:0.01em;}.cls-66{letter-spacing:0.02em;}.cls-67{letter-spacing:0em;}.cls-68{letter-spacing:0.01em;}.cls-69{letter-spacing:0.02em;}.cls-70{letter-spacing:0.03em;}.cls-71{letter-spacing:0.01em;}.cls-72{letter-spacing:-0.01em;}.cls-73{letter-spacing:0.01em;}.cls-74{stroke:#d4d4d4;}.cls-75{fill:#d4d4d4;}</style></defs><title>FRAM-based power</title><polygon class="cls-1" points="0.61 0.61 693.15 0.61 693.15 186.72 0.61 186.72 0.61 0.61 0.61 0.61"/><line class="cls-2" x1="584.16" y1="114.48" x2="588.45" y2="114.48"/><polyline class="cls-3" points="584.16 114.48 584.16 115.09 588.45 115.09 588.45 114.48 584.16 114.48"/><line class="cls-2" x1="584.16" y1="115.09" x2="587.83" y2="115.09"/><polyline class="cls-3" points="584.16 115.09 584.16 115.71 587.84 115.71 587.84 115.09 584.16 115.09"/><line class="cls-2" x1="584.16" y1="115.71" x2="587.22" y2="115.71"/><polyline class="cls-3" points="584.16 115.71 584.16 116.32 587.22 116.32 587.22 115.71 584.16 115.71"/><line class="cls-2" x1="584.16" y1="116.32" x2="586.61" y2="116.32"/><polyline class="cls-3" points="584.16 116.32 584.16 116.93 586.61 116.93 586.61 116.32 584.16 116.32"/><line class="cls-2" x1="584.16" y1="116.93" x2="586" y2="116.93"/><polyline class="cls-3" points="584.16 116.93 584.16 117.54 586 117.54 586 116.93 584.16 116.93"/><line class="cls-2" x1="584.16" y1="117.54" x2="585.39" y2="117.54"/><polyline class="cls-3" points="584.16 117.54 584.16 118.16 585.38 118.16 585.38 117.54 584.16 117.54"/><line class="cls-2" x1="584.16" y1="118.16" x2="584.77" y2="118.16"/><polyline class="cls-3" points="584.16 118.16 584.16 118.77 584.77 118.77 584.77 118.16 584.16 118.16"/><text class="cls-4" transform="translate(49.6 41.03)"><tspan class="cls-5">O</tspan><tspan class="cls-6" x="8.56" y="0">p</tspan><tspan class="cls-7" x="15.29" y="0">e</tspan><tspan class="cls-8" x="21.41" y="0">r</tspan><tspan class="cls-9" x="25.68" y="0">a</tspan><tspan class="cls-10" x="31.2" y="0">t</tspan><tspan class="cls-11" x="35.48" y="0">i</tspan><tspan class="cls-12" x="38.54" y="0">o</tspan><tspan x="45.26" y="0">n</tspan></text><text class="cls-4" transform="translate(189.21 41.03)"><tspan class="cls-13">U</tspan><tspan class="cls-10" x="7.96" y="0">n</tspan><tspan class="cls-11" x="14.69" y="0">i</tspan><tspan x="17.74" y="0">t</tspan></text><text class="cls-14" transform="translate(293.92 41.03)">P<tspan class="cls-9" x="6.73" y="0">a</tspan><tspan class="cls-8" x="12.25" y="0">r</tspan><tspan class="cls-15" x="16.52" y="0">t</tspan></text><text class="cls-16" transform="translate(365.56 41.03)">A<tspan class="cls-17" x="7.35" y="0">v</tspan><tspan class="cls-7" x="12.87" y="0">e</tspan><tspan class="cls-18" x="18.99" y="0">r</tspan><tspan class="cls-9" x="23.26" y="0">a</tspan><tspan class="cls-6" x="28.78" y="0">g</tspan><tspan class="cls-7" x="35.51" y="0">e</tspan><tspan class="cls-19" x="41.63" y="0"> </tspan><tspan class="cls-20" x="44.68" y="0">c</tspan><tspan class="cls-10" x="49.59" y="0">u</tspan><tspan class="cls-8" x="56.32" y="0">rr</tspan><tspan class="cls-21" x="64.87" y="0">e</tspan><tspan class="cls-10" x="70.99" y="0">nt</tspan><tspan class="cls-19" x="82" y="0"> </tspan><tspan class="cls-22" x="85.05" y="0">(</tspan><tspan class="cls-10" x="88.72" y="0">u</tspan><tspan x="95.44" y="0">A</tspan><tspan class="cls-23" x="102.8" y="0">)</tspan></text><text class="cls-24" transform="translate(505.78 41.03)">v<tspan class="cls-25" x="5.51" y="0">o</tspan><tspan class="cls-26" x="12.24" y="0">l</tspan><tspan class="cls-10" x="15.29" y="0">t</tspan><tspan class="cls-9" x="19.57" y="0">a</tspan><tspan class="cls-6" x="25.09" y="0">g</tspan><tspan class="cls-7" x="31.82" y="0">e</tspan><tspan class="cls-27" x="37.94" y="0">(</tspan><tspan class="cls-28" x="41.61" y="0">V</tspan><tspan class="cls-23" x="48.95" y="0">)</tspan></text><text class="cls-16" transform="translate(586 41.03)">A<tspan class="cls-17" x="7.35" y="0">v</tspan><tspan class="cls-7" x="12.87" y="0">e</tspan><tspan class="cls-18" x="18.99" y="0">r</tspan><tspan class="cls-9" x="23.26" y="0">a</tspan><tspan class="cls-6" x="28.78" y="0">g</tspan><tspan class="cls-7" x="35.51" y="0">e</tspan><tspan class="cls-19" x="41.63" y="0"> </tspan><tspan class="cls-6" x="44.68" y="0">p</tspan><tspan class="cls-29" x="51.41" y="0">o</tspan><tspan class="cls-5" x="58.13" y="0">w</tspan><tspan class="cls-7" x="66.7" y="0">e</tspan><tspan class="cls-18" x="72.82" y="0">r</tspan><tspan class="cls-19" x="77.1" y="0"> </tspan><tspan class="cls-27" x="80.15" y="0">(</tspan><tspan class="cls-30" x="83.82" y="0">u</tspan><tspan class="cls-31" x="90.54" y="0">W</tspan><tspan class="cls-23" x="100.96" y="0">)</tspan></text><text class="cls-32" transform="translate(281.67 69.19)"><tspan class="cls-33">C</tspan><tspan x="6.73" y="0">a</tspan><tspan class="cls-34" x="12.25" y="0">p</tspan><tspan class="cls-15" x="18.38" y="0">a</tspan><tspan class="cls-35" x="23.9" y="0">c</tspan><tspan class="cls-36" x="28.8" y="0">i</tspan><tspan class="cls-37" x="31.25" y="0">t</tspan><tspan class="cls-38" x="34.92" y="0">o</tspan><tspan x="41.05" y="0">r</tspan></text><text class="cls-39" transform="translate(406.58 69.19)"><tspan class="cls-40">0</tspan><tspan class="cls-41" x="5.52" y="0">.</tspan><tspan class="cls-40" x="7.96" y="0">86</tspan><tspan x="19" y="0">7</tspan></text><text class="cls-39" transform="translate(529.66 69.19)">8</text><text class="cls-32" transform="translate(626.41 69.19)"><tspan class="cls-40">6</tspan><tspan class="cls-41" x="5.52" y="0">.</tspan><tspan class="cls-40" x="7.96" y="0">93</tspan><tspan x="19" y="0">6</tspan></text><text class="cls-32" transform="translate(279.21 83.28)"><tspan class="cls-42">L</tspan><tspan class="cls-38" x="4.91" y="0">T</tspan><tspan class="cls-33" x="10.42" y="0">C</tspan><tspan class="cls-43" x="17.16" y="0">3588</tspan><tspan x="39.24" y="0">-1</tspan></text><text class="cls-44" transform="translate(406.58 83.28)"><tspan class="cls-40">0</tspan><tspan class="cls-41" x="5.52" y="0">.</tspan><tspan class="cls-40" x="7.96" y="0">08</tspan><tspan x="19" y="0">1</tspan></text><text class="cls-39" transform="translate(529.66 83.28)">8</text><text class="cls-32" transform="translate(626.41 83.28)"><tspan class="cls-40">0</tspan><tspan class="cls-41" x="5.52" y="0">.</tspan><tspan class="cls-40" x="7.96" y="0">64</tspan><tspan x="19" y="0">8</tspan></text><polygon class="cls-45" points="1.23 1.22 693.15 1.22 693.15 186.72 1.23 186.72 1.23 1.22 1.23 1.22"/><text class="cls-32" transform="translate(268.81 97.35)"><tspan class="cls-9">R</tspan><tspan class="cls-46" x="6.12" y="0">e</tspan><tspan class="cls-47" x="11.64" y="0">s</tspan><tspan class="cls-36" x="15.93" y="0">i</tspan><tspan class="cls-47" x="18.38" y="0">s</tspan><tspan class="cls-37" x="22.67" y="0">t</tspan><tspan class="cls-38" x="26.34" y="0">o</tspan><tspan class="cls-48" x="32.47" y="0">r</tspan><tspan class="cls-38" x="36.15" y="0">s</tspan><tspan class="cls-49" x="40.44" y="0">(</tspan><tspan class="cls-43" x="43.5" y="0">9</tspan><tspan x="49.02" y="0">M</tspan></text><text class="cls-32" transform="translate(327.59 97.35)">Ω</text><text class="cls-32" transform="translate(336.17 97.35)">)</text><text class="cls-44" transform="translate(406.58 97.35)"><tspan class="cls-40">0</tspan><tspan class="cls-41" x="5.52" y="0">.</tspan><tspan class="cls-40" x="7.96" y="0">88</tspan><tspan x="19" y="0">9</tspan></text><text class="cls-39" transform="translate(529.66 97.35)">8</text><text class="cls-32" transform="translate(626.41 97.35)"><tspan class="cls-40">7</tspan><tspan class="cls-41" x="5.52" y="0">.</tspan><tspan class="cls-40" x="7.96" y="0">11</tspan><tspan x="19" y="0">2</tspan></text><polygon class="cls-45" points="1.23 86.32 693.15 86.32 693.15 99.79 1.23 99.79 1.23 86.32 1.23 86.32"/><text class="cls-32" transform="translate(190.43 111.42)"><tspan class="cls-50">E</tspan><tspan x="5.52" y="0">UU</tspan></text><text class="cls-32" transform="translate(273.1 111.42)"><tspan class="cls-51">N</tspan><tspan class="cls-38" x="7.96" y="0">o</tspan><tspan class="cls-48" x="14.09" y="0">r</tspan><tspan class="cls-52" x="17.77" y="0">d</tspan><tspan class="cls-36" x="23.9" y="0">i</tspan><tspan class="cls-35" x="26.35" y="0">c</tspan><tspan class="cls-53" x="31.25" y="0"> </tspan><tspan class="cls-43" x="34.3" y="0">5283</tspan><tspan x="56.38" y="0">2</tspan></text><text class="cls-44" transform="translate(412.1 111.42)"><tspan class="cls-40">1</tspan><tspan class="cls-41" x="5.52" y="0">.</tspan><tspan x="7.96" y="0">9</tspan></text><text class="cls-39" transform="translate(525.38 111.42)"><tspan class="cls-40">3</tspan><tspan class="cls-41" x="5.52" y="0">.</tspan><tspan x="7.96" y="0">3</tspan></text><text class="cls-32" transform="translate(628.86 111.42)"><tspan class="cls-40">6</tspan><tspan class="cls-41" x="5.52" y="0">.</tspan><tspan class="cls-40" x="7.96" y="0">2</tspan><tspan x="13.48" y="0">7</tspan></text><text class="cls-32" transform="translate(277.38 125.51)"><tspan class="cls-50">E</tspan><tspan class="cls-54" x="5.52" y="0">i</tspan><tspan class="cls-55" x="7.97" y="0">n</tspan><tspan class="cls-20" x="14.09" y="0">k</tspan><tspan class="cls-53" x="19" y="0"> </tspan><tspan class="cls-51" x="22.05" y="0">N</tspan><tspan class="cls-56" x="30.01" y="0">M</tspan><tspan class="cls-57" x="39.8" y="0">O</tspan><tspan x="48.37" y="0">S</tspan></text><text class="cls-44" transform="translate(416.38 125.51)">1</text><text class="cls-39" transform="translate(525.38 125.51)"><tspan class="cls-40">3</tspan><tspan class="cls-41" x="5.52" y="0">.</tspan><tspan x="7.96" y="0">3</tspan></text><text class="cls-32" transform="translate(631.92 125.51)"><tspan class="cls-40">3</tspan><tspan class="cls-41" x="5.52" y="0">.</tspan><tspan x="7.96" y="0">3</tspan></text><text class="cls-32" transform="translate(274.93 139.6)"><tspan class="cls-58">F</tspan><tspan class="cls-48" x="5.51" y="0">r</tspan><tspan x="9.18" y="0">a</tspan><tspan class="cls-17" x="14.7" y="0">m</tspan><tspan class="cls-53" x="23.9" y="0"> </tspan><tspan class="cls-51" x="26.95" y="0">N</tspan><tspan class="cls-56" x="34.91" y="0">M</tspan><tspan class="cls-57" x="44.7" y="0">O</tspan><tspan x="53.27" y="0">S</tspan></text><text class="cls-44" transform="translate(416.38 139.6)">1</text><text class="cls-39" transform="translate(525.38 139.6)"><tspan class="cls-40">3</tspan><tspan class="cls-41" x="5.52" y="0">.</tspan><tspan x="7.96" y="0">3</tspan></text><text class="cls-32" transform="translate(631.92 139.6)"><tspan class="cls-40">3</tspan><tspan class="cls-41" x="5.52" y="0">.</tspan><tspan x="7.96" y="0">3</tspan></text><text class="cls-4" transform="translate(49.6 154.29)"><tspan class="cls-5">O</tspan><tspan class="cls-6" x="8.56" y="0">p</tspan><tspan class="cls-7" x="15.29" y="0">e</tspan><tspan class="cls-8" x="21.41" y="0">r</tspan><tspan class="cls-9" x="25.68" y="0">a</tspan><tspan class="cls-10" x="31.2" y="0">t</tspan><tspan class="cls-11" x="35.48" y="0">i</tspan><tspan class="cls-12" x="38.54" y="0">o</tspan><tspan x="45.26" y="0">n</tspan></text><text class="cls-4" transform="translate(186.75 154.29)"><tspan class="cls-13">U</tspan><tspan class="cls-10" x="7.96" y="0">n</tspan><tspan class="cls-11" x="14.69" y="0">i</tspan><tspan class="cls-10" x="17.74" y="0">t</tspan><tspan x="22.02" y="0">s</tspan></text><text class="cls-14" transform="translate(293.92 154.29)">P<tspan class="cls-9" x="6.73" y="0">a</tspan><tspan class="cls-8" x="12.25" y="0">r</tspan><tspan class="cls-15" x="16.52" y="0">t</tspan></text><text class="cls-16" transform="translate(365.56 154.29)">A<tspan class="cls-17" x="7.35" y="0">v</tspan><tspan class="cls-7" x="12.87" y="0">e</tspan><tspan class="cls-18" x="18.99" y="0">r</tspan><tspan class="cls-9" x="23.26" y="0">a</tspan><tspan class="cls-6" x="28.78" y="0">g</tspan><tspan class="cls-7" x="35.51" y="0">e</tspan><tspan class="cls-19" x="41.63" y="0"> </tspan><tspan class="cls-20" x="44.68" y="0">c</tspan><tspan class="cls-10" x="49.59" y="0">u</tspan><tspan class="cls-8" x="56.32" y="0">rr</tspan><tspan class="cls-21" x="64.87" y="0">e</tspan><tspan class="cls-10" x="70.99" y="0">nt</tspan><tspan class="cls-19" x="82" y="0"> </tspan><tspan class="cls-22" x="85.05" y="0">(</tspan><tspan class="cls-10" x="88.72" y="0">u</tspan><tspan x="95.44" y="0">A</tspan><tspan class="cls-23" x="102.8" y="0">)</tspan></text><text class="cls-24" transform="translate(505.78 154.29)">v<tspan class="cls-25" x="5.51" y="0">o</tspan><tspan class="cls-26" x="12.24" y="0">l</tspan><tspan class="cls-10" x="15.29" y="0">t</tspan><tspan class="cls-9" x="19.57" y="0">a</tspan><tspan class="cls-6" x="25.09" y="0">g</tspan><tspan class="cls-7" x="31.82" y="0">e</tspan><tspan class="cls-27" x="37.94" y="0">(</tspan><tspan class="cls-28" x="41.61" y="0">V</tspan><tspan class="cls-23" x="48.95" y="0">)</tspan></text><text class="cls-16" transform="translate(586 154.29)">A<tspan class="cls-17" x="7.35" y="0">v</tspan><tspan class="cls-7" x="12.87" y="0">e</tspan><tspan class="cls-18" x="18.99" y="0">r</tspan><tspan class="cls-9" x="23.26" y="0">a</tspan><tspan class="cls-6" x="28.78" y="0">g</tspan><tspan class="cls-7" x="35.51" y="0">e</tspan><tspan class="cls-19" x="41.63" y="0"> </tspan><tspan class="cls-6" x="44.68" y="0">p</tspan><tspan class="cls-29" x="51.41" y="0">o</tspan><tspan class="cls-5" x="58.13" y="0">w</tspan><tspan class="cls-7" x="66.7" y="0">e</tspan><tspan class="cls-18" x="72.82" y="0">r</tspan><tspan class="cls-19" x="77.1" y="0"> </tspan><tspan class="cls-27" x="80.15" y="0">(</tspan><tspan class="cls-30" x="83.82" y="0">u</tspan><tspan class="cls-31" x="90.54" y="0">W</tspan><tspan class="cls-23" x="100.96" y="0">)</tspan></text><text class="cls-32" transform="translate(54.5 168.36)"><tspan class="cls-42">L</tspan><tspan class="cls-59" x="4.91" y="0">P</tspan><tspan class="cls-33" x="11.02" y="0">C</tspan><tspan class="cls-60" x="17.76" y="0">O</tspan><tspan class="cls-56" x="26.32" y="0">M</tspan><tspan x="36.11" y="0">P</tspan></text><text class="cls-32" transform="translate(190.43 168.36)"><tspan class="cls-50">E</tspan><tspan x="5.52" y="0">UU</tspan></text><text class="cls-32" transform="translate(273.1 168.36)"><tspan class="cls-51">N</tspan><tspan class="cls-38" x="7.96" y="0">o</tspan><tspan class="cls-48" x="14.09" y="0">r</tspan><tspan class="cls-52" x="17.77" y="0">d</tspan><tspan class="cls-36" x="23.9" y="0">i</tspan><tspan class="cls-35" x="26.35" y="0">c</tspan><tspan class="cls-53" x="31.25" y="0"> </tspan><tspan class="cls-43" x="34.3" y="0">5283</tspan><tspan x="56.38" y="0">2</tspan></text><text class="cls-32" transform="translate(412.1 168.36)"><tspan class="cls-40">0</tspan><tspan class="cls-41" x="5.52" y="0">.</tspan><tspan x="7.96" y="0">5</tspan></text><text class="cls-39" transform="translate(525.38 168.36)"><tspan class="cls-40">3</tspan><tspan class="cls-41" x="5.52" y="0">.</tspan><tspan x="7.96" y="0">3</tspan></text><text class="cls-32" transform="translate(628.86 168.36)"><tspan class="cls-40">1</tspan><tspan class="cls-41" x="5.52" y="0">.</tspan><tspan class="cls-40" x="7.96" y="0">6</tspan><tspan x="13.48" y="0">5</tspan></text><text class="cls-61" transform="translate(63.07 183.06)">S<tspan class="cls-13" x="6.12" y="0">U</tspan><tspan class="cls-15" x="14.08" y="0">M</tspan></text><text class="cls-4" transform="translate(622.12 183.06)">29<tspan class="cls-52" x="12.24" y="0">.</tspan><tspan x="14.7" y="0">216</tspan></text><polygon class="cls-45" points="1.23 1.22 693.15 1.22 693.15 186.72 1.23 186.72 1.23 1.22 1.23 1.22"/><text class="cls-32" transform="translate(55.71 104.08)"><tspan class="cls-49">S</tspan><tspan class="cls-36" x="5.51" y="0">l</tspan><tspan class="cls-62" x="7.96" y="0">ee</tspan><tspan class="cls-34" x="19" y="0">p</tspan><tspan class="cls-36" x="25.12" y="0">i</tspan><tspan class="cls-63" x="27.58" y="0">n</tspan><tspan x="33.7" y="0">g</tspan></text><polygon class="cls-45" points="1.23 58.16 149.41 58.16 149.41 142.64 1.23 142.64 1.23 58.16 1.23 58.16"/><text class="cls-32" transform="translate(189.21 82.66)"><tspan class="cls-50">E</tspan><tspan class="cls-56" x="5.52" y="0">M</tspan><tspan x="15.31" y="0">U</tspan></text><polygon class="cls-45" points="150.02 58.16 250.44 58.16 250.44 99.79 150.02 99.79 150.02 58.16 150.02 58.16"/><text class="cls-32" transform="translate(176.96 132.25)"><tspan class="cls-59">P</tspan><tspan class="cls-62" x="6.11" y="0">e</tspan><tspan class="cls-48" x="11.63" y="0">r</tspan><tspan class="cls-54" x="15.31" y="0">i</tspan><tspan class="cls-34" x="17.76" y="0">p</tspan><tspan class="cls-63" x="23.89" y="0">h</tspan><tspan class="cls-46" x="30.01" y="0">e</tspan><tspan class="cls-64" x="35.52" y="0">r</tspan><tspan x="39.2" y="0">al</tspan></text><polygon class="cls-45" points="150.02 114.48 250.44 114.48 250.44 142.64 150.02 142.64 150.02 114.48 150.02 114.48"/><text class="cls-4" transform="translate(247.38 12.25)"><tspan class="cls-65">L</tspan><tspan class="cls-12" x="5.51" y="0">o</tspan><tspan class="cls-5" x="12.23" y="0">w</tspan><tspan class="cls-15" x="20.8" y="0">-</tspan><tspan class="cls-6" x="26.31" y="0">p</tspan><tspan class="cls-29" x="33.03" y="0">o</tspan><tspan class="cls-66" x="39.76" y="0">w</tspan><tspan class="cls-7" x="48.32" y="0">e</tspan><tspan class="cls-8" x="54.44" y="0">r</tspan><tspan class="cls-67" x="58.72" y="0"> </tspan><tspan class="cls-53" x="61.77" y="0">m</tspan><tspan class="cls-12" x="71.57" y="0">o</tspan><tspan class="cls-68" x="78.29" y="0">d</tspan><tspan class="cls-69" x="85.02" y="0">e</tspan><tspan class="cls-41" x="91.14" y="0"> </tspan><tspan class="cls-70" x="94.19" y="0">P</tspan><tspan class="cls-71" x="100.91" y="0">o</tspan><tspan class="cls-5" x="107.64" y="0">w</tspan><tspan class="cls-7" x="116.2" y="0">e</tspan><tspan class="cls-18" x="122.32" y="0">r</tspan><tspan class="cls-19" x="126.6" y="0"> </tspan><tspan class="cls-72" x="129.65" y="0">C</tspan><tspan class="cls-29" x="136.4" y="0">o</tspan><tspan class="cls-30" x="143.12" y="0">n</tspan><tspan class="cls-29" x="149.85" y="0">s</tspan><tspan class="cls-30" x="154.74" y="0">u</tspan><tspan class="cls-53" x="161.47" y="0">m</tspan><tspan class="cls-73" x="171.26" y="0">p</tspan><tspan class="cls-10" x="177.99" y="0">t</tspan><tspan class="cls-26" x="182.27" y="0">i</tspan><tspan class="cls-25" x="185.33" y="0">o</tspan><tspan x="192.05" y="0">n</tspan></text><polygon class="cls-45" points="1.23 1.22 692.54 1.22 692.54 15.3 1.23 15.3 1.23 1.22 1.23 1.22"/><line class="cls-74" x1="0.61" y1="0.61" x2="0.61"/><polyline class="cls-75" points="0.61 0.61 0.61 0 1.23 0 1.23 0.61 0.61 0.61"/><line class="cls-74" x1="692.54" y1="0.61" x2="692.54"/><polyline class="cls-75" points="692.54 0.61 692.54 0 693.15 0 693.15 0.61 692.54 0.61"/><line class="cls-74" x1="149.41" y1="0.61" x2="149.41"/><polyline class="cls-75" points="149.41 0.61 149.41 0 150.02 0 150.02 0.61 149.41 0.61"/><line class="cls-74" x1="250.44" y1="0.61" x2="250.44"/><polyline class="cls-75" points="250.44 0.61 250.44 0 251.05 0 251.05 0.61 250.44 0.61"/><line class="cls-74" x1="356.99" y1="0.61" x2="356.99"/><polyline class="cls-75" points="356.99 0.61 356.99 0 357.6 0 357.6 0.61 356.99 0.61"/><line class="cls-74" x1="480.06" y1="0.61" x2="480.06"/><polyline class="cls-75" points="480.06 0.61 480.06 0 480.68 0 480.68 0.61 480.06 0.61"/><line class="cls-74" x1="583.55" y1="0.61" x2="583.55"/><polyline class="cls-75" points="583.55 0.61 583.55 0 584.16 0 584.16 0.61 583.55 0.61"/><line class="cls-74" x1="1.22" y1="57.55" x2="148.8" y2="57.55"/><polyline class="cls-75" points="1.23 57.55 1.23 58.16 148.8 58.16 148.8 57.55 1.23 57.55"/><line class="cls-74" x1="150.02" y1="57.55" x2="691.93" y2="57.55"/><polyline class="cls-75" points="150.02 57.55 150.02 58.16 691.93 58.16 691.93 57.55 150.02 57.55"/><line class="cls-74" x1="250.44" y1="15.92" x2="250.44" y2="142.03"/><polyline class="cls-75" points="250.44 15.92 250.44 142.03 251.05 142.03 251.05 15.92 250.44 15.92"/><line class="cls-74" x1="356.99" y1="15.92" x2="356.99" y2="142.03"/><polyline class="cls-75" points="356.99 15.92 356.99 142.03 357.6 142.03 357.6 15.92 356.99 15.92"/><line class="cls-74" x1="480.06" y1="15.92" x2="480.06" y2="142.03"/><polyline class="cls-75" points="480.06 15.92 480.06 142.03 480.68 142.03 480.68 15.92 480.06 15.92"/><line class="cls-74" x1="583.55" y1="15.92" x2="583.55" y2="142.03"/><polyline class="cls-75" points="583.55 15.92 583.55 142.03 584.16 142.03 584.16 15.92 583.55 15.92"/><line class="cls-74" x1="1.22" y1="156.72" x2="148.8" y2="156.72"/><polyline class="cls-75" points="1.23 156.72 1.23 157.34 148.8 157.34 148.8 156.72 1.23 156.72"/><line class="cls-74" x1="250.44" y1="143.26" x2="250.44" y2="170.81"/><polyline class="cls-75" points="250.44 143.26 250.44 170.81 251.05 170.81 251.05 143.26 250.44 143.26"/><line class="cls-74" x1="356.99" y1="143.26" x2="356.99" y2="170.81"/><polyline class="cls-75" points="356.99 143.26 356.99 170.81 357.6 170.81 357.6 143.26 356.99 143.26"/><line class="cls-74" x1="480.06" y1="143.26" x2="480.06" y2="170.81"/><polyline class="cls-75" points="480.06 143.26 480.06 170.81 480.68 170.81 480.68 143.26 480.06 143.26"/><line class="cls-74" x1="583.55" y1="143.26" x2="583.55" y2="170.81"/><polyline class="cls-75" points="583.55 143.26 583.55 170.81 584.16 170.81 584.16 143.26 583.55 143.26"/><polyline class="cls-76" points="0 0 0 186.72 1.23 186.72 1.23 0 0 0"/><polyline class="cls-76" points="148.8 15.92 148.8 186.72 150.02 186.72 150.02 15.92 148.8 15.92"/><line class="cls-74" x1="250.44" y1="172.03" x2="250.44" y2="185.5"/><polyline class="cls-75" points="250.44 172.03 250.44 185.5 251.05 185.5 251.05 172.03 250.44 172.03"/><line class="cls-74" x1="356.99" y1="172.03" x2="356.99" y2="185.5"/><polyline class="cls-75" points="356.99 172.03 356.99 185.5 357.6 185.5 357.6 172.03 356.99 172.03"/><line class="cls-74" x1="480.06" y1="172.03" x2="480.06" y2="185.5"/><polyline class="cls-75" points="480.06 172.03 480.06 185.5 480.68 185.5 480.68 172.03 480.06 172.03"/><line class="cls-74" x1="583.55" y1="172.03" x2="583.55" y2="185.5"/><polyline class="cls-75" points="583.55 172.03 583.55 185.5 584.16 185.5 584.16 172.03 583.55 172.03"/><polyline class="cls-76" points="691.93 1.22 691.93 186.72 693.15 186.72 693.15 1.22 691.93 1.22"/><line class="cls-74" x1="0.61" y1="186.72" x2="0.61" y2="187.33"/><polyline class="cls-75" points="0.61 186.72 0.61 187.34 1.23 187.34 1.23 186.72 0.61 186.72"/><line class="cls-74" x1="149.41" y1="186.72" x2="149.41" y2="187.33"/><polyline class="cls-75" points="149.41 186.72 149.41 187.34 150.02 187.34 150.02 186.72 149.41 186.72"/><line class="cls-74" x1="250.44" y1="186.72" x2="250.44" y2="187.33"/><polyline class="cls-75" points="250.44 186.72 250.44 187.34 251.05 187.34 251.05 186.72 250.44 186.72"/><line class="cls-74" x1="356.99" y1="186.72" x2="356.99" y2="187.33"/><polyline class="cls-75" points="356.99 186.72 356.99 187.34 357.6 187.34 357.6 186.72 356.99 186.72"/><line class="cls-74" x1="480.06" y1="186.72" x2="480.06" y2="187.33"/><polyline class="cls-75" points="480.06 186.72 480.06 187.34 480.68 187.34 480.68 186.72 480.06 186.72"/><line class="cls-74" x1="583.55" y1="186.72" x2="583.55" y2="187.33"/><polyline class="cls-75" points="583.55 186.72 583.55 187.34 584.16 187.34 584.16 186.72 583.55 186.72"/><line class="cls-74" x1="692.54" y1="186.72" x2="692.54" y2="187.33"/><polyline class="cls-75" points="692.54 186.72 692.54 187.34 693.15 187.34 693.15 186.72 692.54 186.72"/><polyline class="cls-76" points="1.23 0 1.23 1.22 693.77 1.22 693.77 0 1.23 0"/><polyline class="cls-76" points="1.23 14.69 1.23 15.92 693.77 15.92 693.77 14.69 1.23 14.69"/><line class="cls-74" x1="693.15" y1="57.55" x2="693.77" y2="57.55"/><polyline class="cls-75" points="693.15 57.55 693.15 58.16 693.77 58.16 693.77 57.55 693.15 57.55"/><line class="cls-74" x1="251.05" y1="71.63" x2="691.93" y2="71.63"/><polyline class="cls-75" points="251.05 71.63 251.05 72.24 691.93 72.24 691.93 71.63 251.05 71.63"/><line class="cls-74" x1="251.05" y1="85.71" x2="691.93" y2="85.71"/><polyline class="cls-75" points="251.05 85.71 251.05 86.32 691.93 86.32 691.93 85.71 251.05 85.71"/><line class="cls-74" x1="150.02" y1="99.79" x2="691.93" y2="99.79"/><polyline class="cls-75" points="150.02 99.79 150.02 100.4 691.93 100.4 691.93 99.79 150.02 99.79"/><line class="cls-74" x1="150.02" y1="113.87" x2="691.93" y2="113.87"/><polyline class="cls-75" points="150.02 113.87 150.02 114.48 691.93 114.48 691.93 113.87 150.02 113.87"/><line class="cls-74" x1="251.05" y1="127.95" x2="691.93" y2="127.95"/><polyline class="cls-75" points="251.05 127.95 251.05 128.56 691.93 128.56 691.93 127.95 251.05 127.95"/><polyline class="cls-76" points="1.23 142.03 1.23 143.26 693.15 143.26 693.15 142.03 1.23 142.03"/><line class="cls-74" x1="150.02" y1="156.72" x2="691.93" y2="156.72"/><polyline class="cls-75" points="150.02 156.72 150.02 157.34 691.93 157.34 691.93 156.72 150.02 156.72"/><polyline class="cls-76" points="1.23 170.81 1.23 172.03 693.15 172.03 693.15 170.81 1.23 170.81"/><polyline class="cls-76" points="1.23 185.5 1.23 186.72 693.77 186.72 693.77 185.5 1.23 185.5"/><polygon class="cls-45" points="1.23 1.22 693.15 1.22 693.15 186.72 1.23 186.72 1.23 1.22 1.23 1.22"/><polygon class="cls-45" points="1.23 1.22 693.15 1.22 693.15 186.72 1.23 186.72 1.23 1.22 1.23 1.22"/></svg>