<svg id="图层_1" data-name="图层 1" xmlns="http://www.w3.org/2000/svg" xmlns:xlink="http://www.w3.org/1999/xlink" viewBox="0 0 1875.406 906.455"><defs><style>.cls-1,.cls-10,.cls-11,.cls-12,.cls-13,.cls-6,.cls-7,.cls-8,.cls-9{fill:none;}.cls-1,.cls-10,.cls-11,.cls-12,.cls-13,.cls-2,.cls-3,.cls-7,.cls-8,.cls-9{stroke:#000;}.cls-1,.cls-2,.cls-3,.cls-4,.cls-6,.cls-7{stroke-miterlimit:10;}.cls-1,.cls-10,.cls-11,.cls-12,.cls-2,.cls-3,.cls-8,.cls-9{stroke-width:2px;}.cls-2{fill:#eafaff;}.cls-3{fill:#f4fff5;}.cls-4{fill:#ffe9f0;}.cls-4,.cls-6{stroke:#c7b299;}.cls-5{font-size:20px;font-family:MicrosoftPhagsPa, Microsoft PhagsPa;}.cls-10,.cls-11,.cls-12,.cls-13,.cls-8,.cls-9{stroke-linejoin:round;}.cls-9{stroke-dasharray:12 12;}.cls-10{stroke-dasharray:11.131 11.131;}.cls-11{stroke-dasharray:12;}.cls-12,.cls-13{stroke-linecap:round;}</style><symbol id="箭头" data-name="箭头" viewBox="0 0 118.872 18.498"><path class="cls-1" d="M0,9.249H0Z"/><path class="cls-1" d="M118.244,9.249,107.744.778Z"/><path class="cls-1" d="M118.244,9.249l-10.5,8.471Z"/></symbol></defs><rect class="cls-2" x="1" y="1" width="1873.406" height="904.455"/><rect class="cls-3" x="126.48" y="346.446" width="1646.21" height="491" rx="12"/><rect class="cls-4" x="126.51" y="86.563" width="1646.353" height="179" rx="16.129"/><ellipse class="cls-1" cx="837.84" cy="176.7" rx="78" ry="47.5"/><text class="cls-5" transform="translate(795.541 182.702)">GPIO Init.</text><use width="118.872" height="18.498" transform="translate(364.414 167.201)" xlink:href="#箭头"/><text class="cls-5" transform="translate(378.69 167.16)">Done </text><circle cx="65.863" cy="91.384" r="9.125"/><use width="118.872" height="18.498" transform="translate(69.918 84.053) rotate(30)" xlink:href="#箭头"/><ellipse class="cls-1" cx="1113.488" cy="176.063" rx="78" ry="47.5"/><text class="cls-5" transform="translate(1054.488 182.065)">Apptimer Init.</text><text class="cls-5" transform="translate(23.371 75.986)">Power On </text><ellipse class="cls-1" cx="256.957" cy="176.7" rx="105.775" ry="47.5"/><path class="cls-1" d="M661.18,247.976h0Z" transform="translate(-20.33 -71.08)"/><path class="cls-1" d="M779.718,247.976l-10.527-8.47Z" transform="translate(-20.33 -71.08)"/><path class="cls-1" d="M779.718,247.976l-10.527,8.471Z" transform="translate(-20.33 -71.08)"/><text class="cls-5" transform="translate(170.694 176.869)">Power Management<tspan x="72.656" y="24">Init.</tspan></text><text x="-20.33" y="-71.08"/><text class="cls-5" transform="translate(652.244 167.594)">Done </text><use width="118.872" height="18.498" transform="translate(917.905 166.814)" xlink:href="#箭头"/><text class="cls-5" transform="translate(925.905 166.761)">Done </text><text class="cls-5" transform="translate(496.368 182.849)">SoftDevice Init.</text><ellipse class="cls-1" cx="562.398" cy="176.7" rx="78" ry="47.5"/><use width="118.872" height="18.498" transform="translate(1192.393 166.814)" xlink:href="#箭头"/><ellipse class="cls-1" cx="1389.137" cy="176.063" rx="78" ry="47.5"/><text class="cls-5" transform="translate(1352.892 182.849)">FDS Init.</text><text class="cls-5" transform="translate(1205.095 166.761)">Done </text><ellipse class="cls-1" cx="1663.753" cy="176.063" rx="78" ry="47.5"/><use width="118.872" height="18.498" transform="translate(1466.881 166.871)" xlink:href="#箭头"/><text class="cls-5" transform="translate(1479.584 166.818)">Done </text><text class="cls-5" transform="translate(1606.097 182.849)">LPCOMP Init.</text><rect class="cls-6" x="126.605" y="53.384" width="137.258" height="33.179" rx="12"/><text class="cls-5" transform="translate(178.936 75.986)">Init. </text><text class="cls-5" transform="translate(1460.524 366.163)">Power Management State</text><text class="cls-5" transform="translate(1672.225 255.412)">Done </text><rect class="cls-6" x="126.605" y="312.205" width="137.258" height="33.179" rx="12"/><text class="cls-5" transform="translate(136.15 334.159)">State Handle</text><path class="cls-7" d="M1475.633,418.527v0Z" transform="translate(-20.33 -71.08)"/><ellipse class="cls-1" cx="1660.378" cy="599.226" rx="66.086" ry="33.884"/><text class="cls-5" transform="translate(1623.68 596.066)">LPCOMP<tspan x="9.282" y="24">Enable</tspan></text><ellipse class="cls-1" cx="1554.024" cy="450.137" rx="66.086" ry="33.884"/><text class="cls-5" transform="translate(1513.892 446.416)">Enter PM<tspan x="14.175" y="24">Mode</tspan></text><ellipse class="cls-1" cx="1554.024" cy="735.962" rx="66.086" ry="33.884"/><text class="cls-5" transform="translate(1515.206 728.907)">Interrupt <tspan x="12.148" y="24">Check</tspan></text><path class="cls-1" d="M1574.354,555.1" transform="translate(-20.33 -71.08)"/><path class="cls-1" d="M1574.354,555.1" transform="translate(-20.33 -71.08)"/><path class="cls-1" d="M1750.245,272.31c34.258,30.667,27.072,112.488.389,146.347" transform="translate(-20.33 -71.08)"/><path class="cls-7" d="M1762.083,247.143" transform="translate(-20.33 -71.08)"/><ellipse class="cls-1" cx="1294.563" cy="735.137" rx="66.086" ry="33.884"/><text class="cls-5" transform="translate(1259.428 741.987)">EPD Init.</text><ellipse class="cls-1" cx="1056.339" cy="735.137" rx="66.086" ry="33.884"/><text class="cls-5" transform="translate(1030.548 729.687)">Game<tspan x="-21.45" y="24">Processing</tspan></text><path class="cls-1" d="M1248.807,806.218h0Z" transform="translate(-20.33 -71.08)"/><path class="cls-1" d="M1143.383,806.218l10.5-8.471Z" transform="translate(-20.33 -71.08)"/><path class="cls-1" d="M1143.383,806.218l10.5,8.47Z" transform="translate(-20.33 -71.08)"/><ellipse class="cls-1" cx="818.582" cy="735.137" rx="66.086" ry="33.884"/><text class="cls-5" transform="translate(779.085 732.187)">Last Img.<tspan x="12.046" y="24">SPI TX</tspan></text><path class="cls-1" d="M1010.5,806.218h0Z" transform="translate(-20.33 -71.08)"/><path class="cls-1" d="M905.079,806.218l10.5-8.471Z" transform="translate(-20.33 -71.08)"/><path class="cls-1" d="M905.079,806.218l10.5,8.47Z" transform="translate(-20.33 -71.08)"/><path class="cls-1" d="M772.78,806.218h0Z" transform="translate(-20.33 -71.08)"/><path class="cls-1" d="M667.356,806.218l10.5-8.471Z" transform="translate(-20.33 -71.08)"/><path class="cls-1" d="M667.356,806.218l10.5,8.47Z" transform="translate(-20.33 -71.08)"/><ellipse class="cls-1" cx="580.94" cy="735.137" rx="66.086" ry="33.884"/><text class="cls-5" transform="translate(558.645 729.687)">Flash<tspan x="-18.789" y="24">Updating</tspan></text><path class="cls-1" d="M535.1,806.218h0Z" transform="translate(-20.33 -71.08)"/><path class="cls-1" d="M429.68,806.218l10.5-8.471Z" transform="translate(-20.33 -71.08)"/><path class="cls-1" d="M429.68,806.218l10.5,8.47Z" transform="translate(-20.33 -71.08)"/><ellipse class="cls-1" cx="343.264" cy="735.137" rx="66.086" ry="33.884"/><text class="cls-5" transform="translate(320.969 729.687)">Flash<tspan x="9.243" y="24">GC</tspan></text><ellipse class="cls-1" cx="352.264" cy="450.196" rx="66.086" ry="33.884"/><text class="cls-5" transform="translate(310.257 447.246)">New Img.<tspan x="14.556" y="24">SPI TX</tspan></text><path class="cls-1" d="M298,806c-126-2-117.734-285,9-285" transform="translate(-20.33 -71.08)"/><path class="cls-1" d="M306.427,521.482l-10.5,10.5Z" transform="translate(-20.33 -71.08)"/><path class="cls-1" d="M306.427,521.482l-10.5-10.5Z" transform="translate(-20.33 -71.08)"/><ellipse class="cls-1" cx="589.94" cy="450.196" rx="66.086" ry="33.884"/><text class="cls-5" transform="translate(572.269 444.746)">EPD<tspan x="-23.413" y="24">Updating</tspan></text><path class="cls-1" d="M438.68,523.776h0Z" transform="translate(-20.33 -71.08)"/><path class="cls-1" d="M544.1,523.776,533.6,515.3Z" transform="translate(-20.33 -71.08)"/><path class="cls-1" d="M544.1,523.776l-10.5,8.471Z" transform="translate(-20.33 -71.08)"/><path class="cls-1" d="M676.356,523.776h0Z" transform="translate(-20.33 -71.08)"/><path class="cls-1" d="M781.78,523.776l-10.5-8.471Z" transform="translate(-20.33 -71.08)"/><path class="cls-1" d="M781.78,523.776l-10.5,8.471Z" transform="translate(-20.33 -71.08)"/><circle cx="1680.96" cy="397.9" r="9.125"/><path class="cls-1" d="M1701.1,468.981l-65.573,37.483Z" transform="translate(-20.33 -71.08)"/><ellipse class="cls-1" cx="1065.342" cy="452.362" rx="66.086" ry="33.884"/><text class="cls-5" transform="translate(1018.889 456.712)">EPD unInit.</text><path class="cls-1" d="M1507.836,522.943l-10.5-8.471Z" transform="translate(-20.33 -71.08)"/><path class="cls-1" d="M1507.836,522.943l-10.5,8.471Z" transform="translate(-20.33 -71.08)"/><ellipse class="cls-1" cx="1298.137" cy="620.342" rx="66.086" ry="33.884"/><text class="cls-5" transform="translate(1258.005 616.621)">Enter PM<tspan x="14.175" y="24">Mode</tspan></text><ellipse class="cls-1" cx="818.582" cy="620.342" rx="66.086" ry="33.884"/><text class="cls-5" transform="translate(778.45 618.872)">Enter PM<tspan x="14.175" y="24">Mode</tspan></text><ellipse class="cls-1" cx="827.582" cy="453.05" rx="66.086" ry="33.884"/><text class="cls-5" transform="translate(778.168 447.599)">Waiting for<tspan x="25.972" y="24">BUSY</tspan></text><path class="cls-1" d="M914.079,523.776h0Z" transform="translate(-20.33 -71.08)"/><path class="cls-1" d="M1019.5,523.776,1009,515.3Z" transform="translate(-20.33 -71.08)"/><path class="cls-1" d="M1019.5,523.776l-10.5,8.471Z" transform="translate(-20.33 -71.08)"/><path class="cls-1" d="M1367.126,785.329c47.734-15.856,45.341-59.122,7.4-76.856" transform="translate(-20.33 -71.08)"/><path class="cls-1" d="M1265.705,783.62c-47.067-19.023-38.861-55.314-.92-73.049" transform="translate(-20.33 -71.08)"/><path class="cls-1" d="M1264.429,711.352l-5.117,12.483Z" transform="translate(-20.33 -71.08)"/><path class="cls-1" d="M1264.429,711.352l-13.282-2.361Z" transform="translate(-20.33 -71.08)"/><path class="cls-1" d="M1368.381,785.437l5.117-12.483Z" transform="translate(-20.33 -71.08)"/><path class="cls-1" d="M1368.381,785.437l13.283,2.361Z" transform="translate(-20.33 -71.08)"/><path class="cls-1" d="M786.982,785.641c-47.067-19.024-36.9-54.5,1.041-72.233" transform="translate(-20.33 -71.08)"/><path class="cls-1" d="M788.668,713.189l-5.117,12.483Z" transform="translate(-20.33 -71.08)"/><path class="cls-1" d="M788.668,713.189l-13.283-2.361Z" transform="translate(-20.33 -71.08)"/><path class="cls-1" d="M890.356,784.6c47.734-15.857,45.342-59.122,7.4-76.857" transform="translate(-20.33 -71.08)"/><path class="cls-1" d="M891.611,784.71l5.117-12.483Z" transform="translate(-20.33 -71.08)"/><path class="cls-1" d="M891.611,784.71l13.283,2.361Z" transform="translate(-20.33 -71.08)"/><ellipse class="cls-1" cx="349.599" cy="562.593" rx="66.086" ry="33.884"/><text class="cls-5" transform="translate(312.132 561.124)">Enter PM<tspan x="14.175" y="24">Mode</tspan></text><path class="cls-1" d="M317.375,613.234c-47.067-19.024-38.861-55.315-.92-73.05" transform="translate(-20.33 -71.08)"/><path class="cls-1" d="M317.1,539.966l-5.117,12.483Z" transform="translate(-20.33 -71.08)"/><path class="cls-1" d="M317.1,539.966l-13.283-2.361Z" transform="translate(-20.33 -71.08)"/><path class="cls-1" d="M422.007,613.234c44.392-15.581,42.167-58.092,6.882-75.518" transform="translate(-20.33 -71.08)"/><path class="cls-1" d="M422.732,613.665l5.117-12.483Z" transform="translate(-20.33 -71.08)"/><path class="cls-1" d="M422.732,613.665l13.282,2.361Z" transform="translate(-20.33 -71.08)"/><text class="cls-5" transform="translate(1643.351 511.002)">Done </text><text class="cls-5" transform="translate(1499.1 642.508) rotate(-90)">NOT reaching <tspan x="19.213" y="24">threshold</tspan></text><path class="cls-1" d="M1534.56,548.969c-58.927,66.73-55.7,162.829,0,231.022" transform="translate(-20.33 -71.08)"/><path class="cls-1" d="M1534.56,548.357l-13.186,2.851Z" transform="translate(-20.33 -71.08)"/><path class="cls-1" d="M1534.56,548.357l0,13.49Z" transform="translate(-20.33 -71.08)"/><path class="cls-1" d="M1625.061,542.948c25.814,21.83,47.382,49.7,50.906,92.688" transform="translate(-20.33 -71.08)"/><path class="cls-1" d="M1676.161,635.636l6.227-11.968Z" transform="translate(-20.33 -71.08)"/><path class="cls-1" d="M1676.161,635.636l-10.38-8.617Z" transform="translate(-20.33 -71.08)"/><path class="cls-1" d="M1676.161,704.191c-1.635,49.607-41.635,75.8-51.063,80.044" transform="translate(-20.33 -71.08)"/><path class="cls-1" d="M1625.1,784.579l13.488.3Z" transform="translate(-20.33 -71.08)"/><path class="cls-1" d="M1625.1,784.579l3.149-13.118Z" transform="translate(-20.33 -71.08)"/><text class="cls-5" transform="translate(1393.542 577.92) rotate(90)">spi_xfer_done</text><text class="cls-5" transform="translate(667.415 444.513)">Done </text><text class="cls-5" transform="translate(1138.032 436.513)">Done </text><text class="cls-5" transform="translate(911.486 566.328) rotate(90)">spi_xfer_done</text><text class="cls-5" transform="translate(937.939 724.368)">Done </text><text class="cls-5" transform="translate(457.54 724.629)">Done </text><text class="cls-5" transform="translate(224.864 708.302)">Done </text><text class="cls-5" transform="translate(419.35 442.513)">TX Finished</text><text class="cls-5" transform="matrix(0, -1, 1, 0, 257.529, 618.397)">spi_xfer_done</text><text class="cls-5" transform="translate(888.923 415.091)">BUSY = LOW<tspan x="23.484" y="24">Interrupt</tspan></text><text class="cls-5" transform="translate(133.698 366.163)">Active State</text><text class="cls-5" transform="translate(1644.568 762.243) rotate(-57.398)">LPCOMP Interrupt</text><text class="cls-5" transform="translate(716.274 683.757) rotate(-90)">TX not Finished</text><text class="cls-5" transform="translate(1201.923 692.757) rotate(-90)">TX not Finished</text><text class="cls-5" transform="translate(448.09 488.671) rotate(90)">TX not Finished</text><text class="cls-5" transform="translate(652.276 724.629)">TX Finished</text><text class="cls-5" transform="translate(1129.031 724.629)">TX Finished</text><path class="cls-1" d="M1751.664,416.941l13.148-3.019Z" transform="translate(-20.33 -71.08)"/><path class="cls-1" d="M1751.664,416.941l-.17-13.49Z" transform="translate(-20.33 -71.08)"/><path class="cls-1" d="M1634.818,507.293l13.411,1.463Z" transform="translate(-20.33 -71.08)"/><path class="cls-1" d="M1634.818,507.293l4.266-12.8Z" transform="translate(-20.33 -71.08)"/><path class="cls-7" d="M.033,123.438" transform="translate(-20.33 -71.08)"/><line class="cls-1" x1="1131.428" y1="452.362" x2="1487.67" y2="451.92"/><line class="cls-1" x1="1487.938" y1="735.962" x2="1361.334" y2="735.962"/><path class="cls-1" d="M1381.926,807.624l10.251-8.77Z" transform="translate(-20.33 -71.08)"/><path class="cls-1" d="M1381.926,807.624l10.74,8.164Z" transform="translate(-20.33 -71.08)"/><text class="cls-5" transform="translate(1384.349 758.067)">Reaching <tspan x="0" y="24">threshold</tspan></text><line class="cls-8" x1="1455.304" y1="370.87" x2="1461.304" y2="370.87"/><path class="cls-9" d="M1493.634,441.95h215A11.151,11.151,0,0,0,1720,431.021v-1.494" transform="translate(-20.33 -71.08)"/><line class="cls-8" x1="1699.665" y1="352.446" x2="1699.662" y2="346.446"/><line class="cls-8" x1="126.67" y1="369.92" x2="132.67" y2="369.902"/><path class="cls-10" d="M164.131,440.95l108.568-.315a11.152,11.152,0,0,0,11.369-10.929v-1.929" transform="translate(-20.33 -71.08)"/><line class="cls-8" x1="263.733" y1="351.131" x2="263.729" y2="345.131"/><path class="cls-11" d="M85.623,163.143" transform="translate(-20.33 -71.08)"/><line class="cls-12" x1="65.293" y1="92.063" x2="167.695" y2="150.592"/><line class="cls-12" x1="362.732" y1="176.7" x2="484.398" y2="176.7"/><path class="cls-12" d="M660.728,247.781c3.272.219,118.99.195,118.99.195" transform="translate(-20.33 -71.08)"/><line class="cls-12" x1="915.84" y1="176.7" x2="1036.149" y2="176.063"/><line class="cls-12" x1="1192.393" y1="176.063" x2="1311.137" y2="176.063"/><line class="cls-12" x1="1466.881" y1="176.12" x2="1585.125" y2="176.12"/><line class="cls-12" x1="1680.77" y1="397.9" x2="1614.488" y2="436.213"/><line class="cls-12" x1="999.173" y1="452.696" x2="893.749" y2="452.696"/><polyline class="cls-12" points="760.882 450.786 761.45 452.696 656.026 452.696"/><line class="cls-12" x1="523.774" y1="452.696" x2="418.35" y2="452.696"/><line class="cls-12" x1="409.35" y1="735.137" x2="514.774" y2="735.137"/><line class="cls-12" x1="647.026" y1="735.137" x2="752.45" y2="735.137"/><line class="cls-12" x1="884.749" y1="735.137" x2="990.173" y2="735.137"/><line class="cls-12" x1="1123.053" y1="735.137" x2="1228.477" y2="735.137"/><line class="cls-13" x1="1455.304" y1="347.446" x2="1455.304" y2="838.446"/></svg>