<svg id="图层_1" data-name="图层 1" xmlns="http://www.w3.org/2000/svg" viewBox="0 0 1875.406 906.455"><defs><style>.cls-1{fill:#eafaff;}.cls-1,.cls-2,.cls-4,.cls-7,.cls-8{stroke:#000;}.cls-1,.cls-2,.cls-3,.cls-4,.cls-6,.cls-7{stroke-miterlimit:10;}.cls-1,.cls-2,.cls-4,.cls-8{stroke-width:2px;}.cls-2{fill:#f4fff5;}.cls-3{fill:#ffe9f0;}.cls-3,.cls-6{stroke:#c7b299;}.cls-4,.cls-6,.cls-7,.cls-8{fill:none;}.cls-5{font-size:20px;font-family:MicrosoftPhagsPa, Microsoft PhagsPa;}.cls-8{stroke-linejoin:round;stroke-dasharray:10;}</style></defs><rect class="cls-1" x="1" y="1" width="1873.406" height="904.455"/><rect class="cls-2" x="210.997" y="343.176" width="1490.136" height="491" rx="11.417"/><rect class="cls-3" x="145.952" y="82.292" width="1646.353" height="179" rx="16.129"/><ellipse class="cls-4" cx="857.282" cy="172.43" rx="78" ry="47.5"/><text class="cls-5" transform="translate(814.983 178.432)">GPIO Init.</text><path class="cls-4" d="M515.1,262.223l-10.5-8.471Z" transform="translate(-13.003 -90.043)"/><path class="cls-4" d="M515.1,262.223l-10.5,8.47Z" transform="translate(-13.003 -90.043)"/><text class="cls-5" transform="translate(398.132 162.889)">Done </text><circle cx="85.305" cy="87.113" r="9.125"/><ellipse class="cls-4" cx="1132.93" cy="171.792" rx="78" ry="47.5"/><text class="cls-5" transform="translate(1073.93 177.794)">Apptimer Init.</text><text class="cls-5" transform="translate(42.813 71.715)">Power On </text><ellipse class="cls-4" cx="276.399" cy="172.43" rx="105.775" ry="47.5"/><path class="cls-4" d="M791.833,262.669,781.307,254.2Z" transform="translate(-13.003 -90.043)"/><path class="cls-4" d="M791.833,262.669l-10.526,8.47Z" transform="translate(-13.003 -90.043)"/><text class="cls-5" transform="translate(190.136 172.598)">Power Management<tspan x="72.656" y="24">Init.</tspan></text><text x="-13.003" y="-90.043"/><text class="cls-5" transform="translate(671.686 163.323)">Done </text><path class="cls-4" d="M1068.594,261.836l-10.5-8.471Z" transform="translate(-13.003 -90.043)"/><path class="cls-4" d="M1068.594,261.836l-10.5,8.47Z" transform="translate(-13.003 -90.043)"/><text class="cls-5" transform="translate(945.347 162.49)">Done </text><text class="cls-5" transform="translate(515.81 178.578)">SoftDevice Init.</text><ellipse class="cls-4" cx="581.84" cy="172.43" rx="78" ry="47.5"/><path class="cls-4" d="M1343.082,261.836l-10.5-8.471Z" transform="translate(-13.003 -90.043)"/><path class="cls-4" d="M1343.082,261.836l-10.5,8.47Z" transform="translate(-13.003 -90.043)"/><ellipse class="cls-4" cx="1408.579" cy="171.792" rx="78" ry="47.5"/><text class="cls-5" transform="translate(1367.481 178.578)">Fram Init.</text><text class="cls-5" transform="translate(1224.537 162.49)">Done </text><ellipse class="cls-4" cx="1683.195" cy="171.792" rx="78" ry="47.5"/><path class="cls-4" d="M1617.57,261.892l-10.5-8.47Z" transform="translate(-13.003 -90.043)"/><path class="cls-4" d="M1617.57,261.892l-10.5,8.471Z" transform="translate(-13.003 -90.043)"/><text class="cls-5" transform="translate(1499.026 162.547)">Done </text><text class="cls-5" transform="translate(1625.539 178.578)">LPCOMP Init.</text><rect class="cls-6" x="146.047" y="49.113" width="137.258" height="33.179" rx="12"/><text class="cls-5" transform="translate(198.378 71.715)">Init. </text><text class="cls-5" transform="translate(1388.966 365.893)">Power Management State</text><text class="cls-5" transform="translate(1691.667 251.141)">Done </text><rect class="cls-6" x="210.047" y="308.934" width="137.258" height="33.179" rx="12"/><text class="cls-5" transform="translate(219.592 330.888)">State Handle</text><ellipse class="cls-4" cx="1588.82" cy="595.956" rx="66.086" ry="33.884"/><text class="cls-5" transform="translate(1552.122 592.796)">LPCOMP<tspan x="9.282" y="24">Enable</tspan></text><ellipse class="cls-4" cx="1482.466" cy="446.867" rx="66.086" ry="33.884"/><text class="cls-5" transform="translate(1442.334 443.146)">Enter PM<tspan x="14.175" y="24">Mode</tspan></text><ellipse class="cls-4" cx="1482.466" cy="732.691" rx="66.086" ry="33.884"/><text class="cls-5" transform="translate(1443.648 725.637)">Interrupt<tspan x="12.148" y="24">Check</tspan></text><path class="cls-4" d="M1495.469,570.794" transform="translate(-13.003 -90.043)"/><path class="cls-4" d="M1495.469,570.794" transform="translate(-13.003 -90.043)"/><path class="cls-4" d="M1762.36,287C1806,368,1762,425,1710,436" transform="translate(-13.003 -90.043)"/><path class="cls-7" d="M1774.2,261.836" transform="translate(-13.003 -90.043)"/><ellipse class="cls-4" cx="1229.005" cy="784.867" rx="66.086" ry="33.884"/><path class="cls-4" d="M1308,875c65.906.09,107-6,136-31" transform="translate(-13.003 -90.043)"/><line class="cls-4" x1="1297.091" y1="784.867" x2="1306.805" y2="775.113"/><line class="cls-4" x1="1297.091" y1="784.867" x2="1306.805" y2="794.62"/><text class="cls-5" transform="translate(1193.87 791.717)">EPD Init.</text><ellipse class="cls-4" cx="990.781" cy="784.867" rx="66.086" ry="33.884"/><text class="cls-5" transform="translate(964.99 779.416)">Game<tspan x="-21.45" y="24">Processing</tspan></text><path class="cls-4" d="M1070.5,874.91l10.5-8.471Z" transform="translate(-13.003 -90.043)"/><path class="cls-4" d="M1070.5,874.91l10.5,8.471Z" transform="translate(-13.003 -90.043)"/><ellipse class="cls-4" cx="753.024" cy="784.867" rx="66.086" ry="33.884"/><text class="cls-5" transform="translate(713.527 781.916)">Last Img.<tspan x="12.046" y="24">SPI TX</tspan></text><path class="cls-4" d="M832.194,874.91l10.5-8.471Z" transform="translate(-13.003 -90.043)"/><path class="cls-4" d="M832.194,874.91l10.5,8.471Z" transform="translate(-13.003 -90.043)"/><path class="cls-4" d="M594.471,874.91l10.5-8.471Z" transform="translate(-13.003 -90.043)"/><path class="cls-4" d="M594.471,874.91l10.5,8.471Z" transform="translate(-13.003 -90.043)"/><ellipse class="cls-4" cx="515.382" cy="784.867" rx="66.086" ry="33.884"/><text class="cls-5" transform="translate(493.321 779.416)">Fram<tspan x="-19.023" y="24">Updating</tspan></text><ellipse class="cls-4" cx="490.706" cy="446.925" rx="66.086" ry="33.884"/><text class="cls-5" transform="translate(448.699 443.975)">New Img.<tspan x="14.556" y="24">SPI TX</tspan></text><path class="cls-4" d="M461,870c-173-65-133-306-23.458-331.633" transform="translate(-13.003 -90.043)"/><path class="cls-4" d="M437.542,538.367l-10.5,8.471Z" transform="translate(-13.003 -90.043)"/><path class="cls-4" d="M437.542,538.367l-10.5-8.471Z" transform="translate(-13.003 -90.043)"/><ellipse class="cls-4" cx="728.382" cy="446.925" rx="66.086" ry="33.884"/><text class="cls-5" transform="translate(710.711 441.475)">EPD<tspan x="-23.413" y="24">Updating</tspan></text><path class="cls-4" d="M675.219,539.468l-10.5-8.47Z" transform="translate(-13.003 -90.043)"/><path class="cls-4" d="M675.219,539.468l-10.5,8.471Z" transform="translate(-13.003 -90.043)"/><path class="cls-4" d="M912.9,539.468,902.4,531Z" transform="translate(-13.003 -90.043)"/><path class="cls-4" d="M912.9,539.468l-10.5,8.471Z" transform="translate(-13.003 -90.043)"/><circle cx="1609.402" cy="394.63" r="9.125"/><path class="cls-4" d="M1622.215,484.673l-65.573,37.484Z" transform="translate(-13.003 -90.043)"/><ellipse class="cls-4" cx="1203.784" cy="449.092" rx="66.086" ry="33.884"/><text class="cls-5" transform="translate(1157.331 453.442)">EPD unInit.</text><path class="cls-4" d="M1428.952,539l-10.5-8.471Z" transform="translate(-13.003 -90.043)"/><path class="cls-4" d="M1428.952,539l-10.5,8.471Z" transform="translate(-13.003 -90.043)"/><ellipse class="cls-4" cx="1230.579" cy="669.071" rx="66.086" ry="33.884"/><text class="cls-5" transform="translate(1190.447 665.35)">Enter PM<tspan x="14.175" y="24">Mode</tspan></text><ellipse class="cls-4" cx="750.024" cy="668.071" rx="66.086" ry="33.884"/><text class="cls-5" transform="translate(709.892 666.602)">Enter PM<tspan x="14.175" y="24">Mode</tspan></text><ellipse class="cls-4" cx="966.024" cy="449.779" rx="66.086" ry="33.884"/><text class="cls-5" transform="translate(916.61 444.329)">Waiting for<tspan x="25.972" y="24">BUSY</tspan></text><path class="cls-4" d="M1150.618,539.468l-10.5-8.47Z" transform="translate(-13.003 -90.043)"/><path class="cls-4" d="M1150.618,539.468l-10.5,8.471Z" transform="translate(-13.003 -90.043)"/><path class="cls-4" d="M1293.242,854.022c47.733-15.857,45.341-59.122,7.4-76.857" transform="translate(-13.003 -90.043)"/><path class="cls-4" d="M1190.82,853.313c-47.066-19.024-38.861-55.315-.92-73.05" transform="translate(-13.003 -90.043)"/><path class="cls-4" d="M1190.545,780.045l-5.117,12.482Z" transform="translate(-13.003 -90.043)"/><path class="cls-4" d="M1190.545,780.045l-13.283-2.361Z" transform="translate(-13.003 -90.043)"/><path class="cls-4" d="M1294.5,854.129l5.117-12.483Z" transform="translate(-13.003 -90.043)"/><path class="cls-4" d="M1294.5,854.129l13.282,2.361Z" transform="translate(-13.003 -90.043)"/><path class="cls-4" d="M717,852c-41-15-41.8-53.165-3.861-70.9" transform="translate(-13.003 -90.043)"/><path class="cls-4" d="M713.783,780.882l-5.117,12.482Z" transform="translate(-13.003 -90.043)"/><path class="cls-4" d="M713.783,780.882,700.5,778.521Z" transform="translate(-13.003 -90.043)"/><path class="cls-4" d="M815.472,852.3C863.205,836.438,857.941,792.735,820,775" transform="translate(-13.003 -90.043)"/><path class="cls-4" d="M816.727,852.4l5.117-12.483Z" transform="translate(-13.003 -90.043)"/><path class="cls-4" d="M816.727,852.4l13.282,2.361Z" transform="translate(-13.003 -90.043)"/><ellipse class="cls-4" cx="489.041" cy="562.323" rx="66.086" ry="33.884"/><text class="cls-5" transform="translate(451.574 560.853)">Enter PM<tspan x="14.175" y="24">Mode</tspan></text><path class="cls-4" d="M448.49,630.926c-47.066-19.024-38.861-55.314-.92-73.049" transform="translate(-13.003 -90.043)"/><path class="cls-4" d="M448.215,557.658,443.1,570.141Z" transform="translate(-13.003 -90.043)"/><path class="cls-4" d="M448.215,557.658,434.932,555.3Z" transform="translate(-13.003 -90.043)"/><path class="cls-4" d="M553.122,630.926c44.392-15.581,42.168-58.092,6.882-75.517" transform="translate(-13.003 -90.043)"/><path class="cls-4" d="M553.847,631.357l5.117-12.483Z" transform="translate(-13.003 -90.043)"/><path class="cls-4" d="M553.847,631.357l13.283,2.361Z" transform="translate(-13.003 -90.043)"/><text class="cls-5" transform="translate(1571.793 507.731)">Done </text><path class="cls-4" d="M1546.176,558.64c25.814,21.83,47.382,49.7,50.906,92.688" transform="translate(-13.003 -90.043)"/><path class="cls-4" d="M1597.276,651.328l6.227-11.968Z" transform="translate(-13.003 -90.043)"/><path class="cls-4" d="M1597.276,651.328l-10.38-8.617Z" transform="translate(-13.003 -90.043)"/><path class="cls-4" d="M1597.276,719.883c-1.634,49.607-41.634,75.8-51.062,80.044" transform="translate(-13.003 -90.043)"/><path class="cls-4" d="M1546.214,800.271l13.487.3Z" transform="translate(-13.003 -90.043)"/><path class="cls-4" d="M1546.214,800.271l3.148-13.118Z" transform="translate(-13.003 -90.043)"/><text class="cls-5" transform="translate(805.857 435.242)">Done </text><text class="cls-5" transform="translate(1276.474 435.242)">Done </text><text class="cls-5" transform="translate(851.023 616.124) rotate(90)">spi_xfer_done</text><text class="cls-5" transform="translate(867.381 774.358)">Done </text><text class="cls-5" transform="translate(401.982 757.358)">Done </text><text class="cls-5" transform="translate(556.792 435.243)">TX Finished</text><text class="cls-5" transform="translate(393.91 600.972) rotate(-90)">spi_xfer_done</text><text class="cls-5" transform="translate(1022.365 417.821)">BUSY = LOW<tspan x="23.484" y="24">Interrupt</tspan></text><text class="cls-5" transform="translate(218.09 365.893)">Active State</text><text class="cls-5" transform="translate(1571.01 758.972) rotate(-57.398)">LPCOMP Interrupt</text><text class="cls-5" transform="translate(659.685 737.386) rotate(-90)">TX not Finished</text><text class="cls-5" transform="translate(1139.335 737.386) rotate(-90)">TX not Finished</text><text class="cls-5" transform="translate(584.536 468.366) rotate(90)">TX not Finished</text><text class="cls-5" transform="translate(586.718 774.358)">TX Finished</text><text class="cls-5" transform="translate(1063.473 774.358)">TX Finished</text><path class="cls-4" d="M1709.933,435.57l11.8,6.54Z" transform="translate(-13.003 -90.043)"/><path class="cls-4" d="M1709.933,435.57l8.889-10.149Z" transform="translate(-13.003 -90.043)"/><path class="cls-4" d="M1555.933,522.985l13.411,1.463Z" transform="translate(-13.003 -90.043)"/><path class="cls-4" d="M1555.933,522.985l4.267-12.8Z" transform="translate(-13.003 -90.043)"/><path class="cls-7" d="M12.149,138.13" transform="translate(-13.003 -90.043)"/><text class="cls-5" transform="translate(1329.378 608.973) rotate(90)">spi_xfer_done</text><path class="cls-8" d="M224,466H347.8c15.154-.121,18.154-7.121,18.872-14.451a148.181,148.181,0,0,0,.282-17.67" transform="translate(-13.003 -90.043)"/><text class="cls-5" transform="translate(1426.48 645.753) rotate(-90)">NOT reaching<tspan x="19.214" y="24">threshold</tspan></text><path class="cls-4" d="M1452.887,564.505c-58.927,66.731-55.7,162.83,0,231.023" transform="translate(-13.003 -90.043)"/><path class="cls-4" d="M1452.887,563.893l-13.186,2.852Z" transform="translate(-13.003 -90.043)"/><path class="cls-4" d="M1452.887,563.893l0,13.491Z" transform="translate(-13.003 -90.043)"/><text class="cls-5" transform="translate(1346.681 802.075) rotate(-9.696)">Reaching<tspan x="-1.279" y="24">threshold</tspan></text><path class="cls-8" d="M1397,466h216.284c26.475-.121,31.716-7.121,32.971-14.451,1.312-7.667.492-17.67.492-17.67" transform="translate(-13.003 -90.043)"/><line class="cls-4" x1="382.174" y1="172.43" x2="503.84" y2="172.43"/><line class="cls-4" x1="659.84" y1="172.43" x2="778.83" y2="172.625"/><line class="cls-4" x1="935.282" y1="172.43" x2="1055.591" y2="171.792"/><line class="cls-4" x1="1210.93" y1="171.792" x2="1330.579" y2="171.792"/><line class="cls-4" x1="1486.579" y1="171.792" x2="1604.567" y2="171.849"/><line class="cls-4" x1="1415.949" y1="448.957" x2="1269.87" y2="449.092"/><line class="cls-4" x1="1137.615" y1="449.425" x2="1032.11" y2="449.779"/><line class="cls-4" x1="899.892" y1="449.425" x2="794.549" y2="449.425"/><line class="cls-4" x1="662.216" y1="449.425" x2="557.192" y2="449.425"/><line class="cls-4" x1="581.468" y1="784.867" x2="686.938" y2="784.867"/><line class="cls-4" x1="819.191" y1="784.867" x2="924.695" y2="784.867"/><line class="cls-4" x1="1057.495" y1="784.867" x2="1162.919" y2="784.867"/><line class="cls-7" x1="1383.997" y1="345.526" x2="1383.997" y2="834.176"/><path class="cls-4" d="M185.174,253.167,171.7,252.6Z" transform="translate(-13.003 -90.043)"/><path class="cls-4" d="M185.174,253.167l-2.3-13.294Z" transform="translate(-13.003 -90.043)"/><line class="cls-4" x1="85.305" y1="87.113" x2="173.171" y2="164.123"/></svg>