<svg id="图层_1" data-name="图层 1" xmlns="http://www.w3.org/2000/svg" viewBox="0 0 1743.616 847"><defs><style>.cls-1,.cls-4{fill:#fff;}.cls-1,.cls-10,.cls-3,.cls-4,.cls-7,.cls-9{stroke:#000;}.cls-1,.cls-10,.cls-12,.cls-3,.cls-4,.cls-7,.cls-9{stroke-miterlimit:10;}.cls-1,.cls-10,.cls-3,.cls-7,.cls-9{stroke-width:2px;}.cls-2{fill:#c9ffce;}.cls-12,.cls-3,.cls-7,.cls-9{fill:none;}.cls-3{stroke-dasharray:12.005 12.005;}.cls-5{font-size:15px;}.cls-11,.cls-14,.cls-5{font-family:MicrosoftPhagsPa, Microsoft PhagsPa;}.cls-6{fill:#aad0ff;}.cls-7{stroke-dasharray:12.054 12.054;}.cls-8{fill:#fffebf;}.cls-9{stroke-dasharray:12.047 12.047;}.cls-11,.cls-13{font-size:20px;}.cls-12{stroke:#c7b299;}.cls-13{font-family:MicrosoftPhagsPa-Bold, Microsoft PhagsPa;font-weight:700;}.cls-14{font-size:16px;}</style></defs><polygon class="cls-1" points="872.615 1 1742.615 1 1742.275 846 872.615 846 872.615 1"/><rect class="cls-2" x="884.615" y="485" width="847" height="77" rx="13.498"/><rect class="cls-3" x="884.615" y="485" width="847" height="77" rx="13.498"/><rect class="cls-4" x="892.115" y="489.5" width="60" height="23" rx="7.813"/><text class="cls-5" transform="translate(897.786 504.417)">Data Tx </text><rect class="cls-2" x="885.615" y="390" width="847" height="77" rx="13.498"/><rect class="cls-3" x="885.615" y="390" width="847" height="77" rx="13.498"/><rect class="cls-4" x="893.115" y="394.5" width="59" height="23" rx="7.747"/><text class="cls-5" transform="translate(897.786 409.417)">Data Tx </text><rect class="cls-6" x="884.615" y="580" width="847" height="81" rx="13.844"/><rect class="cls-7" x="884.615" y="580" width="847" height="81" rx="13.844"/><rect class="cls-8" x="884.615" y="103" width="847" height="271" rx="25.322"/><rect class="cls-9" x="884.615" y="103" width="847" height="271" rx="25.322"/><path class="cls-10" d="M1121.719,197.655v0Z" transform="translate(-58.615 -89.5)"/><path class="cls-10" d="M1121.719,772.274l8.471-10.526Z" transform="translate(-58.615 -89.5)"/><path class="cls-10" d="M1121.719,772.274l-8.47-10.526Z" transform="translate(-58.615 -89.5)"/><path class="cls-10" d="M1612.734,197.467v0Z" transform="translate(-58.615 -89.5)"/><path class="cls-10" d="M1612.734,772.086l8.471-10.527Z" transform="translate(-58.615 -89.5)"/><path class="cls-10" d="M1612.734,772.086l-8.47-10.527Z" transform="translate(-58.615 -89.5)"/><text class="cls-11" transform="translate(983.103 127.591)">SPI Init.</text><rect class="cls-12" x="994.475" y="58.91" width="137.258" height="33.179" rx="12"/><text class="cls-11" transform="translate(1041.062 81.512)">MCU</text><rect class="cls-12" x="1485.49" y="59.558" width="137.258" height="33.179" rx="12"/><text class="cls-11" transform="translate(1536.448 82.16)">EPD</text><path class="cls-10" d="M1121.719,232.133h0Z" transform="translate(-58.615 -89.5)"/><path class="cls-10" d="M1612.107,232.133l-10.5,8.471Z" transform="translate(-58.615 -89.5)"/><path class="cls-10" d="M1612.107,232.133l-10.5-8.471Z" transform="translate(-58.615 -89.5)"/><path class="cls-10" d="M1612.734,274.272h0Z" transform="translate(-58.615 -89.5)"/><path class="cls-10" d="M1122.347,274.272l10.5-8.471Z" transform="translate(-58.615 -89.5)"/><path class="cls-10" d="M1122.347,274.272l10.5,8.471Z" transform="translate(-58.615 -89.5)"/><text class="cls-11" transform="translate(1186.55 136.566)">EPD External Reset Command</text><text class="cls-11" transform="translate(1241.316 178.733)">Done (BUSY = 0)</text><text class="cls-11" transform="translate(1566.017 166.785)">Reset</text><path class="cls-10" d="M1122.347,325.313h0Z" transform="translate(-58.615 -89.5)"/><path class="cls-10" d="M1612.734,325.313l-10.5,8.471Z" transform="translate(-58.615 -89.5)"/><path class="cls-10" d="M1612.734,325.313l-10.5-8.47Z" transform="translate(-58.615 -89.5)"/><text class="cls-11" transform="translate(1136.603 229.747)">EPD onboard IC Software Reset Command</text><path class="cls-10" d="M1612.107,365.323h0Z" transform="translate(-58.615 -89.5)"/><path class="cls-10" d="M1121.719,365.323l10.5-8.471Z" transform="translate(-58.615 -89.5)"/><path class="cls-10" d="M1121.719,365.323l10.5,8.471Z" transform="translate(-58.615 -89.5)"/><text class="cls-11" transform="translate(1240.688 269.784)">Done (BUSY = 0)</text><text class="cls-11" transform="translate(1565.794 258.683)">Reset</text><path class="cls-10" d="M1122.661,412.348h0Z" transform="translate(-58.615 -89.5)"/><path class="cls-10" d="M1613.048,412.348l-10.5,8.471Z" transform="translate(-58.615 -89.5)"/><path class="cls-10" d="M1613.048,412.348l-10.5-8.471Z" transform="translate(-58.615 -89.5)"/><text class="cls-11" transform="translate(1171.842 316.781)">EPD Set Configuration Command</text><path class="cls-10" d="M1612.421,452.358h0Z" transform="translate(-58.615 -89.5)"/><path class="cls-10" d="M1122.033,452.358l10.5-8.471Z" transform="translate(-58.615 -89.5)"/><path class="cls-10" d="M1122.033,452.358l10.5,8.47Z" transform="translate(-58.615 -89.5)"/><text class="cls-11" transform="translate(1241.002 356.819)">Done (BUSY = 0)</text><text class="cls-11" transform="translate(1564.335 348.845)">Set Configuration</text><text class="cls-11" transform="translate(1040.414 714.883)">Next</text><text class="cls-11" transform="translate(1529.846 713.621)">Next</text><path class="cls-10" d="M1122.36,509.6h0Z" transform="translate(-58.615 -89.5)"/><path class="cls-10" d="M1612.747,509.6l-10.5,8.471Z" transform="translate(-58.615 -89.5)"/><path class="cls-10" d="M1612.747,509.6l-10.5-8.471Z" transform="translate(-58.615 -89.5)"/><text class="cls-11" transform="translate(1175.696 414.032)">New Image Data(5000 Bytes * 2)</text><path class="cls-10" d="M1612.119,549.609h0Z" transform="translate(-58.615 -89.5)"/><path class="cls-10" d="M1121.732,549.609l10.5-8.471Z" transform="translate(-58.615 -89.5)"/><path class="cls-10" d="M1121.732,549.609l10.5,8.47Z" transform="translate(-58.615 -89.5)"/><text class="cls-11" transform="translate(1249.5 454.07)">Done (SPI Ack)</text><text class="cls-11" transform="translate(1564.435 447.099)">Set Ram</text><path class="cls-10" d="M1122.778,603.348h0Z" transform="translate(-58.615 -89.5)"/><path class="cls-10" d="M1613.166,603.348l-10.5,8.471Z" transform="translate(-58.615 -89.5)"/><path class="cls-10" d="M1613.166,603.348l-10.5-8.471Z" transform="translate(-58.615 -89.5)"/><text class="cls-11" transform="translate(1155.002 506.781)">Another New Image Data (5000 Bytes)</text><path class="cls-10" d="M1612.538,643.358h0Z" transform="translate(-58.615 -89.5)"/><path class="cls-10" d="M1122.15,643.358l10.5-8.471Z" transform="translate(-58.615 -89.5)"/><path class="cls-10" d="M1122.15,643.358l10.5,8.471Z" transform="translate(-58.615 -89.5)"/><text class="cls-11" transform="translate(1249.918 547.819)">Done (SPI Ack)</text><path class="cls-10" d="M1123.231,693h0Z" transform="translate(-58.615 -89.5)"/><path class="cls-10" d="M1613.618,693l-10.5,8.471Z" transform="translate(-58.615 -89.5)"/><path class="cls-10" d="M1613.618,693l-10.5-8.47Z" transform="translate(-58.615 -89.5)"/><text class="cls-11" transform="translate(1207.627 597.434)">Partial Update Command</text><path class="cls-10" d="M1612.99,733.01h0Z" transform="translate(-58.615 -89.5)"/><path class="cls-10" d="M1122.6,733.01l10.5-8.471Z" transform="translate(-58.615 -89.5)"/><path class="cls-10" d="M1122.6,733.01l10.5,8.471Z" transform="translate(-58.615 -89.5)"/><text class="cls-11" transform="translate(1241.572 637.471)">Done (BUSY = 0)</text><text class="cls-11" transform="translate(1564.918 540.869)">Set Ram</text><text class="cls-11" transform="translate(1564.003 629.865)">Updating</text><text class="cls-13" transform="translate(1173.674 37.596)">Fig. Optimized Operation Flow</text><line class="cls-10" x1="1063.104" y1="108.155" x2="1063.104" y2="682.5"/><line class="cls-10" x1="1554.119" y1="107.967" x2="1554.119" y2="682.5"/><line class="cls-10" x1="1063.104" y1="142.633" x2="1553.491" y2="142.633"/><line class="cls-10" x1="1063.732" y1="184.772" x2="1554.119" y2="184.772"/><line class="cls-10" x1="1063.732" y1="235.813" x2="1554.119" y2="235.813"/><line class="cls-10" x1="1063.104" y1="275.823" x2="1553.491" y2="275.823"/><line class="cls-10" x1="1554.433" y1="322.848" x2="1064.046" y2="322.848"/><line class="cls-10" x1="1063.418" y1="362.858" x2="1553.805" y2="362.858"/><line class="cls-10" x1="1554.132" y1="420.099" x2="1063.745" y2="420.099"/><line class="cls-10" x1="1063.117" y1="460.109" x2="1553.504" y2="460.109"/><line class="cls-10" x1="1554.551" y1="513.848" x2="1064.163" y2="513.848"/><line class="cls-10" x1="1063.535" y1="553.858" x2="1553.923" y2="553.858"/><line class="cls-10" x1="1555.003" y1="603.5" x2="1064.616" y2="603.5"/><line class="cls-10" x1="1063.988" y1="643.51" x2="1554.375" y2="643.51"/><rect class="cls-4" x="892.615" y="585" width="102.5" height="23" rx="10.211"/><text class="cls-5" transform="translate(896.631 601.38)">Partial Update </text><rect class="cls-4" x="893.615" y="109.962" width="69.102" height="23" rx="8.384"/><text class="cls-5" transform="translate(897.696 126.342)">E-ink Init. </text><text class="cls-14" transform="translate(961.764 162.602)">Sleep &amp;<tspan x="-33.75" y="19.2">Wait for Interrupt</tspan></text><polygon class="cls-1" points="1 1 871 1 870.66 846 1 846 1 1"/><rect class="cls-2" x="13" y="579" width="847" height="77" rx="13.498"/><rect class="cls-3" x="13" y="579" width="847" height="77" rx="13.498"/><rect class="cls-4" x="20.5" y="583.5" width="60" height="23" rx="7.813"/><text class="cls-5" transform="translate(26.17 598.417)">Data Tx </text><rect class="cls-2" x="14" y="390" width="847" height="77" rx="13.498"/><rect class="cls-3" x="14" y="390" width="847" height="77" rx="13.498"/><rect class="cls-4" x="21.5" y="394.5" width="59" height="23" rx="7.747"/><text class="cls-5" transform="translate(26.17 409.417)">Data Tx </text><rect class="cls-6" x="13" y="674" width="847" height="81" rx="13.844"/><rect class="cls-7" x="13" y="674" width="847" height="81" rx="13.844"/><rect class="cls-6" x="13" y="482" width="847" height="77" rx="13.498"/><rect class="cls-3" x="13" y="482" width="847" height="77" rx="13.498"/><rect class="cls-4" x="20.5" y="486.5" width="130" height="23" rx="11.5"/><rect class="cls-8" x="13" y="103" width="847" height="271" rx="25.322"/><rect class="cls-9" x="13" y="103" width="847" height="271" rx="25.322"/><path class="cls-10" d="M250.1,197.655v0Z" transform="translate(-58.615 -89.5)"/><path class="cls-10" d="M250.1,866.274l8.471-10.526Z" transform="translate(-58.615 -89.5)"/><path class="cls-10" d="M250.1,866.274l-8.471-10.526Z" transform="translate(-58.615 -89.5)"/><path class="cls-10" d="M741.119,197.467v0Z" transform="translate(-58.615 -89.5)"/><path class="cls-10" d="M741.119,866.086l8.471-10.527Z" transform="translate(-58.615 -89.5)"/><path class="cls-10" d="M741.119,866.086l-8.471-10.527Z" transform="translate(-58.615 -89.5)"/><text class="cls-11" transform="translate(111.488 127.591)">SPI Init.</text><rect class="cls-12" x="122.86" y="58.91" width="137.258" height="33.179" rx="12"/><text class="cls-11" transform="translate(169.447 81.512)">MCU</text><rect class="cls-12" x="613.875" y="59.558" width="137.258" height="33.179" rx="12"/><text class="cls-11" transform="translate(664.833 82.16)">EPD</text><path class="cls-10" d="M250.1,232.133h0Z" transform="translate(-58.615 -89.5)"/><path class="cls-10" d="M740.491,232.133l-10.5,8.471Z" transform="translate(-58.615 -89.5)"/><path class="cls-10" d="M740.491,232.133l-10.5-8.471Z" transform="translate(-58.615 -89.5)"/><path class="cls-10" d="M741.119,274.272h0Z" transform="translate(-58.615 -89.5)"/><path class="cls-10" d="M250.732,274.272l10.5-8.471Z" transform="translate(-58.615 -89.5)"/><path class="cls-10" d="M250.732,274.272l10.5,8.471Z" transform="translate(-58.615 -89.5)"/><text class="cls-11" transform="translate(314.935 136.566)">EPD External Reset Command</text><text class="cls-11" transform="translate(369.701 178.733)">Done (BUSY = 0)</text><text class="cls-11" transform="translate(694.402 166.785)">Reset</text><path class="cls-10" d="M250.732,325.313h0Z" transform="translate(-58.615 -89.5)"/><path class="cls-10" d="M741.119,325.313l-10.5,8.471Z" transform="translate(-58.615 -89.5)"/><path class="cls-10" d="M741.119,325.313l-10.5-8.47Z" transform="translate(-58.615 -89.5)"/><text class="cls-11" transform="translate(264.987 229.747)">EPD onboard IC Software Reset Command</text><path class="cls-10" d="M740.491,365.323h0Z" transform="translate(-58.615 -89.5)"/><path class="cls-10" d="M250.1,365.323l10.5-8.471Z" transform="translate(-58.615 -89.5)"/><path class="cls-10" d="M250.1,365.323l10.5,8.471Z" transform="translate(-58.615 -89.5)"/><text class="cls-11" transform="translate(369.073 269.784)">Done (BUSY = 0)</text><text class="cls-11" transform="translate(694.179 258.683)">Reset</text><path class="cls-10" d="M251.046,412.348h0Z" transform="translate(-58.615 -89.5)"/><path class="cls-10" d="M741.433,412.348l-10.5,8.471Z" transform="translate(-58.615 -89.5)"/><path class="cls-10" d="M741.433,412.348l-10.5-8.471Z" transform="translate(-58.615 -89.5)"/><text class="cls-11" transform="translate(300.227 316.781)">EPD Set Configuration Command</text><path class="cls-10" d="M740.805,452.358h0Z" transform="translate(-58.615 -89.5)"/><path class="cls-10" d="M250.418,452.358l10.5-8.471Z" transform="translate(-58.615 -89.5)"/><path class="cls-10" d="M250.418,452.358l10.5,8.47Z" transform="translate(-58.615 -89.5)"/><text class="cls-11" transform="translate(369.387 356.819)">Done (BUSY = 0)</text><text class="cls-11" transform="translate(692.72 348.845)">Set Configuration</text><text class="cls-11" transform="translate(168.798 808.883)">Next</text><text class="cls-11" transform="translate(658.231 807.621)">Next</text><text class="cls-11" transform="translate(137.49 171.386)">Wait</text><path class="cls-10" d="M250.744,509.6h0Z" transform="translate(-58.615 -89.5)"/><path class="cls-10" d="M741.132,509.6l-10.5,8.471Z" transform="translate(-58.615 -89.5)"/><path class="cls-10" d="M741.132,509.6l-10.5-8.471Z" transform="translate(-58.615 -89.5)"/><text class="cls-11" transform="translate(304.081 414.032)">New Image Data(5000 Bytes * 2)</text><path class="cls-10" d="M740.5,549.609h0Z" transform="translate(-58.615 -89.5)"/><path class="cls-10" d="M250.116,549.609l10.5-8.471Z" transform="translate(-58.615 -89.5)"/><path class="cls-10" d="M250.116,549.609l10.5,8.47Z" transform="translate(-58.615 -89.5)"/><text class="cls-11" transform="translate(377.884 454.07)">Done (SPI Ack)</text><text class="cls-11" transform="translate(692.82 447.099)">Set Ram</text><text class="cls-11" transform="translate(137.891 266.994)">Wait</text><text class="cls-11" transform="translate(137.391 348.994)">Wait</text><text class="cls-11" transform="translate(137.891 445.994)">Wait</text><path class="cls-10" d="M251.2,596.251h0Z" transform="translate(-58.615 -89.5)"/><path class="cls-10" d="M741.584,596.251l-10.5,8.471Z" transform="translate(-58.615 -89.5)"/><path class="cls-10" d="M741.584,596.251l-10.5-8.47Z" transform="translate(-58.615 -89.5)"/><text class="cls-11" transform="translate(315.237 500.685)">Full-screen Update Command</text><path class="cls-10" d="M740.956,636.261h0Z" transform="translate(-58.615 -89.5)"/><path class="cls-10" d="M250.569,636.261l10.5-8.471Z" transform="translate(-58.615 -89.5)"/><path class="cls-10" d="M250.569,636.261l10.5,8.471Z" transform="translate(-58.615 -89.5)"/><text class="cls-11" transform="translate(369.538 540.722)">Done (BUSY = 0)</text><path class="cls-10" d="M251.163,697.348h0Z" transform="translate(-58.615 -89.5)"/><path class="cls-10" d="M741.55,697.348l-10.5,8.471Z" transform="translate(-58.615 -89.5)"/><path class="cls-10" d="M741.55,697.348l-10.5-8.471Z" transform="translate(-58.615 -89.5)"/><text class="cls-11" transform="translate(283.387 600.781)">Another New Image Data (5000 Bytes)</text><path class="cls-10" d="M740.922,737.358h0Z" transform="translate(-58.615 -89.5)"/><path class="cls-10" d="M250.535,737.358l10.5-8.471Z" transform="translate(-58.615 -89.5)"/><path class="cls-10" d="M250.535,737.358l10.5,8.471Z" transform="translate(-58.615 -89.5)"/><text class="cls-11" transform="translate(378.303 641.819)">Done (SPI Ack)</text><path class="cls-10" d="M251.616,787h0Z" transform="translate(-58.615 -89.5)"/><path class="cls-10" d="M742,787l-10.5,8.471Z" transform="translate(-58.615 -89.5)"/><path class="cls-10" d="M742,787l-10.5-8.47Z" transform="translate(-58.615 -89.5)"/><text class="cls-11" transform="translate(336.012 691.434)">Partial Update Command</text><path class="cls-10" d="M741.375,827.01h0Z" transform="translate(-58.615 -89.5)"/><path class="cls-10" d="M250.988,827.01l10.5-8.471Z" transform="translate(-58.615 -89.5)"/><path class="cls-10" d="M250.988,827.01l10.5,8.471Z" transform="translate(-58.615 -89.5)"/><text class="cls-11" transform="translate(369.957 731.471)">Done (BUSY = 0)</text><text class="cls-11" transform="translate(138.583 534.609)">Wait</text><text class="cls-11" transform="translate(137.583 635.609)">Wait</text><text class="cls-11" transform="translate(137.583 726.609)">Wait</text><text class="cls-11" transform="translate(692.888 532.866)">Updating</text><text class="cls-11" transform="translate(693.303 634.869)">Set Ram</text><text class="cls-11" transform="translate(692.388 723.865)">Updating</text><text class="cls-13" transform="translate(317.664 37.596)">Fig. Typical Operation Flow</text><line class="cls-10" x1="191.489" y1="108.155" x2="191.489" y2="776.774"/><line class="cls-10" x1="682.504" y1="107.967" x2="682.504" y2="776.586"/><line class="cls-10" x1="191.489" y1="142.633" x2="681.876" y2="142.633"/><line class="cls-10" x1="192.117" y1="184.772" x2="682.504" y2="184.772"/><line class="cls-10" x1="192.117" y1="235.813" x2="682.504" y2="235.813"/><line class="cls-10" x1="191.489" y1="275.823" x2="681.876" y2="275.823"/><line class="cls-10" x1="682.818" y1="322.848" x2="192.431" y2="322.848"/><line class="cls-10" x1="191.803" y1="362.858" x2="682.19" y2="362.858"/><line class="cls-10" x1="682.517" y1="420.099" x2="192.129" y2="420.099"/><line class="cls-10" x1="191.501" y1="460.109" x2="681.889" y2="460.109"/><line class="cls-10" x1="682.969" y1="506.751" x2="192.582" y2="506.751"/><line class="cls-10" x1="191.954" y1="546.761" x2="682.341" y2="546.761"/><line class="cls-10" x1="682.935" y1="607.848" x2="192.548" y2="607.848"/><line class="cls-10" x1="191.92" y1="647.858" x2="682.307" y2="647.858"/><line class="cls-10" x1="683.388" y1="697.5" x2="193" y2="697.5"/><line class="cls-10" x1="192.373" y1="737.51" x2="682.76" y2="737.51"/><text class="cls-5" transform="translate(23.835 501.417)">Full-screen Update </text><rect class="cls-4" x="21" y="679" width="102.5" height="23" rx="10.211"/><text class="cls-5" transform="translate(25.015 695.38)">Partial Update </text><rect class="cls-4" x="22" y="109.962" width="69.102" height="23" rx="8.384"/><text class="cls-5" transform="translate(26.081 126.342)">E-ink Init. </text><text class="cls-14" transform="translate(961.764 250.525)">Sleep &amp;<tspan x="-33.75" y="19.2">Wait for Interrupt</tspan></text><text class="cls-14" transform="translate(961.764 339.525)">Sleep &amp;<tspan x="-33.75" y="19.2">Wait for Interrupt</tspan></text><text class="cls-14" transform="translate(961.764 436.525)">Sleep &amp;<tspan x="-33.75" y="19.2">Wait for Interrupt</tspan></text><text class="cls-14" transform="translate(961.764 531.371)">Sleep &amp;<tspan x="-33.75" y="19.2">Wait for Interrupt</tspan></text><text class="cls-14" transform="translate(961.764 622.217)">Sleep &amp;<tspan x="-33.75" y="19.2">Wait for Interrupt</tspan></text></svg>