<svg id="图层_1" data-name="图层 1" xmlns="http://www.w3.org/2000/svg" xmlns:xlink="http://www.w3.org/1999/xlink" viewBox="0 0 855.731 208.038"><defs><style>.cls-1,.cls-11,.cls-12,.cls-15,.cls-24,.cls-27,.cls-7,.cls-8{fill:none;}.cls-2{fill:#231815;}.cls-26,.cls-3,.cls-35,.cls-5,.cls-9{fill:#fff;}.cls-34,.cls-4{fill:#e6e6e6;}.cls-10,.cls-11,.cls-12,.cls-15,.cls-23,.cls-26,.cls-27,.cls-34,.cls-35,.cls-5,.cls-7,.cls-9{stroke:#000;}.cls-15,.cls-5{stroke-linecap:round;}.cls-12,.cls-15,.cls-24,.cls-26,.cls-27,.cls-35,.cls-5{stroke-linejoin:round;}.cls-13,.cls-19,.cls-6{font-size:10px;}.cls-16,.cls-20,.cls-21,.cls-6{font-family:TimesNewRomanPSMT, Times New Roman;}.cls-10,.cls-11,.cls-23,.cls-34,.cls-7,.cls-8,.cls-9{stroke-miterlimit:10;}.cls-10,.cls-15,.cls-27,.cls-34,.cls-7,.cls-9{stroke-width:0.5px;}.cls-24,.cls-8{stroke:red;}.cls-11,.cls-12,.cls-24,.cls-8{stroke-width:0.8px;}.cls-11,.cls-12,.cls-24,.cls-26,.cls-8{stroke-dasharray:1.5;}.cls-13,.cls-22,.cls-33{font-family:TimesNewRomanPS-BoldMT, Times New Roman;}.cls-13,.cls-19,.cls-22,.cls-33{font-weight:700;}.cls-14{letter-spacing:-0.092em;}.cls-16{font-size:8px;}.cls-17,.cls-21,.cls-22{font-size:6px;}.cls-18{letter-spacing:-0.018em;}.cls-19{font-family:TimesNewRomanPS-BoldItalicMT, Times New Roman;font-style:italic;}.cls-19,.cls-25{letter-spacing:-0.037em;}.cls-20{font-size:7px;}.cls-23{stroke-width:2px;}.cls-28{fill:#333;}.cls-29{fill:gray;}.cls-30{fill:red;}.cls-31{fill:#ed1c24;}.cls-32{fill:#0071bc;}.cls-33{font-size:9px;}.cls-35{stroke-dasharray:3;}</style><symbol id="箭头_30" data-name="箭头 30" viewBox="0 0 45.72 15.336"><rect class="cls-1" width="45.72" height="15.336"/><polygon class="cls-2" points="17.116 10.841 17.114 15.336 45.72 7.668 17.116 0 17.116 4.493 0 4.493 0 10.841 17.116 10.841"/></symbol></defs><rect class="cls-3" width="855.731" height="208.038"/><polyline class="cls-4" points="18.834 7.731 18.834 185.577 205.5 185.577 205.5 7.731"/><polyline class="cls-4" points="211.68 7.731 211.68 185.577 342.5 185.577 342.5 7.731"/><polyline class="cls-4" points="345.5 7.731 567.5 7.731 567.5 185.577 345.5 185.577"/><rect class="cls-5" x="394.5" y="22.5" width="113" height="136.538"/><polyline class="cls-4" points="571.167 7.731 571.154 185.577 682.5 185.577 682.5 7.731"/><polyline class="cls-4" points="686.5 7.5 686.5 185.577 839.731 185.577 839.731 7.731"/><rect class="cls-3" x="433.75" y="89.75" width="38.5" height="23.5"/><path d="M489.5,190.5v23h-38v-23h38m.5-.5H451v24h39V190Z" transform="translate(-17.5 -100.5)"/><text class="cls-6" transform="translate(437.885 98.346)">Buck<tspan x="0" y="12">control</tspan></text><path class="cls-7" d="M619,232" transform="translate(-17.5 -100.5)"/><path class="cls-7" d="M571,182" transform="translate(-17.5 -100.5)"/><path class="cls-7" d="M593.993,225.305" transform="translate(-17.5 -100.5)"/><rect class="cls-3" x="405.75" y="133.75" width="67.5" height="16.5"/><path d="M490.5,234.5v16h-67v-16h67m.5-.5H423v17h68V234Z" transform="translate(-17.5 -100.5)"/><text class="cls-6" transform="translate(423.885 145.346)">UVLO</text><use width="45.72" height="15.336" transform="matrix(0, -0.109, 0.13, 0, 440, 118.724)" xlink:href="#箭头_30"/><path class="cls-7" d="M460.4,213.282" transform="translate(-17.5 -100.5)"/><path class="cls-7" d="M458.9,220.224" transform="translate(-17.5 -100.5)"/><line class="cls-8" x1="441" y1="119.5" x2="441" y2="133.5"/><use width="45.72" height="15.336" transform="matrix(0, -0.109, 0.13, 0, 461.449, 118.625)" xlink:href="#箭头_30"/><path class="cls-7" d="M480.349,220.125" transform="translate(-17.5 -100.5)"/><line class="cls-8" x1="462.449" y1="119.401" x2="462.449" y2="133.401"/><line class="cls-7" x1="441" y1="55.113" x2="450.063" y2="50.887"/><polyline class="cls-7" points="414.115 133.5 414.115 55.113 439 55.113 441 55.113"/><circle class="cls-9" cx="441" cy="55.113" r="1"/><polyline class="cls-7" points="451 55.113 453 55.113 492.502 55.113 492.502 70.437 492.502 72.437"/><line class="cls-7" x1="492.502" y1="72.437" x2="496.728" y2="81.5"/><circle class="cls-9" cx="492.502" cy="72.437" r="1"/><polyline class="cls-7" points="492.502 82.437 492.502 84.113 492.502 146.611 492.502 159.5"/><circle class="cls-10" cx="492.502" cy="55.113" r="1"/><circle class="cls-10" cx="414.113" cy="55.113" r="1"/><use width="45.72" height="15.336" transform="matrix(0, -0.109, 0.13, 0, 444, 62.612)" xlink:href="#箭头_30"/><path class="cls-7" d="M463.4,164.112" transform="translate(-17.5 -100.5)"/><line class="cls-11" x1="445" y1="64" x2="445" y2="90"/><use width="45.72" height="15.336" transform="translate(485.5 76) scale(0.109 0.13)" xlink:href="#箭头_30"/><path class="cls-11" d="M508,208.615" transform="translate(-17.5 -100.5)"/><polyline class="cls-12" points="462.449 90 462.449 77 485.5 77"/><text class="cls-13" transform="translate(399.328 33.814)"><tspan class="cls-14">L</tspan><tspan x="5.752" y="0">TC3588-1</tspan></text><line class="cls-7" x1="484.502" y1="173.25" x2="500.502" y2="173.25"/><line class="cls-7" x1="492.502" y1="173.25" x2="492.502" y2="158.25"/><line class="cls-7" x1="487.502" y1="176.058" x2="497.502" y2="176.058"/><line class="cls-7" x1="490.502" y1="178.654" x2="494.502" y2="178.654"/><path class="cls-7" d="M539.5,155.552c0-2.761,1.642-5,3.666-5s3.666,2.239,3.666,5" transform="translate(-17.5 -100.5)"/><path class="cls-7" d="M546.832,155.552c0-2.761,1.642-5,3.666-5s3.667,2.239,3.667,5" transform="translate(-17.5 -100.5)"/><path class="cls-7" d="M554.165,155.552c0-2.761,1.641-5,3.666-5s3.666,2.239,3.666,5l12.5.061" transform="translate(-17.5 -100.5)"/><path class="cls-7" d="M510,155.613l11-.061h11.168c0-2.761,1.642-5,3.667-5s3.666,2.239,3.666,5" transform="translate(-17.5 -100.5)"/><line class="cls-7" x1="548.782" y1="70.154" x2="564.782" y2="70.154"/><path class="cls-7" d="M582.282,179.116" transform="translate(-17.5 -100.5)"/><path class="cls-7" d="M566.282,176.4c1.6-1.492,4.582-2.5,8-2.5s6.4,1,8,2.5" transform="translate(-17.5 -100.5)"/><line class="cls-7" x1="556.782" y1="73.154" x2="556.782" y2="88.154"/><line class="cls-7" x1="556.782" y1="55.154" x2="556.782" y2="70.154"/><line class="cls-7" x1="560.282" y1="64.154" x2="564.282" y2="64.154"/><line class="cls-7" x1="562.282" y1="62.154" x2="562.282" y2="66.154"/><circle class="cls-10" cx="556.782" cy="55.113" r="1"/><line class="cls-7" x1="548.782" y1="93.25" x2="564.782" y2="93.25"/><line class="cls-7" x1="556.782" y1="93.25" x2="556.782" y2="78.25"/><line class="cls-7" x1="551.782" y1="96.058" x2="561.782" y2="96.058"/><line class="cls-7" x1="554.782" y1="98.654" x2="558.782" y2="98.654"/><rect class="cls-5" x="591" y="23.385" width="80" height="136.538"/><line class="cls-15" x1="556.5" y1="55.113" x2="589.5" y2="55.154"/><line class="cls-7" x1="587.833" y1="26.171" x2="571.833" y2="26.171"/><path class="cls-7" d="M588.667,117.722" transform="translate(-17.5 -100.5)"/><polyline class="cls-7" points="579.833 26.171 579.833 41.171 591.308 41.171"/><line class="cls-7" x1="584.833" y1="23.364" x2="574.833" y2="23.364"/><line class="cls-7" x1="581.833" y1="20.767" x2="577.833" y2="20.767"/><line class="cls-7" x1="281.101" y1="35.024" x2="289.586" y2="43.509"/><polygon class="cls-10" points="290.981 41.23 287.307 44.904 292.326 46.249 290.981 41.23"/><line class="cls-7" x1="292.414" y1="46.337" x2="294.536" y2="44.216"/><line class="cls-7" x1="292.414" y1="46.337" x2="290.293" y2="48.459"/><line class="cls-7" x1="292.414" y1="46.337" x2="300.899" y2="54.823"/><line class="cls-7" x1="261.101" y1="54.823" x2="269.586" y2="46.337"/><polygon class="cls-10" points="267.307 44.942 270.981 48.616 272.326 43.597 267.307 44.942"/><line class="cls-7" x1="272.414" y1="43.509" x2="270.293" y2="41.388"/><line class="cls-7" x1="272.414" y1="43.509" x2="274.536" y2="45.63"/><line class="cls-7" x1="272.414" y1="43.509" x2="280.899" y2="35.024"/><line class="cls-7" x1="281.101" y1="74.951" x2="289.586" y2="66.465"/><polygon class="cls-10" points="287.307 65.07 290.981 68.745 292.326 63.725 287.307 65.07"/><line class="cls-7" x1="292.414" y1="63.637" x2="290.293" y2="61.516"/><line class="cls-7" x1="292.414" y1="63.637" x2="294.536" y2="65.758"/><line class="cls-7" x1="300.899" y1="55.152" x2="292.414" y2="63.637"/><line class="cls-7" x1="261.101" y1="55.177" x2="269.586" y2="63.663"/><polygon class="cls-10" points="270.981 61.384 267.307 65.058 272.326 66.403 270.981 61.384"/><line class="cls-7" x1="272.414" y1="66.491" x2="274.536" y2="64.37"/><line class="cls-7" x1="272.414" y1="66.491" x2="270.293" y2="68.612"/><line class="cls-7" x1="272.414" y1="66.491" x2="280.899" y2="74.976"/><path class="cls-7" d="M309.826,146.749" transform="translate(-17.5 -100.5)"/><circle class="cls-10" cx="281" cy="35" r="1"/><circle class="cls-10" cx="301" cy="55" r="1"/><circle class="cls-10" cx="281" cy="75" r="1"/><circle class="cls-10" cx="261" cy="55" r="1"/><text class="cls-16" transform="translate(594.604 42.891)">GND</text><text class="cls-16" transform="translate(594.921 57.891)">VDD</text><text class="cls-13" transform="translate(619.921 32.968)">MCU</text><line class="cls-7" x1="230.038" y1="175.019" x2="246.038" y2="175.019"/><polyline class="cls-7" points="238.038 175.019 238.038 160.019 238.038 55.154 261.09 55"/><line class="cls-7" x1="233.038" y1="177.827" x2="243.038" y2="177.827"/><line class="cls-7" x1="236.038" y1="180.423" x2="240.038" y2="180.423"/><polyline class="cls-7" points="368 98.5 368 94.367 365.25 92.79 370.75 89.635 365.25 86.481 370.75 83.286 365.25 80.091 370.75 76.896 365.25 73.741 368 72.164 368 68.5 368 54.113"/><circle class="cls-10" cx="368" cy="55" r="1"/><circle class="cls-10" cx="368" cy="110" r="1"/><polyline class="cls-7" points="368 97.551 368 122.5 368 126.164 365.25 127.741 370.75 130.896 365.25 134.091 370.75 137.286 365.25 140.481 370.75 143.635 365.25 146.79 368 148.367 368 152.5 368 158.25 368 173.25"/><circle class="cls-10" cx="320" cy="55" r="1"/><line class="cls-7" x1="312" y1="88.077" x2="328" y2="88.077"/><path class="cls-7" d="M345.5,197.039" transform="translate(-17.5 -100.5)"/><path class="cls-7" d="M329.5,194.323c1.6-1.492,4.582-2.5,8-2.5s6.4,1.006,8,2.5" transform="translate(-17.5 -100.5)"/><polyline class="cls-7" points="320 91.077 320 106.077 320 158.25 320 173.25"/><line class="cls-7" x1="323.5" y1="82.077" x2="327.5" y2="82.077"/><line class="cls-7" x1="325.5" y1="80.077" x2="325.5" y2="84.077"/><polyline class="cls-7" points="301 55 320 55 320 73.077 320 88.077"/><line class="cls-7" x1="312" y1="173.25" x2="328" y2="173.25"/><line class="cls-7" x1="315" y1="176.058" x2="325" y2="176.058"/><line class="cls-7" x1="318" y1="178.654" x2="322" y2="178.654"/><text class="cls-13" transform="translate(331.142 133.891) rotate(-90)">Cstorage</text><text class="cls-6" transform="translate(437.738 132.098) rotate(-90)">P<tspan class="cls-17" x="5.562" y="0">start</tspan></text><text class="cls-6" transform="translate(459.737 132.141) rotate(-90)">P<tspan class="cls-17" x="5.562" y="0">close</tspan></text><text class="cls-13" transform="translate(553.353 67.815) rotate(-90)">C<tspan class="cls-18" x="7.222" y="0">r</tspan></text><text class="cls-19" transform="translate(527.758 45.84)">L</text><line class="cls-7" x1="292.654" y1="55.115" x2="296.654" y2="55.115"/><line class="cls-7" x1="294.654" y1="53.115" x2="294.654" y2="57.115"/><line class="cls-7" x1="264.654" y1="55.115" x2="268.654" y2="55.115"/><text class="cls-13" transform="translate(273.963 32.712)">~</text><text class="cls-13" transform="translate(273.963 81.712)">~</text><rect class="cls-9" x="506.5" y="54" width="2" height="2"/><rect class="cls-9" x="491.5" y="158" width="2" height="2"/><text class="cls-20" transform="translate(495.06 63.246)">S<tspan class="cls-18" x="3.893" y="0">W</tspan></text><text class="cls-20" transform="translate(396.337 62.951)">VIN</text><text class="cls-13" transform="translate(380.709 88.525) rotate(-90)">R1</text><text class="cls-13" transform="translate(380.709 142.896) rotate(-90)">R2</text><polyline class="cls-7" points="709.269 152.24 707.269 152.24 697.038 152.24 697.038 148.899 697.038 144.765 694.288 143.188 699.788 140.034 694.288 136.879 699.788 133.684 694.288 130.489 699.788 127.294 694.288 124.14 697.038 122.563 697.038 117.885 697 110"/><circle class="cls-9" cx="709.269" cy="152.24" r="1"/><polyline class="cls-7" points="719.269 152.24 721.269 152.24 729.731 152.24 729.731 157.17 729.731 161.5"/><circle class="cls-9" cx="719.269" cy="152.24" r="1"/><line class="cls-7" x1="709.269" y1="148.74" x2="719.269" y2="148.74"/><line class="cls-7" x1="714.269" y1="144.74" x2="714.269" y2="148.74"/><line class="cls-7" x1="721.731" y1="173.413" x2="737.731" y2="173.413"/><line class="cls-7" x1="729.731" y1="173.413" x2="729.731" y2="158.413"/><line class="cls-7" x1="724.731" y1="176.221" x2="734.731" y2="176.221"/><line class="cls-7" x1="727.731" y1="178.817" x2="731.731" y2="178.817"/><line class="cls-7" x1="671.5" y1="152.24" x2="697.038" y2="152.24"/><path class="cls-7" d="M707.846,210.5h13.308" transform="translate(-17.5 -100.5)"/><text class="cls-21" transform="translate(690.5 108.301)">VDD</text><text class="cls-16" transform="translate(645.869 152.43)">GPIO</text><text class="cls-22" transform="translate(703.383 141.15)">BUT<tspan class="cls-18" x="12.337" y="0">T</tspan><tspan x="16.23" y="0">ON</tspan></text><rect class="cls-9" x="590" y="40" width="2" height="2"/><rect class="cls-9" x="590" y="54" width="2" height="2"/><text class="cls-16" transform="translate(645.074 59.609)">SPIM</text><rect class="cls-5" x="708.736" y="46.833" width="71" height="18"/><polygon class="cls-10" points="703.566 53.402 703.566 58.598 708.066 56 703.566 53.402"/><polygon class="cls-10" points="676.514 58.598 676.514 53.402 672.014 56 676.514 58.598"/><line class="cls-23" x1="675.014" y1="56" x2="705.066" y2="56"/><text class="cls-16" transform="translate(710.916 59.225)">SPIS</text><line class="cls-7" x1="801.885" y1="58.024" x2="810.948" y2="53.798"/><polyline class="cls-7" points="801.885 58.024 799.885 58.024 780.346 58.024"/><circle class="cls-9" cx="801.885" cy="58.024" r="1"/><polyline class="cls-7" points="811.885 58.024 813.885 58.024 826.526 58.024 826.526 103.717"/><polyline class="cls-7" points="826.526 93.717 826.526 158.413 826.526 173.413"/><line class="cls-7" x1="818.526" y1="173.413" x2="834.526" y2="173.413"/><line class="cls-7" x1="821.526" y1="176.221" x2="831.526" y2="176.221"/><line class="cls-7" x1="824.526" y1="178.817" x2="828.526" y2="178.817"/><text class="cls-16" transform="translate(645.342 42.866)">GPIO</text><use width="45.72" height="15.336" transform="matrix(0, 0.109, -0.13, 0, 807.8, 45.5)" xlink:href="#箭头_30"/><polyline class="cls-24" points="806.801 44.962 806.801 39.962 671 40.269"/><rect class="cls-9" x="670" y="39" width="2" height="2"/><rect class="cls-9" x="670" y="55" width="2" height="2"/><rect class="cls-9" x="670" y="151" width="2" height="2"/><text class="cls-16" transform="translate(594.927 113.199)">LPCOM<tspan class="cls-25" x="27.563" y="0">P</tspan></text><line class="cls-7" x1="414.113" y1="55.113" x2="394.5" y2="55"/><rect class="cls-9" x="393.5" y="54" width="2" height="2"/><text class="cls-13" transform="translate(219.33 197.607)">Energy Harvesting Ci<tspan class="cls-18" x="93.325" y="0">r</tspan><tspan x="97.583" y="0">cuit</tspan></text><text class="cls-13" transform="translate(398.971 197.607)">Energy Management Unit</text><text class="cls-13" transform="translate(588.768 197.607)">Energy Use<tspan class="cls-18" x="49.16" y="0">r</tspan><tspan x="53.418" y="0" xml:space="preserve"> Unit</tspan></text><text class="cls-13" transform="translate(738.913 197.607)">Peripheral</text><text class="cls-20" transform="translate(214.585 30.412)">AC1</text><text class="cls-20" transform="translate(214.411 96.182)">AC2</text><polygon class="cls-26" points="34.5 48.193 109.5 48.193 109.5 64.163 34.5 63.938 34.5 48.193"/><path class="cls-7" d="M109.513,149.219a5,5,0,0,1,10,0" transform="translate(-17.5 -100.5)"/><path class="cls-7" d="M79.538,164.706a5,5,0,0,0,10,0l-.025-15.487a5,5,0,0,1,10,0" transform="translate(-17.5 -100.5)"/><path class="cls-7" d="M109.538,148.71v16a5,5,0,0,1-10,0" transform="translate(-17.5 -100.5)"/><path class="cls-7" d="M260.564,190" transform="translate(-17.5 -100.5)"/><path class="cls-27" d="M119.513,164.706,119.5,170.5v19.525L229.179,190h21.385v-.221a5,5,0,0,1,10,0V190H298.5V175.5" transform="translate(-17.5 -100.5)"/><rect class="cls-28" x="31.5" y="52.478" width="105.154" height="7.4"/><polyline class="cls-29" points="156.5 52.5 156.5 48.5 131.397 48.5 131.397 52.5"/><path d="M156.9,152.967" transform="translate(-17.5 -100.5)"/><path class="cls-30" d="M173.718,158.8" transform="translate(-17.5 -100.5)"/><polyline class="cls-31" points="138.5 52.5 156.5 52.5 156.5 57.5 138.5 57.5"/><polyline class="cls-32" points="138.5 57.5 156.5 57.5 156.5 62.5 138.5 62.5"/><polyline class="cls-29" points="156.5 66.5 156.5 62.5 131.362 62.5 131.362 66.5"/><path class="cls-7" d="M59.5,163.974a5,5,0,0,0,10,0l-.026-15.487a5,5,0,0,1,10,0" transform="translate(-17.5 -100.5)"/><path class="cls-7" d="M59.5,148.693V123h239v12.5" transform="translate(-17.5 -100.5)"/><polygon class="cls-10" points="165.287 43.513 170.483 43.513 167.885 39.013 165.287 43.513"/><polygon class="cls-10" points="170.483 70.564 165.287 70.564 167.885 75.064 170.483 70.564"/><line class="cls-23" x1="167.885" y1="72.064" x2="167.885" y2="42.013"/><text class="cls-21" transform="translate(145.374 56.573)">N</text><text class="cls-21" transform="translate(145.832 61.573)">S</text><text class="cls-33" transform="translate(175.193 59.643)">Δd</text><rect class="cls-9" x="210.68" y="21.5" width="2" height="2"/><rect class="cls-9" x="210.68" y="88.5" width="2" height="2"/><text class="cls-13" transform="translate(73.446 197.863)">Energy Harveste<tspan class="cls-18" x="71.924" y="0">r</tspan></text><line class="cls-7" x1="360" y1="173.25" x2="376" y2="173.25"/><line class="cls-7" x1="363" y1="176.058" x2="373" y2="176.058"/><line class="cls-7" x1="366" y1="178.654" x2="370" y2="178.654"/><polyline class="cls-7" points="320 55 354.5 55 381.803 55.113 394.113 55.113"/><path class="cls-7" d="M385.5,210.5H401v56.587H505.077a5,5,0,0,1,10,0h34.231V211.5H608.5" transform="translate(-17.5 -100.5)"/><rect class="cls-9" x="590" y="110" width="2" height="2"/><path class="cls-4" d="M260.564,190" transform="translate(-17.5 -100.5)"/><path class="cls-34" d="M260.564,190" transform="translate(-17.5 -100.5)"/><path class="cls-34" d="M260.564,190.25" transform="translate(-17.5 -100.5)"/><text class="cls-13" transform="translate(753.126 54.786)">EINK</text><rect class="cls-35" x="598.269" y="72.805" width="46.231" height="25.695"/><text class="cls-16" transform="translate(600.076 87.75)">512KB Flash</text></svg>